<?xml version="1.0" encoding="UTF-8"?>
<svg xmlns="http://www.w3.org/2000/svg" xmlns:xlink="http://www.w3.org/1999/xlink" width="100px" height="px" viewBox="0 0 100 100" version="1.1">
<g id="surface1">
<path style=" stroke:none;fill-rule:nonzero;fill:rgb(100%,100%,100%);fill-opacity:1;" d="M 87.996094 93.480469 L 87.996094 75.835938 L 61.953125 75.835938 L 61.953125 93.480469 L 37.09375 93.480469 L 31.121094 55.523438 C 33.015625 53.050781 34.144531 49.964844 34.144531 46.617188 C 34.144531 46.375 34.136719 46.132812 34.125 45.890625 L 59.351562 19.816406 L 65.46875 19.816406 C 64.878906 21.125 64.546875 22.574219 64.546875 24.097656 C 64.546875 28.710938 67.558594 32.632812 71.714844 34.003906 L 71.714844 42.957031 L 68.894531 42.957031 L 68.640625 53.289062 L 57.527344 60.730469 L 64.714844 70.890625 L 70.035156 67.128906 L 66.710938 62.425781 L 74.976562 56.890625 L 83.238281 62.425781 L 79.914062 67.128906 L 85.234375 70.890625 L 92.421875 60.730469 L 81.308594 53.289062 L 81.058594 42.957031 L 78.234375 42.957031 L 78.234375 34.003906 C 82.394531 32.632812 85.40625 28.710938 85.40625 24.097656 C 85.40625 22.574219 85.070312 21.125 84.480469 19.816406 L 92.644531 19.816406 L 92.644531 0 L 47.472656 0 L 11.519531 34.308594 C 7.488281 36.921875 4.8125 41.460938 4.8125 46.617188 C 4.8125 49.964844 5.941406 53.050781 7.835938 55.523438 L 0.835938 100 L 99.164062 100 L 99.164062 93.480469 Z M 74.976562 28.007812 C 72.820312 28.007812 71.0625 26.253906 71.0625 24.097656 C 71.0625 21.941406 72.820312 20.1875 74.976562 20.1875 C 77.132812 20.1875 78.886719 21.941406 78.886719 24.097656 C 78.886719 26.253906 77.132812 28.007812 74.976562 28.007812 Z M 50.085938 6.519531 L 86.125 6.519531 L 86.125 13.296875 L 56.589844 13.296875 L 31.90625 38.808594 C 29.90625 35.609375 26.71875 33.28125 22.992188 32.371094 Z M 17.75 38.65625 C 17.882812 38.625 18.019531 38.601562 18.15625 38.578125 C 18.160156 38.578125 18.164062 38.578125 18.167969 38.574219 C 18.3125 38.550781 18.453125 38.53125 18.597656 38.515625 C 18.601562 38.515625 18.601562 38.515625 18.605469 38.515625 C 18.742188 38.5 18.878906 38.492188 19.019531 38.484375 C 19.027344 38.484375 19.035156 38.480469 19.042969 38.480469 C 19.1875 38.472656 19.332031 38.46875 19.476562 38.46875 C 19.703125 38.46875 19.925781 38.480469 20.148438 38.5 C 20.183594 38.503906 20.222656 38.503906 20.257812 38.507812 C 20.457031 38.527344 20.652344 38.554688 20.851562 38.585938 C 20.910156 38.597656 20.96875 38.609375 21.03125 38.621094 C 21.203125 38.652344 21.375 38.691406 21.546875 38.734375 C 21.632812 38.757812 21.71875 38.785156 21.804688 38.808594 C 21.898438 38.835938 21.992188 38.867188 22.085938 38.898438 C 22.257812 38.957031 22.429688 39.023438 22.601562 39.09375 C 22.628906 39.105469 22.65625 39.117188 22.683594 39.128906 C 24.585938 39.945312 26.113281 41.464844 26.945312 43.359375 C 26.992188 43.472656 27.039062 43.582031 27.082031 43.695312 C 27.113281 43.777344 27.144531 43.859375 27.171875 43.941406 C 27.234375 44.125 27.292969 44.308594 27.34375 44.5 C 27.347656 44.515625 27.355469 44.527344 27.359375 44.542969 C 27.417969 44.777344 27.46875 45.011719 27.507812 45.253906 C 27.511719 45.257812 27.511719 45.265625 27.511719 45.269531 L 27.535156 45.410156 C 27.59375 45.804688 27.625 46.207031 27.625 46.617188 C 27.625 49.125 26.484375 51.375 24.695312 52.871094 C 24.546875 52.992188 24.394531 53.113281 24.234375 53.226562 C 24.195312 53.253906 24.15625 53.28125 24.117188 53.308594 C 23.949219 53.425781 23.78125 53.535156 23.609375 53.636719 C 23.578125 53.652344 23.550781 53.667969 23.519531 53.6875 C 23.332031 53.792969 23.140625 53.894531 22.945312 53.988281 C 22.9375 53.992188 22.929688 53.996094 22.921875 54 C 22.292969 54.292969 21.621094 54.507812 20.933594 54.632812 C 20.914062 54.636719 20.898438 54.640625 20.878906 54.640625 C 20.664062 54.679688 20.445312 54.707031 20.226562 54.730469 C 20.199219 54.730469 20.171875 54.734375 20.144531 54.734375 C 19.925781 54.753906 19.703125 54.765625 19.476562 54.765625 C 19.253906 54.765625 19.03125 54.753906 18.808594 54.734375 C 18.785156 54.734375 18.757812 54.730469 18.730469 54.730469 C 18.511719 54.707031 18.292969 54.679688 18.078125 54.640625 C 18.058594 54.636719 18.039062 54.636719 18.023438 54.632812 C 17.332031 54.507812 16.664062 54.292969 16.03125 54 C 16.023438 53.996094 16.015625 53.992188 16.011719 53.988281 C 15.816406 53.894531 15.625 53.792969 15.4375 53.6875 C 15.40625 53.671875 15.375 53.652344 15.347656 53.636719 C 15.171875 53.535156 15.003906 53.425781 14.839844 53.308594 C 14.800781 53.28125 14.761719 53.253906 14.71875 53.226562 C 14.5625 53.113281 14.410156 52.992188 14.261719 52.871094 C 12.46875 51.375 11.328125 49.125 11.328125 46.617188 C 11.332031 42.71875 14.082031 39.449219 17.75 38.65625 Z M 19.476562 93.480469 L 8.460938 93.480469 L 13.714844 60.101562 C 15.484375 60.859375 17.433594 61.28125 19.476562 61.28125 C 21.523438 61.28125 23.472656 60.859375 25.242188 60.101562 L 30.496094 93.480469 Z M 81.480469 93.480469 L 68.472656 93.480469 L 68.472656 82.355469 L 81.480469 82.355469 Z M 81.480469 93.480469 "/>
</g>
</svg>
