<?xml version="1.0" encoding="UTF-8"?>
<svg xmlns="http://www.w3.org/2000/svg" xmlns:xlink="http://www.w3.org/1999/xlink" width="100px" height="px" viewBox="0 0 100 100" version="1.1">
<g id="surface1">
<path style=" stroke:none;fill-rule:nonzero;fill:rgb(100%,100%,100%);fill-opacity:1;" d="M 98.378906 47.515625 L 96.542969 47.515625 L 96.542969 43.789062 C 97.152344 43.824219 97.761719 43.84375 98.378906 43.84375 C 99.273438 43.84375 100 43.121094 100 42.226562 C 100 41.328125 99.273438 40.605469 98.378906 40.605469 C 85.933594 40.605469 75.808594 32.03125 75.808594 21.492188 L 75.808594 16.308594 C 75.808594 15.410156 75.085938 14.6875 74.191406 14.6875 C 73.296875 14.6875 72.570312 15.410156 72.570312 16.308594 L 72.570312 21.492188 C 72.570312 32.03125 62.445312 40.605469 50 40.605469 C 37.554688 40.605469 27.429688 32.03125 27.429688 21.492188 L 27.429688 16.308594 C 27.429688 15.410156 26.703125 14.6875 25.808594 14.6875 C 24.914062 14.6875 24.191406 15.410156 24.191406 16.308594 L 24.191406 21.492188 C 24.191406 32.03125 14.066406 40.605469 1.621094 40.605469 C 0.726562 40.605469 0 41.328125 0 42.226562 C 0 43.121094 0.726562 43.84375 1.621094 43.84375 C 2.238281 43.84375 2.847656 43.824219 3.457031 43.789062 L 3.457031 47.515625 L 1.621094 47.515625 C 0.726562 47.515625 0 48.242188 0 49.136719 C 0 50.03125 0.726562 50.757812 1.621094 50.757812 L 98.378906 50.757812 C 99.273438 50.757812 100 50.03125 100 49.136719 C 100 48.242188 99.273438 47.515625 98.378906 47.515625 Z M 93.304688 47.515625 L 89.632812 47.515625 L 89.632812 42.523438 C 90.820312 42.894531 92.046875 43.191406 93.304688 43.410156 Z M 86.394531 47.515625 L 82.722656 47.515625 L 82.722656 39.246094 C 83.875 40.011719 85.101562 40.691406 86.394531 41.28125 Z M 79.480469 36.699219 L 79.480469 47.515625 L 75.808594 47.515625 L 75.808594 32.324219 C 76.828125 33.910156 78.0625 35.378906 79.480469 36.699219 Z M 72.570312 32.324219 L 72.570312 47.515625 L 68.898438 47.515625 L 68.898438 36.699219 C 70.316406 35.378906 71.550781 33.910156 72.570312 32.324219 Z M 61.988281 41.28125 C 63.277344 40.691406 64.507812 40.011719 65.660156 39.246094 L 65.660156 47.515625 L 61.988281 47.515625 Z M 58.746094 47.515625 L 55.074219 47.515625 L 55.074219 43.410156 C 56.335938 43.191406 57.5625 42.894531 58.746094 42.523438 Z M 51.835938 43.789062 L 51.835938 47.515625 L 48.164062 47.515625 L 48.164062 43.789062 C 48.769531 43.824219 49.382812 43.84375 50 43.84375 C 50.617188 43.84375 51.230469 43.824219 51.835938 43.789062 Z M 41.253906 42.523438 C 42.4375 42.894531 43.664062 43.191406 44.925781 43.410156 L 44.925781 47.515625 L 41.253906 47.515625 Z M 38.011719 47.515625 L 34.339844 47.515625 L 34.339844 39.246094 C 35.492188 40.011719 36.722656 40.691406 38.011719 41.28125 Z M 31.101562 36.699219 L 31.101562 47.515625 L 27.429688 47.515625 L 27.429688 32.324219 C 28.449219 33.910156 29.683594 35.378906 31.101562 36.699219 Z M 24.191406 32.324219 L 24.191406 47.515625 L 20.519531 47.515625 L 20.519531 36.699219 C 21.9375 35.378906 23.171875 33.910156 24.191406 32.324219 Z M 17.277344 47.515625 L 13.605469 47.515625 L 13.605469 41.28125 C 14.898438 40.691406 16.125 40.011719 17.277344 39.246094 Z M 6.695312 43.410156 C 7.953125 43.191406 9.179688 42.894531 10.367188 42.523438 L 10.367188 47.515625 L 6.695312 47.515625 Z M 6.695312 43.410156 "/>
<path style=" stroke:none;fill-rule:nonzero;fill:rgb(100%,100%,100%);fill-opacity:1;" d="M 98.378906 57.667969 C 99.273438 57.667969 100 56.941406 100 56.046875 C 100 55.152344 99.273438 54.425781 98.378906 54.425781 L 1.621094 54.425781 C 0.726562 54.425781 0 55.152344 0 56.046875 C 0 56.941406 0.726562 57.667969 1.621094 57.667969 L 24.191406 57.667969 L 24.191406 61.339844 L 24.082031 61.339844 C 22.234375 61.339844 20.734375 62.839844 20.734375 64.6875 L 20.734375 68.25 L 1.621094 68.25 C 0.726562 68.25 0 68.976562 0 69.871094 C 0 70.765625 0.726562 71.492188 1.621094 71.492188 L 98.378906 71.492188 C 99.273438 71.492188 100 70.765625 100 69.871094 C 100 68.976562 99.273438 68.25 98.378906 68.25 L 79.265625 68.25 L 79.265625 64.6875 C 79.265625 62.839844 77.765625 61.339844 75.917969 61.339844 L 75.808594 61.339844 L 75.808594 57.667969 Z M 23.972656 64.6875 C 23.972656 64.628906 24.023438 64.578125 24.082031 64.578125 L 27.539062 64.578125 C 27.597656 64.578125 27.644531 64.628906 27.644531 64.6875 L 27.644531 68.25 L 23.972656 68.25 Z M 76.027344 64.6875 L 76.027344 68.25 L 72.355469 68.25 L 72.355469 64.6875 C 72.355469 64.628906 72.402344 64.578125 72.460938 64.578125 L 75.917969 64.578125 C 75.976562 64.578125 76.027344 64.628906 76.027344 64.6875 Z M 72.570312 61.339844 L 72.460938 61.339844 C 70.617188 61.339844 69.113281 62.839844 69.113281 64.6875 L 69.113281 68.25 L 30.886719 68.25 L 30.886719 64.6875 C 30.886719 62.839844 29.382812 61.339844 27.539062 61.339844 L 27.429688 61.339844 L 27.429688 57.667969 L 72.570312 57.667969 Z M 72.570312 61.339844 "/>
<path style=" stroke:none;fill-rule:nonzero;fill:rgb(100%,100%,100%);fill-opacity:1;" d="M 67.277344 75.160156 L 36.175781 75.160156 C 35.28125 75.160156 34.558594 75.886719 34.558594 76.78125 C 34.558594 77.675781 35.28125 78.402344 36.175781 78.402344 L 67.277344 78.402344 C 68.171875 78.402344 68.898438 77.675781 68.898438 76.78125 C 68.898438 75.886719 68.171875 75.160156 67.277344 75.160156 Z M 67.277344 75.160156 "/>
<path style=" stroke:none;fill-rule:nonzero;fill:rgb(100%,100%,100%);fill-opacity:1;" d="M 29.265625 75.160156 L 15.441406 75.160156 C 14.546875 75.160156 13.824219 75.886719 13.824219 76.78125 C 13.824219 77.675781 14.546875 78.402344 15.441406 78.402344 L 29.265625 78.402344 C 30.160156 78.402344 30.886719 77.675781 30.886719 76.78125 C 30.886719 75.886719 30.160156 75.160156 29.265625 75.160156 Z M 29.265625 75.160156 "/>
<path style=" stroke:none;fill-rule:nonzero;fill:rgb(100%,100%,100%);fill-opacity:1;" d="M 77.644531 75.160156 L 74.191406 75.160156 C 73.296875 75.160156 72.570312 75.886719 72.570312 76.78125 C 72.570312 77.675781 73.296875 78.402344 74.191406 78.402344 L 77.644531 78.402344 C 78.539062 78.402344 79.265625 77.675781 79.265625 76.78125 C 79.265625 75.886719 78.539062 75.160156 77.644531 75.160156 Z M 77.644531 75.160156 "/>
<path style=" stroke:none;fill-rule:nonzero;fill:rgb(100%,100%,100%);fill-opacity:1;" d="M 63.824219 82.074219 L 46.542969 82.074219 C 45.648438 82.074219 44.925781 82.796875 44.925781 83.691406 C 44.925781 84.589844 45.648438 85.3125 46.542969 85.3125 L 63.824219 85.3125 C 64.71875 85.3125 65.441406 84.589844 65.441406 83.691406 C 65.441406 82.796875 64.71875 82.074219 63.824219 82.074219 Z M 63.824219 82.074219 "/>
<path style=" stroke:none;fill-rule:nonzero;fill:rgb(100%,100%,100%);fill-opacity:1;" d="M 39.632812 82.074219 L 36.175781 82.074219 C 35.28125 82.074219 34.558594 82.796875 34.558594 83.691406 C 34.558594 84.589844 35.28125 85.3125 36.175781 85.3125 L 39.632812 85.3125 C 40.527344 85.3125 41.253906 84.589844 41.253906 83.691406 C 41.253906 82.796875 40.527344 82.074219 39.632812 82.074219 Z M 39.632812 82.074219 "/>
</g>
</svg>
