<?xml version="1.0" standalone="no"?>
<!DOCTYPE svg PUBLIC "-//W3C//DTD SVG 20010904//EN"
 "http://www.w3.org/TR/2001/REC-SVG-20010904/DTD/svg10.dtd">
<svg version="1.0" xmlns="http://www.w3.org/2000/svg"
 width="917.000000pt" height="917.000000pt" viewBox="0 0 917.000000 917.000000"
 preserveAspectRatio="xMidYMid meet">
<metadata>
Created by potrace 1.16, written by Peter Selinger 2001-2019
</metadata>
<g transform="translate(0.000000,917.000000) scale(0.100000,-0.100000)"
fill="#000000" stroke="none">
<path d="M3805 8738 c-161 -6 -451 -36 -545 -57 l-35 -7 39 -13 c71 -24 183
-79 277 -135 l92 -56 376 -2 376 -3 48 111 c26 61 45 118 42 126 -5 11 -28 18
-83 23 -144 14 -407 20 -587 13z"/>
<path d="M4654 8716 c-4 -11 12 -131 32 -229 6 -27 6 -27 28 -10 133 103 232
177 272 204 27 17 40 28 29 25 -11 -4 -22 -8 -25 -9 -3 0 -70 3 -150 8 -92 5
-136 11 -120 16 21 6 17 7 -18 8 -27 1 -44 -4 -48 -13z"/>
<path d="M2980 8684 c-50 -12 -187 -40 -315 -66 -27 -5 -55 -14 -61 -18 -5 -5
-20 -7 -32 -3 -12 3 -22 1 -22 -5 0 -5 -17 -12 -37 -15 -37 -5 -107 -28 -118
-39 -3 -3 1 -34 10 -69 8 -35 15 -79 15 -96 0 -18 2 -33 5 -33 3 0 73 36 157
80 84 43 212 106 284 138 129 59 252 131 224 133 -8 0 -24 2 -35 3 -11 2 -45
-3 -75 -10z"/>
<path d="M4990 8658 c-36 -22 -113 -76 -173 -121 -89 -67 -105 -83 -94 -94 11
-11 33 -10 133 6 170 29 384 51 561 58 l154 6 -88 50 c-211 118 -218 120 -320
118 -61 -2 -93 1 -93 8 0 17 -10 13 -80 -31z"/>
<path d="M4451 8576 c-28 -58 -51 -109 -51 -114 0 -12 241 -35 252 -24 10 10
-48 109 -118 200 l-33 44 -50 -106z"/>
<path d="M5365 8652 c29 -26 249 -142 271 -142 28 0 31 6 37 75 3 48 2 50 -22
53 -14 1 -46 4 -71 7 -103 12 -225 16 -215 7z"/>
<path d="M3204 8639 c-3 -6 -15 -8 -26 -6 -14 4 -29 -8 -58 -44 -64 -81 -162
-220 -159 -224 2 -1 54 7 115 20 108 22 341 57 473 71 l64 6 -24 19 c-65 49
-323 169 -364 169 -7 0 -17 -5 -21 -11z"/>
<path d="M3050 8618 c-30 -11 -98 -48 -150 -82 -126 -83 -435 -316 -417 -316
2 0 66 21 143 46 l139 45 110 108 c61 59 139 132 175 164 36 31 63 56 60 56
-3 0 -30 -9 -60 -21z"/>
<path d="M5696 8603 c-4 -21 -9 -51 -12 -67 -6 -28 -5 -28 32 -24 50 6 257 87
224 88 -70 0 -212 20 -226 31 -8 7 -14 -2 -18 -28z"/>
<path d="M3005 8521 c-114 -101 -217 -206 -195 -199 8 3 40 11 70 18 l55 12
75 110 c41 61 81 119 89 129 7 10 12 19 10 19 -2 0 -49 -40 -104 -89z"/>
<path d="M5980 8578 c-19 -5 -69 -21 -110 -36 l-75 -26 45 -7 c25 -4 108 -12
185 -19 123 -10 316 -38 393 -56 39 -9 21 6 -83 69 -70 44 -93 53 -107 46 -11
-6 -25 -6 -35 0 -10 5 -46 12 -81 16 -34 4 -65 11 -68 16 -6 11 -18 10 -64 -3z"/>
<path d="M2657 8440 c-109 -54 -205 -104 -213 -111 -20 -16 -18 -86 2 -97 13
-7 41 10 125 78 59 48 147 116 196 150 152 109 144 108 -110 -20z"/>
<path d="M2214 8423 c-50 -48 -118 -122 -151 -163 -66 -83 -203 -279 -203
-291 0 -5 30 15 68 42 85 65 326 224 415 275 l68 39 -7 55 c-3 30 -11 70 -18
90 -9 30 -16 35 -47 38 -32 3 -42 -4 -125 -85z"/>
<path d="M6460 8504 c0 -20 32 -54 51 -54 11 0 23 -10 29 -24 7 -18 19 -25 54
-30 25 -4 99 -22 164 -41 64 -18 119 -32 120 -30 2 2 -15 24 -38 49 -31 34
-50 46 -71 46 -15 0 -31 5 -34 10 -4 6 -14 10 -23 8 -10 -1 -22 1 -28 4 -11 7
-44 16 -99 25 -16 3 -35 10 -41 14 -6 5 -19 6 -28 3 -10 -4 -25 1 -36 11 -11
10 -20 14 -20 9z"/>
<path d="M5375 8489 c-201 -10 -615 -58 -633 -74 -2 -2 23 -8 55 -15 32 -6
106 -23 164 -36 l106 -25 145 39 c79 22 203 51 276 63 79 14 132 29 132 35 0
16 -25 24 -63 22 -18 0 -99 -4 -182 -9z"/>
<path d="M5721 8481 c-17 -11 -1 -14 149 -31 141 -16 366 -58 506 -95 115 -30
124 -31 124 -14 0 10 -9 23 -20 29 -11 6 -20 17 -20 24 0 39 -687 120 -739 87z"/>
<path d="M2128 8448 c-2 -6 -13 -12 -24 -13 -11 0 -31 -11 -44 -23 -13 -12
-27 -23 -32 -23 -4 -1 -13 -2 -19 -3 -6 0 -16 -9 -23 -18 -7 -10 -18 -18 -25
-18 -6 0 -11 -4 -11 -10 0 -5 -6 -10 -13 -10 -8 0 -23 -8 -35 -17 -11 -10 -30
-25 -42 -33 -139 -94 -403 -324 -571 -497 -720 -745 -1167 -1704 -1273 -2731
-22 -206 -22 -727 -1 -930 226 -2176 1931 -3881 4107 -4107 201 -21 725 -21
926 0 1818 189 3350 1427 3906 3156 60 185 92 312 147 579 22 105 61 402 54
409 -3 2 -5 1 -5 -4 0 -4 -7 -2 -15 5 -22 18 -18 43 10 68 21 18 25 31 25 78
0 45 -3 55 -15 50 -8 -3 -21 4 -29 16 -18 26 -5 58 24 58 18 0 20 7 20 60 0
49 -3 58 -15 54 -8 -4 -15 -16 -15 -29 0 -17 -8 -26 -29 -33 -24 -9 -30 -16
-28 -37 3 -38 -26 -56 -50 -32 -21 21 -8 50 26 55 16 3 20 8 15 26 -14 58 -1
154 24 163 8 4 28 1 43 -4 l29 -11 0 72 0 73 -29 -5 c-27 -4 -31 -1 -40 36
-12 43 -7 67 15 76 10 4 15 25 16 73 l2 68 5 -74 c4 -51 10 -76 20 -79 11 -4
13 5 8 43 -4 26 -7 65 -7 87 0 27 -4 37 -11 32 -9 -5 -10 6 -5 42 l6 49 -30 0
c-29 0 -30 -2 -25 -35 5 -33 4 -33 -4 -6 -11 33 -5 97 10 107 8 4 7 41 -2 123
-9 86 -15 113 -24 106 -6 -5 -10 -24 -8 -42 l3 -33 -10 33 c-6 17 -15 32 -20
32 -5 0 -16 7 -24 16 -15 14 -15 18 0 43 16 26 19 27 42 15 15 -7 27 -12 28
-11 9 8 -87 392 -105 425 -6 11 -10 11 -19 -1 -9 -11 -10 -22 -2 -42 6 -15 9
-30 6 -32 -2 -3 -7 6 -11 19 -4 13 -21 34 -36 48 -27 23 -28 27 -16 50 12 22
9 36 -26 125 -21 54 -51 124 -67 155 -16 30 -31 65 -35 77 -3 11 -23 48 -45
81 -21 33 -36 63 -32 66 3 4 20 -19 38 -49 17 -31 35 -56 39 -55 4 1 16 -17
26 -40 10 -23 28 -53 39 -67 21 -27 27 -48 10 -38 -6 3 -7 -1 -4 -9 3 -9 10
-14 15 -11 15 10 28 -29 17 -49 -8 -14 -7 -17 1 -12 10 7 13 3 15 -26 3 -41
36 -123 50 -126 19 -4 21 16 3 43 -7 11 -14 30 -15 43 0 13 -7 31 -14 39 -7 9
-13 26 -14 37 -1 35 -77 218 -84 206 -5 -7 -10 -1 -14 17 -11 42 -57 117 -65
105 -4 -6 -21 19 -38 56 -31 64 -120 188 -130 179 -2 -3 11 -29 30 -58 41 -64
59 -99 53 -99 -2 0 -17 21 -32 48 -67 116 -151 233 -217 302 -40 41 -57 61
-39 45 108 -97 -71 119 -240 289 -70 71 -131 127 -134 124 -3 -4 21 -42 54
-85 32 -43 67 -90 77 -106 13 -20 23 -26 37 -21 24 7 48 -12 48 -40 0 -13 23
-43 62 -79 l63 -59 -67 57 c-38 32 -68 53 -68 47 0 -11 -38 -4 -58 11 -7 6
-12 17 -11 26 3 27 -16 63 -90 160 -38 52 -68 97 -66 101 2 4 -2 7 -10 7 -12
0 -12 -6 1 -35 8 -19 12 -37 10 -39 -2 -2 -12 16 -21 41 -12 30 -24 46 -35 46
-24 0 -43 26 -37 50 4 17 -21 44 -126 140 -189 171 -417 344 -626 475 -44 27
-43 26 35 -64 127 -148 433 -540 387 -496 -6 6 -61 75 -123 155 -207 267 -343
420 -371 420 -23 0 -25 -4 -65 -114 -41 -114 -44 -100 -4 20 46 134 39 145
-111 204 l-52 21 -24 -28 c-13 -15 -63 -87 -111 -159 -116 -175 -117 -176 -86
-119 34 64 126 206 170 264 30 39 33 46 18 54 -22 12 -156 61 -222 81 l-53 15
5 -167 5 -167 -13 168 c-8 92 -15 170 -17 172 -18 17 -377 96 -544 119 -196
27 -244 30 -250 14 -3 -7 36 -94 87 -193 l93 -178 93 -40 c51 -22 91 -41 89
-44 -2 -2 -33 10 -69 25 -117 53 -114 54 -73 -28 20 -40 35 -74 33 -76 -3 -2
-22 32 -43 76 l-39 80 -110 43 -111 44 -6 -26 -6 -26 -4 29 c-4 28 -11 32
-119 68 -63 22 -185 60 -270 84 -160 47 -192 50 -258 23 l-33 -14 100 -58
c128 -74 332 -204 351 -224 8 -8 -37 19 -101 61 -136 88 -358 216 -373 216 -6
0 -72 -25 -146 -55 -74 -30 -136 -53 -138 -51 -3 4 142 66 218 93 28 10 50 20
50 23 0 3 -43 27 -96 53 -68 34 -100 45 -107 38 -16 -16 -42 -14 -57 4 -10 12
-22 5 -83 -48 -72 -64 -329 -338 -323 -345 2 -2 19 3 37 10 24 9 80 12 189 11
85 -2 187 -3 225 -2 92 0 107 -5 128 -40 13 -22 29 -32 68 -41 35 -9 53 -19
56 -31 3 -10 40 -39 83 -64 95 -55 105 -67 90 -92 -21 -32 4 -95 55 -142 25
-23 45 -50 45 -60 0 -21 -95 -67 -210 -101 -97 -28 -116 -41 -124 -84 -6 -34
-9 -35 -104 -67 -53 -17 -103 -36 -109 -42 -7 -5 -13 -28 -13 -51 -1 -62 -46
-228 -67 -244 -10 -7 -27 -11 -38 -8 -11 2 -56 10 -100 17 -78 11 -81 13 -133
66 -63 64 -192 258 -192 288 0 45 21 83 54 99 49 23 61 41 48 70 -13 29 -44
41 -71 27 -31 -17 -36 -14 -55 30 -15 34 -16 45 -6 64 7 13 9 33 5 46 -11 38
-64 117 -83 124 -9 3 -66 3 -127 -1 -101 -6 -112 -5 -135 14 -36 29 -16 46
101 82 55 17 97 35 94 41 -9 14 -32 11 -78 -10 -24 -11 -56 -23 -72 -27 -16
-4 -44 -18 -63 -31 -19 -12 -39 -23 -45 -23 -23 0 -97 -43 -97 -56 0 -24 -61
-55 -96 -49 -17 3 -50 -2 -74 -10 -23 -8 -52 -15 -64 -14 -20 0 -20 1 -2 12
10 7 34 22 53 35 18 12 46 22 61 22 19 0 23 3 13 9 -7 5 -29 5 -49 0 -20 -4
-38 -6 -40 -4 -8 8 40 45 80 63 112 49 140 53 103 12 -16 -17 -16 -20 -2 -20
9 0 19 9 22 20 3 11 13 20 21 20 8 0 13 5 11 12 -4 22 267 88 406 98 59 4 111
11 115 15 12 12 -207 215 -226 208 -12 -3 -13 -2 -4 4 14 10 -90 102 -225 199
l-76 55 -61 -6 c-172 -18 -317 -38 -464 -66 l-164 -32 -42 -66 c-23 -36 -59
-96 -80 -133 -21 -38 -40 -68 -42 -68 -6 0 20 51 82 157 30 50 54 93 54 96 0
3 -33 -3 -72 -13 -71 -18 -76 -22 -157 -107 -46 -48 -129 -142 -184 -208 -105
-127 -158 -184 -92 -100 48 61 205 248 277 329 29 33 46 57 38 54 -8 -3 -68
-22 -132 -44 -97 -32 -118 -42 -123 -61 -3 -15 -16 -25 -38 -31 -27 -7 -46
-29 -119 -137 -48 -70 -91 -131 -95 -134 -10 -9 21 41 104 163 40 60 72 111
70 112 -10 11 -455 -314 -553 -403 -17 -15 -42 -37 -55 -48 -21 -18 -22 -18
-9 -1 14 17 12 18 -33 15 -26 -2 -47 -2 -47 1 0 3 10 16 21 30 18 23 19 23 9
3 -10 -22 -9 -23 31 -23 37 0 52 8 138 78 113 93 315 244 418 313 47 32 73 56
73 68 0 10 7 24 15 31 14 12 22 90 9 90 -21 0 -357 -216 -500 -322 -69 -51
-89 -73 -124 -134 -23 -41 -44 -74 -47 -74 -3 0 9 25 26 55 17 30 31 57 31 61
0 7 -56 -37 -148 -114 -35 -30 -65 -52 -67 -50 -2 2 50 49 117 103 113 94 126
109 213 240 51 77 126 181 166 230 l73 90 -94 -85 c-113 -103 -282 -294 -401
-453 -75 -100 -87 -122 -84 -149 5 -37 -9 -58 -40 -58 -17 0 -38 -24 -95 -110
-40 -60 -75 -110 -77 -110 -6 0 28 56 80 133 21 32 36 61 34 64 -3 3 -86 -73
-185 -168 l-179 -174 193 192 c107 106 194 195 194 198 0 3 -7 5 -16 5 -21 0
33 50 55 50 9 1 47 49 89 115 41 63 78 113 82 110 5 -3 12 0 16 6 4 8 3 9 -4
5 -7 -4 -12 -4 -12 0 0 11 107 151 180 234 41 47 54 67 35 53 -87 -62 -302
-251 -428 -376 -138 -137 -282 -295 -262 -286 6 3 44 21 85 42 41 20 91 39
110 42 24 4 18 0 -20 -13 -80 -27 -175 -80 -218 -121 -74 -72 -372 -480 -372
-509 0 -6 -11 -19 -25 -30 -13 -11 -21 -23 -17 -27 4 -5 1 -5 -5 -1 -8 4 -20
-5 -33 -26 -23 -38 -26 -52 -7 -42 7 4 9 3 4 -2 -5 -5 -14 -9 -20 -9 -6 0 -17
-15 -24 -33 -11 -27 -11 -32 -1 -26 10 5 11 4 1 -7 -16 -16 -17 -33 -1 -23 7
4 8 3 4 -5 -4 -6 -11 -9 -16 -6 -4 2 -10 -8 -13 -23 -5 -25 -3 -25 33 16 21
23 42 42 47 42 6 0 18 9 28 20 10 11 20 18 22 16 6 -6 -30 -46 -41 -46 -5 0
-33 -24 -62 -53 -42 -43 -51 -59 -47 -79 4 -21 -2 -31 -29 -49 -18 -13 -33
-28 -33 -34 -1 -11 -45 -85 -51 -85 -3 0 5 18 16 40 11 22 20 43 19 47 -1 5 0
13 1 18 2 6 4 26 4 45 1 26 7 38 22 44 13 6 31 32 44 65 30 75 121 230 134
228 5 -1 59 71 120 160 61 88 133 189 159 223 27 34 46 64 44 67 -8 7 -128
-137 -188 -225 -54 -80 -86 -119 -54 -67 57 94 145 204 255 320 69 72 174 185
234 251 188 206 410 408 655 595 175 133 169 129 149 129 -9 0 -18 -5 -20 -12z
m1192 -773 c0 -8 -7 -15 -15 -15 -8 0 -15 -4 -15 -10 0 -15 17 -12 104 15 43
14 87 23 98 19 18 -5 18 -7 3 -24 -10 -11 -45 -28 -79 -39 -68 -23 -228 -53
-236 -44 -3 3 10 17 28 32 37 32 42 52 10 43 -20 -5 -21 -4 -10 11 8 9 33 18
60 20 26 2 48 4 50 5 1 1 2 -5 2 -13z m20 -139 c0 -35 10 -38 69 -16 65 25 98
25 113 0 8 -13 24 -20 43 -20 17 0 42 -7 55 -17 35 -23 90 -75 90 -85 0 -5
-21 -18 -47 -29 -55 -23 -50 -29 37 -49 134 -30 132 -29 125 -58 -8 -34 -57
-112 -70 -112 -5 0 -31 21 -57 47 -43 42 -50 46 -72 35 -61 -28 -48 -77 30
-113 30 -14 44 -27 44 -41 0 -19 -26 -78 -35 -78 -2 0 -19 9 -37 20 -18 11
-44 20 -58 20 -24 -1 -24 -2 13 -34 20 -18 37 -36 37 -40 0 -16 -178 8 -197
28 -4 3 1 12 11 19 15 11 12 15 -32 30 -47 17 -54 17 -103 3 -77 -23 -101 -21
-97 7 3 19 15 25 83 43 95 24 136 44 164 80 41 52 38 71 -13 122 -26 26 -58
59 -72 74 -19 20 -31 25 -43 19 -9 -5 -34 -12 -55 -15 -21 -4 -45 -14 -53 -22
-8 -8 -24 -14 -36 -14 -20 -1 -20 -2 6 -18 34 -21 34 -26 -4 -59 -18 -17 -28
-34 -26 -45 12 -45 -83 -102 -180 -107 -7 -1 -13 -6 -13 -13 0 -26 -34 -48
-74 -48 -52 0 -87 -10 -80 -21 3 -5 26 -9 52 -9 l47 0 -46 -44 c-36 -35 -58
-46 -105 -56 -59 -13 -94 -30 -61 -30 28 0 20 -16 -30 -55 -27 -21 -67 -57
-91 -79 -42 -41 -42 -41 -21 -57 29 -21 18 -59 -17 -59 -14 0 -27 7 -30 15 -9
24 -21 18 -33 -16 -14 -41 -14 -39 8 -39 34 0 51 -12 51 -35 0 -13 4 -35 10
-49 9 -25 10 -25 45 -10 43 18 60 13 110 -26 30 -23 48 -30 84 -30 59 0 93 -9
84 -23 -3 -6 -7 -35 -7 -65 -1 -48 2 -57 24 -70 14 -8 38 -24 54 -35 l29 -20
18 24 c19 24 22 48 19 127 -2 53 29 106 70 120 50 18 82 113 55 166 -18 35
-19 68 -2 85 6 6 13 31 13 54 1 23 6 58 11 77 8 32 13 36 53 42 94 14 145 9
184 -17 20 -14 48 -25 63 -25 20 0 24 -4 18 -17 -4 -10 -9 -35 -12 -55 -6 -37
-5 -38 41 -59 44 -19 49 -19 72 -5 13 9 24 21 24 26 0 5 10 10 22 12 16 2 24
12 29 35 3 18 12 40 19 48 12 14 15 14 32 -2 10 -9 34 -46 54 -82 27 -52 33
-73 29 -101 -5 -30 -2 -36 17 -45 13 -5 24 -20 26 -33 3 -20 8 -22 36 -17 33
7 106 -16 106 -33 0 -4 -22 -18 -50 -29 -30 -13 -50 -28 -50 -37 0 -14 5 -14
40 4 42 22 100 26 130 10 16 -8 18 -15 10 -35 -5 -14 -7 -31 -4 -39 16 -41
-172 -143 -287 -156 -160 -18 -272 -84 -419 -245 l-35 -38 35 20 c19 11 84 50
144 87 60 36 117 66 128 66 31 0 17 -32 -25 -55 -37 -21 -37 -22 -17 -41 11
-10 31 -32 45 -49 19 -24 24 -26 25 -12 0 17 1 17 16 3 8 -9 26 -16 39 -16 18
0 23 -4 19 -15 -4 -8 -2 -15 2 -15 5 0 19 -3 30 -6 18 -5 24 0 33 29 7 20 19
41 27 47 12 10 14 8 14 -17 0 -63 -106 -160 -222 -205 -89 -34 -93 -18 -8 44
57 42 75 68 46 68 -8 0 -16 4 -18 9 -3 8 -127 -57 -223 -116 -43 -27 -72 -75
-79 -136 l-7 -53 -81 -40 c-70 -34 -84 -45 -99 -79 -10 -22 -19 -48 -19 -59 0
-16 -2 -16 -20 5 l-19 24 -1 -27 c0 -19 -4 -26 -13 -22 -11 4 -17 -20 -26
-101 -7 -58 -15 -105 -18 -105 -4 0 -3 50 1 111 6 106 6 111 -11 98 -16 -12
-17 -12 -7 1 6 8 95 126 197 263 102 136 183 247 180 247 -8 0 -299 -207 -515
-366 -115 -84 -208 -151 -208 -148 0 5 439 333 622 464 114 82 151 126 62 74
-36 -21 -47 -24 -59 -14 -24 20 -18 44 21 81 51 49 75 85 68 103 -3 9 -10 14
-14 11 -5 -3 -11 -1 -15 5 -3 5 -17 10 -30 10 -28 0 -76 19 -90 37 -5 6 -21
13 -35 15 -14 2 -25 8 -25 15 0 6 -4 15 -9 20 -5 5 -6 3 -2 -4 8 -14 -3 -17
-28 -7 -9 3 -13 10 -10 15 3 5 -4 9 -15 9 -10 0 -25 2 -33 5 -7 3 -22 -8 -33
-24 -35 -54 -56 -58 -108 -19 -25 18 -57 41 -71 50 -21 15 -24 24 -19 52 3 19
2 47 -1 61 -6 23 -10 26 -35 20 -32 -7 -80 11 -124 47 -24 20 -31 21 -60 10
-18 -7 -40 -12 -49 -12 -19 0 -23 -38 -43 -435 -22 -446 -23 -450 -18 -190 2
132 8 323 14 425 6 102 7 209 4 238 -6 47 -10 54 -40 66 -27 11 -33 20 -37 50
-2 20 1 41 7 48 6 7 3 7 -7 -1 -15 -11 -22 -9 -50 10 l-32 23 24 7 c22 6 22 7
5 9 -11 1 -24 2 -29 1 -5 -1 -6 5 -3 13 4 9 2 18 -3 21 -6 4 -10 -11 -10 -34
0 -31 4 -41 19 -46 30 -9 36 -43 13 -68 -22 -25 -22 -20 54 -740 19 -186 33
-344 31 -350 -2 -6 -9 38 -16 99 -109 983 -106 959 -129 982 -26 26 -28 45 -7
66 17 16 21 91 5 81 -5 -3 -10 -1 -10 5 0 6 -4 8 -10 5 -5 -3 -10 -1 -10 5 0
6 -4 8 -10 5 -5 -3 -10 -2 -10 4 0 5 8 15 18 20 13 8 10 9 -14 5 -27 -5 -38 0
-71 29 l-39 36 -129 -65 -130 -64 -106 -137 c-156 -203 -207 -284 -257 -407
-49 -124 -55 -135 -46 -85 12 61 71 203 114 274 63 103 223 317 318 425 106
121 240 240 269 240 12 0 25 5 28 10 6 9 72 4 84 -6 2 -2 -10 -14 -25 -28 -33
-29 -23 -33 29 -11 51 21 60 19 53 -10 -10 -38 -1 -30 33 30 35 62 83 95 113
76 10 -6 40 -11 66 -11 41 0 57 6 93 35 49 39 85 49 55 16 -26 -28 -10 -46 17
-20 12 12 37 32 55 46 17 14 32 32 32 39 0 8 9 19 20 26 11 7 20 17 20 21 0 5
-9 5 -20 2 -11 -3 -20 -2 -20 3 0 12 88 126 101 130 5 2 9 9 9 15 0 6 -10 1
-22 -10 -25 -22 -61 -43 -76 -43 -5 0 -12 14 -14 31 -4 22 0 33 15 40 10 6 21
8 24 5 9 -8 34 15 28 25 -7 10 39 34 83 44 39 8 41 0 5 -23 -16 -9 -29 -25
-29 -34 -1 -14 7 -11 37 15 59 48 141 97 163 97 12 0 -10 -18 -54 -46 -91 -55
-120 -81 -120 -106 0 -11 -12 -40 -27 -65 -21 -37 -23 -47 -12 -54 12 -7 11
-13 -4 -39 -24 -40 -15 -38 27 8 27 28 37 34 47 25 9 -9 5 -20 -19 -49 -32
-38 -29 -53 9 -54 18 0 109 102 126 142 12 27 11 28 -17 28 -77 0 -79 32 -5
102 88 84 162 128 212 128 39 0 43 -2 43 -24z m3125 -86 c11 -12 21 -16 25
-10 4 6 26 -3 55 -23 26 -17 62 -41 79 -52 157 -99 200 -130 282 -197 96 -80
130 -117 79 -84 -17 10 4 -16 45 -58 41 -42 76 -76 77 -76 1 0 0 7 -4 16 -12
33 17 8 118 -101 114 -122 304 -371 394 -516 119 -190 297 -558 323 -664 20
-83 22 -95 14 -95 -5 0 -14 25 -21 56 l-13 56 -21 -22 c-16 -16 -18 -24 -9
-27 6 -3 12 -12 12 -21 0 -14 -2 -14 -9 -3 -7 11 -11 9 -21 -8 -13 -26 -47
-25 -64 2 -9 15 -7 21 9 33 11 8 25 12 32 10 10 -4 11 6 8 42 -10 91 -19 117
-43 120 -28 4 -28 -12 -2 -73 11 -26 17 -52 14 -57 -11 -18 -44 34 -44 70 0
20 -6 35 -16 39 -8 3 -20 17 -25 30 -5 14 -15 23 -22 20 -15 -5 -16 -115 -1
-148 12 -26 34 -109 39 -147 2 -16 -1 -22 -10 -18 -7 2 -21 -4 -31 -15 -18
-20 -44 -26 -44 -9 0 13 -37 13 -45 0 -3 -5 -1 -18 4 -28 12 -23 -11 -62 -36
-62 -14 0 -13 3 3 21 12 13 17 32 15 55 -3 40 17 53 56 35 23 -11 29 -9 48 11
l22 23 -19 63 -19 64 -166 79 c-91 44 -167 78 -169 77 -1 -2 39 -53 90 -115
91 -111 110 -147 131 -250 11 -56 -2 -36 -31 48 -27 74 -40 94 -162 235 -90
105 -137 151 -147 148 -20 -8 -19 -17 11 -77 46 -91 113 -187 139 -199 14 -6
25 -18 25 -26 0 -7 16 -32 35 -55 26 -30 32 -44 24 -53 -6 -8 -8 -33 -4 -61
l6 -48 -14 37 c-17 44 -34 71 -96 153 -58 77 -199 246 -219 263 -26 20 -56 14
-83 -19 -25 -30 -27 -31 -61 -19 -55 20 -68 10 -68 -54 0 -50 -2 -56 -24 -62
-57 -14 -103 -115 -83 -181 17 -55 -6 -76 -128 -116 l-106 -36 -11 29 c-10 29
-12 30 -74 30 l-64 0 1 53 c1 28 -6 77 -14 107 -9 30 -20 102 -25 160 -5 58
-13 113 -17 123 -9 22 -5 22 155 -8 73 -14 146 -25 163 -25 l30 0 -7 62 c-11
112 -70 203 -158 247 -39 19 -85 67 -74 78 3 4 22 1 43 -5 40 -12 78 0 69 23
-3 10 5 12 35 8 33 -5 39 -3 39 13 0 11 9 25 20 32 16 9 18 17 10 36 -11 30
-5 36 38 36 33 0 34 1 28 30 -3 17 -9 44 -12 60 -5 25 -3 30 12 31 30 2 37 4
77 17 42 15 45 22 17 47 -32 29 -132 193 -125 205 3 5 17 10 30 10 30 0 54
-34 62 -86 8 -51 26 -86 70 -135 23 -26 44 -39 60 -39 14 0 41 -9 60 -21 26
-16 37 -18 48 -9 9 7 30 9 59 5 32 -5 46 -4 46 4 0 6 9 15 20 19 21 8 21 8 -5
45 -14 21 -34 56 -45 78 -17 32 -18 39 -5 39 8 0 22 -11 31 -25 16 -24 34 -33
34 -17 0 5 -25 37 -56 71 -31 34 -54 64 -52 67 3 2 18 0 33 -6 29 -11 69 -5
60 10 -3 5 -41 20 -84 35 -67 22 -86 34 -128 78 -29 31 -64 85 -86 134 -33 71
-45 86 -88 114 -27 17 -52 29 -54 27 -3 -3 15 -27 40 -54 37 -41 45 -56 45
-89 0 -51 39 -111 103 -160 53 -40 51 -38 35 -65 -10 -15 -8 -29 10 -72 25
-61 30 -128 8 -128 -7 0 -36 30 -64 68 -28 37 -85 101 -126 142 l-76 74 0 -36
c0 -74 -69 -72 -134 4 -38 44 -96 148 -96 171 0 9 11 27 24 40 12 13 26 40 30
61 8 41 10 36 -83 210 -27 50 -39 85 -35 98 3 10 0 25 -6 33 -19 23 5 18 25
-5z m-3835 -66 c0 -2 -7 -10 -16 -19 -19 -19 -11 -47 11 -39 9 4 15 1 15 -7 0
-7 20 7 45 31 24 24 48 41 51 37 4 -3 -12 -32 -36 -63 -37 -49 -41 -60 -31
-76 14 -23 -1 -48 -29 -48 -10 0 -24 -8 -31 -17 -12 -15 -12 -16 1 -8 10 5 8
1 -4 -13 -24 -28 -50 -36 -76 -22 -17 9 -28 6 -63 -18 -67 -47 -131 -76 -135
-63 -2 6 -10 11 -18 11 -44 0 15 51 87 75 27 9 49 21 49 27 0 10 -22 7 -67 -8
-11 -4 -6 5 15 26 18 18 30 35 27 39 -4 3 -17 -6 -28 -20 -25 -30 -75 -64 -83
-56 -14 14 263 233 296 233 11 0 20 -1 20 -2z m2955 -33 c3 -6 26 -13 51 -17
54 -8 71 -23 70 -60 -1 -22 -12 -35 -46 -59 -43 -29 -50 -30 -162 -32 -98 -2
-118 0 -118 12 0 10 -11 15 -35 15 -30 0 -35 3 -35 24 0 27 -16 36 -68 36
l-37 0 25 20 c25 19 25 19 5 34 -19 15 -19 15 8 16 36 0 61 -14 106 -58 l36
-36 6 29 c3 18 11 29 18 27 7 -1 18 4 25 12 6 8 36 21 66 29 70 18 78 19 85 8z
m-2577 -298 c38 -24 82 -74 76 -85 -4 -6 -21 -7 -39 -4 -38 7 -81 -6 -112 -36
-20 -19 -23 -19 -38 -5 -14 15 -13 20 11 59 25 41 63 88 71 88 2 0 16 -8 31
-17z m3237 -173 c-7 -30 -6 -30 39 -30 56 0 74 -23 57 -72 -15 -44 -15 -46 21
-53 17 -4 55 -29 82 -55 28 -26 72 -59 98 -74 57 -33 71 -50 33 -40 -21 5 -27
4 -23 -7 4 -12 20 -23 78 -49 10 -5 16 -25 18 -59 3 -48 5 -51 30 -52 25 -1
24 -2 -13 -20 -25 -11 -63 -19 -100 -19 -33 0 -89 -5 -125 -10 -35 -5 -66 -8
-68 -6 -2 2 7 15 20 29 13 14 29 32 36 41 7 9 22 16 33 16 43 0 6 18 -46 22
-66 6 -76 13 -47 34 28 20 28 28 -5 71 -31 40 -35 39 39 16 22 -6 23 -6 5 18
-9 13 -22 34 -29 46 -6 14 -30 29 -60 39 -52 17 -73 42 -65 81 6 32 -14 39
-47 18 l-26 -17 0 33 c0 18 -6 48 -12 67 -11 30 -11 35 7 48 10 8 32 14 48 14
27 0 28 -2 22 -30z m-35 -199 c18 -13 25 -28 25 -52 1 -19 9 -51 19 -73 9 -21
14 -42 9 -47 -23 -23 -108 -59 -140 -59 l-36 0 6 43 c3 24 9 51 13 60 4 11 1
17 -9 17 -20 0 -39 24 -32 42 3 9 17 21 30 28 20 11 22 16 13 28 -10 11 -8 17
7 29 23 16 59 10 95 -16z m-2181 -342 c-21 -30 -21 -33 -6 -58 12 -20 24 -26
50 -26 41 0 62 -16 88 -66 21 -42 24 -80 9 -110 -14 -25 -28 -24 -32 4 -2 18
-10 22 -38 23 -19 1 -66 6 -105 12 -38 7 -89 12 -112 12 -48 0 -53 8 -22 36
12 10 39 46 62 79 47 71 120 150 125 135 2 -5 -6 -24 -19 -41z m3186 -994 c53
-1 75 -9 75 -26 0 -6 -7 -6 -17 -1 -30 16 -142 20 -154 6 -7 -8 -27 -11 -62
-7 -42 4 -68 -1 -137 -27 -61 -23 -100 -31 -140 -30 -98 3 -90 10 -92 -87 l-2
-88 -3 85 c-4 81 -5 86 -31 101 l-27 15 -15 -45 c-13 -38 -23 -50 -63 -72 -64
-34 -66 -37 -68 -92 -4 -64 -19 -71 -19 -8 0 68 6 79 59 106 58 29 67 39 74
89 8 53 21 64 47 41 16 -14 41 -19 105 -22 77 -4 95 -1 175 28 69 24 100 30
135 27 31 -4 48 -1 56 8 7 9 20 12 33 8 11 -4 43 -8 71 -9z"/>
<path d="M3355 5908 c-265 -340 -303 -393 -287 -397 9 -2 18 2 20 7 10 31 51
66 113 97 71 36 71 36 84 118 8 49 63 110 127 143 50 25 56 37 34 67 -22 29
-49 19 -91 -35z"/>
<path d="M7430 6519 c0 -5 -4 -7 -10 -4 -6 3 -7 -1 -4 -10 5 -13 9 -13 22 -3
13 11 14 10 10 -2 -2 -8 -17 -16 -31 -18 -15 -2 -25 -7 -22 -12 7 -11 -31 -24
-45 -15 -5 3 -7 0 -4 -8 7 -20 -16 -33 -27 -16 -7 11 -9 11 -9 1 0 -7 -4 -10
-10 -7 -6 4 -7 -1 -3 -11 5 -15 1 -16 -43 -10 -32 5 -46 4 -39 -2 6 -6 19 -12
30 -14 14 -2 -1 -14 -53 -41 -39 -21 -72 -35 -72 -31 0 4 -10 -2 -22 -14 -13
-11 -35 -24 -50 -27 -16 -4 -28 -11 -28 -17 0 -5 -4 -7 -9 -3 -5 3 -13 1 -16
-5 -4 -6 -15 -8 -25 -5 -11 3 -20 0 -24 -10 -3 -8 -4 -15 -3 -15 1 0 34 7 74
15 115 24 319 45 437 45 96 0 107 2 102 16 -4 9 0 24 8 33 14 15 12 21 -12 57
-42 63 -106 143 -114 144 -5 0 -8 -5 -8 -11z"/>
<path d="M7235 6248 c-168 -18 -485 -92 -468 -108 4 -5 58 -29 118 -54 61 -24
157 -65 215 -91 84 -37 112 -45 140 -40 31 5 38 2 58 -25 16 -22 75 -56 203
-121 100 -49 182 -89 184 -87 2 2 -1 25 -5 52 -11 72 -1 100 37 104 24 2 34
-2 43 -18 8 -16 15 -18 29 -11 10 6 28 7 40 4 28 -7 27 -4 -72 185 -59 111
-92 163 -121 188 l-40 34 -140 -1 c-78 -1 -177 -6 -221 -11z"/>
<path d="M6733 6105 c-16 -12 -17 -17 -4 -47 55 -135 54 -248 -3 -248 l-23 0
-6 -187 c-3 -103 -5 -189 -3 -190 1 -2 27 5 57 15 l54 19 0 74 c0 88 23 144
72 174 29 18 32 25 33 66 0 31 6 51 18 62 20 18 68 22 91 8 10 -6 21 0 38 20
19 22 33 29 60 29 29 0 43 -9 85 -52 l49 -53 -25 52 c-14 29 -26 61 -26 71 0
14 -31 31 -137 75 -283 117 -310 126 -330 112z"/>
<path d="M6440 5804 c0 -78 21 -227 34 -249 7 -11 11 -37 8 -57 l-4 -38 40 0
c53 0 92 -15 92 -36 0 -13 6 -15 32 -10 17 3 32 7 33 9 2 1 6 88 9 193 l7 191
-93 17 c-51 9 -108 19 -125 22 l-33 6 0 -48z"/>
<path d="M3707 8452 l-38 -7 73 -55 c40 -30 105 -84 145 -118 l73 -64 47 16
c25 9 48 14 50 12 3 -2 -13 -10 -34 -16 -21 -7 -41 -14 -45 -16 -3 -3 41 -50
99 -107 133 -129 140 -131 220 -38 32 36 116 126 188 200 71 73 121 131 110
128 -11 -3 -49 -13 -85 -22 -174 -44 -167 -40 -191 -106 -26 -70 -36 -74 -13
-5 9 26 14 50 10 53 -3 3 -43 -6 -90 -21 -46 -14 -88 -26 -92 -25 -5 0 36 16
91 34 97 32 101 34 122 76 27 54 28 65 6 74 -24 9 -598 15 -646 7z"/>
<path d="M5495 8430 c-105 -20 -397 -91 -392 -96 2 -2 86 -28 188 -58 101 -30
221 -68 267 -85 l82 -30 1 42 c0 23 4 81 7 129 6 77 5 90 -11 103 -21 18 -16
18 -142 -5z"/>
<path d="M5665 8358 c-3 -35 -7 -94 -8 -132 l-2 -69 99 -39 c54 -21 101 -36
104 -34 2 3 -25 60 -61 128 -94 178 -111 208 -119 208 -3 0 -9 -28 -13 -62z"/>
<path d="M6527 8375 c-11 -8 -17 -23 -15 -35 3 -19 26 -30 158 -76 l155 -53
28 26 c46 45 37 59 -55 87 -75 22 -158 44 -228 59 -14 3 -33 0 -43 -8z"/>
<path d="M6950 8266 c0 -13 82 -121 93 -122 7 0 18 -2 25 -2 7 -1 16 -11 20
-22 6 -15 35 -30 107 -55 55 -18 123 -43 150 -55 62 -27 53 -18 -60 57 -139
92 -335 209 -335 199z"/>
<path d="M7111 8196 c68 -41 176 -111 239 -155 63 -44 160 -106 215 -138 116
-66 234 -145 323 -216 101 -80 64 -65 -49 20 -101 76 -300 202 -230 146 86
-69 224 -187 305 -261 49 -45 95 -82 103 -82 26 0 12 41 -27 76 -22 20 -38 39
-35 43 5 9 -245 258 -353 349 -98 84 -300 188 -486 252 -65 22 -121 40 -124
40 -3 0 51 -33 119 -74z"/>
<path d="M7110 8075 c0 -2 34 -24 76 -50 178 -111 446 -321 609 -477 80 -76
97 -88 127 -88 23 0 42 7 54 21 19 21 19 22 -36 71 -332 302 -484 408 -687
479 -80 28 -143 48 -143 44z"/>
<path d="M8110 7499 c0 -6 33 -46 73 -90 68 -76 100 -121 65 -92 -8 7 -17 11
-20 8 -2 -3 -33 31 -67 75 -47 61 -68 80 -86 80 -13 0 -27 5 -30 10 -3 6 -11
10 -17 10 -5 0 27 -41 73 -90 46 -50 119 -130 161 -178 43 -48 82 -86 87 -85
5 1 29 -28 52 -65 23 -37 80 -120 126 -185 47 -66 82 -121 79 -124 -2 -3 -10
5 -16 17 -6 12 -14 19 -17 16 -3 -3 11 -35 31 -72 20 -36 35 -68 34 -70 -2 -2
-19 25 -37 59 -77 142 -147 256 -194 316 -28 36 -50 71 -50 77 0 7 -3 11 -7 9
-4 -3 -37 30 -72 73 -36 42 -112 126 -169 185 -102 106 -104 108 -126 92 -15
-10 -23 -27 -23 -45 0 -24 24 -52 141 -167 149 -146 311 -333 307 -354 -2 -7
2 -13 8 -14 6 0 31 -25 54 -55 24 -30 57 -70 74 -89 17 -19 25 -31 19 -27 -9
5 -11 2 -7 -8 3 -9 10 -14 14 -11 5 3 21 -10 37 -29 19 -24 30 -31 35 -23 13
21 9 48 -12 74 -22 28 -27 48 -8 37 15 -9 -46 101 -126 228 -53 83 -211 288
-223 288 -6 0 5 -18 45 -73 19 -26 32 -50 30 -52 -2 -3 -29 30 -59 72 -57 82
-75 114 -39 73 18 -21 21 -22 15 -5 -5 16 0 14 26 -10 29 -26 -29 54 -135 188
-29 37 -46 47 -46 26z"/>
</g>
</svg>
