<?xml version="1.0" encoding="utf-8"?>
<svg viewBox="467.215 -100.192 177.416 332.511" xmlns="http://www.w3.org/2000/svg" xmlns:xlink="http://www.w3.org/1999/xlink">
  <defs>
    <radialGradient id="radial-gradient" cx="182.1" cy="-599.92" r="425.85" gradientTransform="matrix(1.328016, -0.065898, 0.072968, 1.328367, 237.888832, 747.983518)" gradientUnits="userSpaceOnUse">
      <stop offset="0" stop-color="#22b573"/>
      <stop offset="0.4" stop-color="#009245"/>
      <stop offset="1" stop-color="#001300"/>
    </radialGradient>
    <radialGradient id="radial-gradient-2" cx="182.2" cy="-600.09" r="425.21" gradientTransform="matrix(1.328016, -0.065898, 0.072968, 1.328367, 267.972557, 485.983518)" xlink:href="#radial-gradient"/>
    <radialGradient id="radial-gradient-3" cx="182.18" cy="-599.97" r="425.58" gradientTransform="matrix(1.328016, -0.065898, 0.072968, 1.328367, 267.972557, 485.983518)" xlink:href="#radial-gradient"/>
    <radialGradient id="radial-gradient-4" cx="182.22" cy="-600.01" r="425.38" gradientTransform="matrix(1.328016, -0.065898, 0.072968, 1.328367, 267.972557, 485.983518)" xlink:href="#radial-gradient"/>
    <radialGradient id="radial-gradient-5" cx="182.17" cy="-600.13" r="425.29" gradientTransform="matrix(1.328016, -0.065898, 0.072968, 1.328367, 267.972557, 485.983518)" xlink:href="#radial-gradient"/>
    <radialGradient id="radial-gradient-6" cx="182.2" cy="-600.04" r="425.38" gradientTransform="matrix(1.328016, -0.065898, 0.072968, 1.328367, 267.972557, 485.983518)" xlink:href="#radial-gradient"/>
    <radialGradient id="radial-gradient-7" cx="182.19" cy="-600.06" r="425.38" gradientTransform="matrix(1.328016, -0.065898, 0.072968, 1.328367, 267.972557, 485.983518)" xlink:href="#radial-gradient"/>
    <radialGradient id="radial-gradient-8" cx="182.2" cy="-600.05" r="425.34" gradientTransform="matrix(1.328016, -0.065898, 0.072968, 1.328367, 267.972557, 485.983518)" xlink:href="#radial-gradient"/>
    <radialGradient id="radial-gradient-9" cx="182.26" cy="-599.97" r="425.33" gradientTransform="matrix(1.328016, -0.065898, 0.072968, 1.328367, 267.972557, 485.983518)" xlink:href="#radial-gradient"/>
    <radialGradient id="radial-gradient-10" cx="183.12" cy="-600.05" r="423.43" gradientTransform="matrix(1.328016, -0.065898, 0.072968, 1.328367, 267.972557, 485.983518)" xlink:href="#radial-gradient"/>
    <radialGradient id="radial-gradient-11" cx="182.12" cy="-599.98" r="425.62" gradientTransform="matrix(1.328016, -0.065898, 0.072968, 1.328367, 267.972557, 485.983518)" xlink:href="#radial-gradient"/>
    <radialGradient id="radial-gradient-12" cx="182.26" cy="-600.11" r="425.15" gradientTransform="matrix(1.328016, -0.065898, 0.072968, 1.328367, 267.972557, 485.983518)" xlink:href="#radial-gradient"/>
    <radialGradient id="radial-gradient-13" cx="182.17" cy="-600.05" r="425.45" gradientTransform="matrix(1.328016, -0.065898, 0.072968, 1.328367, 267.972557, 485.983518)" xlink:href="#radial-gradient"/>
    <radialGradient id="radial-gradient-14" cx="182.2" cy="-600.34" r="424.24" gradientTransform="matrix(1.328016, -0.065898, 0.072968, 1.328367, 267.972557, 485.983518)" xlink:href="#radial-gradient"/>
    <radialGradient id="radial-gradient-15" cx="182.2" cy="-600.04" r="425.39" gradientTransform="matrix(1.328016, -0.065898, 0.072968, 1.328367, 267.972557, 485.983518)" xlink:href="#radial-gradient"/>
    <radialGradient id="radial-gradient-16" cx="182.19" cy="-600.14" r="425.31" gradientTransform="matrix(1.328016, -0.065898, 0.072968, 1.328367, 267.972557, 485.983518)" xlink:href="#radial-gradient"/>
    <radialGradient id="radial-gradient-17" cx="198.19" cy="-686.63" r="0.25" gradientTransform="matrix(1.328016, -0.065898, 0.072968, 1.328367, 267.972557, 485.983518)" xlink:href="#radial-gradient"/>
    <radialGradient id="radial-gradient-18" cx="182.21" cy="-600.34" r="424.4" gradientTransform="matrix(1.328016, -0.065898, 0.072968, 1.328367, 267.972557, 485.983518)" xlink:href="#radial-gradient"/>
    <radialGradient id="radial-gradient-19" cx="182.15" cy="-600.24" r="424.8" gradientTransform="matrix(1.328016, -0.065898, 0.072968, 1.328367, 267.972557, 485.983518)" xlink:href="#radial-gradient"/>
    <radialGradient id="radial-gradient-20" cx="182.2" cy="-600.23" r="424.48" gradientTransform="matrix(1.328016, -0.065898, 0.072968, 1.328367, 267.972557, 485.983518)" xlink:href="#radial-gradient"/>
    <radialGradient id="radial-gradient-21" cx="182.19" cy="-600.05" r="425.35" gradientTransform="matrix(1.328016, -0.065898, 0.072968, 1.328367, 267.972557, 485.983518)" xlink:href="#radial-gradient"/>
    <radialGradient id="radial-gradient-22" cx="182.22" cy="-600.07" r="425.28" gradientTransform="matrix(1.328016, -0.065898, 0.072968, 1.328367, 267.972557, 485.983518)" xlink:href="#radial-gradient"/>
    <radialGradient id="radial-gradient-23" cx="182.21" cy="-600.08" r="425.24" gradientTransform="matrix(1.328016, -0.065898, 0.072968, 1.328367, 267.972557, 485.983518)" xlink:href="#radial-gradient"/>
    <radialGradient id="radial-gradient-24" cx="182.21" cy="-600.02" r="425.52" gradientTransform="matrix(1.328016, -0.065898, 0.072968, 1.328367, 267.972557, 485.983518)" xlink:href="#radial-gradient"/>
    <radialGradient id="radial-gradient-25" cx="182.22" cy="-600.05" r="425.41" gradientTransform="matrix(1.328016, -0.065898, 0.072968, 1.328367, 267.972557, 485.983518)" xlink:href="#radial-gradient"/>
    <radialGradient id="radial-gradient-26" cx="182.18" cy="-600.04" r="425.3" gradientTransform="matrix(1.328016, -0.065898, 0.072968, 1.328367, 267.972557, 485.983518)" xlink:href="#radial-gradient"/>
    <radialGradient id="radial-gradient-27" cx="182.22" cy="-600.07" r="425.4" gradientTransform="matrix(1.328016, -0.065898, 0.072968, 1.328367, 267.972557, 485.983518)" xlink:href="#radial-gradient"/>
    <radialGradient id="radial-gradient-28" cx="182.15" cy="-600.05" r="425.46" gradientTransform="matrix(1.328016, -0.065898, 0.072968, 1.328367, 267.972557, 485.983518)" xlink:href="#radial-gradient"/>
    <radialGradient id="radial-gradient-29" cx="182.12" cy="-600.01" r="425.02" gradientTransform="matrix(1.328016, -0.065898, 0.072968, 1.328367, 267.972557, 485.983518)" xlink:href="#radial-gradient"/>
    <radialGradient id="radial-gradient-30" cx="182.11" cy="-600.04" r="425.52" gradientTransform="matrix(1.328016, -0.065898, 0.072968, 1.328367, 267.972557, 485.983518)" xlink:href="#radial-gradient"/>
    <radialGradient id="radial-gradient-31" cx="182.22" cy="-600.04" r="425.45" gradientTransform="matrix(1.328016, -0.065898, 0.072968, 1.328367, 267.972557, 485.983518)" xlink:href="#radial-gradient"/>
    <radialGradient id="radial-gradient-32" cx="182.41" cy="-600.05" r="426.25" gradientTransform="matrix(1.328016, -0.065898, 0.072968, 1.328367, 267.972557, 485.983518)" xlink:href="#radial-gradient"/>
    <radialGradient id="radial-gradient-33" cx="182.2" cy="-600.04" r="425.38" gradientTransform="matrix(1.328016, -0.065898, 0.072968, 1.328367, 267.972557, 485.983518)" xlink:href="#radial-gradient"/>
    <radialGradient id="radial-gradient-34" cx="182.17" cy="-600.04" r="425.25" gradientTransform="matrix(1.328016, -0.065898, 0.072968, 1.328367, 267.972557, 485.983518)" xlink:href="#radial-gradient"/>
    <radialGradient id="radial-gradient-35" cx="182.18" cy="-600.03" r="425.26" gradientTransform="matrix(1.328016, -0.065898, 0.072968, 1.328367, 267.972557, 485.983518)" xlink:href="#radial-gradient"/>
    <radialGradient id="radial-gradient-36" cx="182.23" cy="-600.05" r="425.33" gradientTransform="matrix(1.328016, -0.065898, 0.072968, 1.328367, 267.972557, 485.983518)" xlink:href="#radial-gradient"/>
    <radialGradient id="radial-gradient-37" cx="182.06" cy="-600.04" r="425.58" gradientTransform="matrix(1.328016, -0.065898, 0.072968, 1.328367, 267.972557, 485.983518)" xlink:href="#radial-gradient"/>
    <radialGradient id="radial-gradient-38" cx="182.32" cy="-600.02" r="425.2" gradientTransform="matrix(1.328016, -0.065898, 0.072968, 1.328367, 267.972557, 485.983518)" xlink:href="#radial-gradient"/>
    <radialGradient id="radial-gradient-39" cx="182.72" cy="-600.14" r="424.88" gradientTransform="matrix(1.328016, -0.065898, 0.072968, 1.328367, 267.972557, 485.983518)" xlink:href="#radial-gradient"/>
    <radialGradient id="radial-gradient-40" cx="182.2" cy="-600.05" r="425.37" gradientTransform="matrix(1.328016, -0.065898, 0.072968, 1.328367, 267.972557, 485.983518)" xlink:href="#radial-gradient"/>
    <radialGradient id="radial-gradient-41" cx="182.31" cy="-600.07" r="425.26" gradientTransform="matrix(1.328016, -0.065898, 0.072968, 1.328367, 267.972557, 485.983518)" xlink:href="#radial-gradient"/>
    <radialGradient id="radial-gradient-42" cx="182.14" cy="-600.05" r="425.44" gradientTransform="matrix(1.328016, -0.065898, 0.072968, 1.328367, 267.972557, 485.983518)" xlink:href="#radial-gradient"/>
    <radialGradient id="radial-gradient-43" cx="182.11" cy="-600.07" r="425.49" gradientTransform="matrix(1.328016, -0.065898, 0.072968, 1.328367, 267.972557, 485.983518)" xlink:href="#radial-gradient"/>
    <radialGradient id="radial-gradient-44" cx="182.4" cy="-600.05" r="425.2" gradientTransform="matrix(1.328016, -0.065898, 0.072968, 1.328367, 267.972557, 485.983518)" xlink:href="#radial-gradient"/>
    <radialGradient id="radial-gradient-45" cx="182.3" cy="-599.82" r="424.95" gradientTransform="matrix(1.328016, -0.065898, 0.072968, 1.328367, 267.972557, 485.983518)" xlink:href="#radial-gradient"/>
    <radialGradient id="radial-gradient-46" cx="182.16" cy="-600.04" r="425.42" gradientTransform="matrix(1.328016, -0.065898, 0.072968, 1.328367, 267.972557, 485.983518)" xlink:href="#radial-gradient"/>
    <radialGradient id="radial-gradient-47" cx="182.22" cy="-600.13" r="425.41" gradientTransform="matrix(1.328016, -0.065898, 0.072968, 1.328367, 267.972557, 485.983518)" xlink:href="#radial-gradient"/>
    <radialGradient id="radial-gradient-48" cx="182.65" cy="-599.92" r="424.81" gradientTransform="matrix(1.328016, -0.065898, 0.072968, 1.328367, 267.972557, 485.983518)" xlink:href="#radial-gradient"/>
    <radialGradient id="radial-gradient-49" cx="182.21" cy="-600.02" r="425.35" gradientTransform="matrix(1.328016, -0.065898, 0.072968, 1.328367, 267.972557, 485.983518)" xlink:href="#radial-gradient"/>
    <radialGradient id="radial-gradient-50" cx="182.2" cy="-600.04" r="425.38" gradientTransform="matrix(1.328016, -0.065898, 0.072968, 1.328367, 267.972557, 485.983518)" xlink:href="#radial-gradient"/>
    <radialGradient id="radial-gradient-51" cx="182.18" cy="-600" r="425.31" gradientTransform="matrix(1.328016, -0.065898, 0.072968, 1.328367, 267.972557, 485.983518)" xlink:href="#radial-gradient"/>
    <radialGradient id="radial-gradient-52" cx="182.24" cy="-600.01" r="425.31" gradientTransform="matrix(1.328016, -0.065898, 0.072968, 1.328367, 267.972557, 485.983518)" xlink:href="#radial-gradient"/>
    <radialGradient id="radial-gradient-53" cx="453.89" cy="-390.92" r="0.32" gradientTransform="matrix(1.328016, -0.065898, 0.072968, 1.328367, 267.972557, 485.983519)" xlink:href="#radial-gradient"/>
    <radialGradient id="radial-gradient-54" cx="182.21" cy="-600.04" r="425.35" gradientTransform="matrix(1.328016, -0.065898, 0.072968, 1.328367, 267.972557, 485.983518)" xlink:href="#radial-gradient"/>
    <radialGradient id="radial-gradient-55" cx="181.99" cy="-600.13" r="425.62" gradientTransform="matrix(1.328016, -0.065898, 0.072968, 1.328367, 267.972557, 485.983518)" xlink:href="#radial-gradient"/>
    <radialGradient id="radial-gradient-56" cx="182.21" cy="-600.02" r="425.34" gradientTransform="matrix(1.328016, -0.065898, 0.072968, 1.328367, 267.972557, 485.983518)" xlink:href="#radial-gradient"/>
    <radialGradient id="radial-gradient-57" cx="182.46" cy="-599.79" r="424.94" gradientTransform="matrix(1.328016, -0.065898, 0.072968, 1.328367, 267.972557, 485.983518)" xlink:href="#radial-gradient"/>
    <radialGradient id="radial-gradient-58" cx="182.25" cy="-600.07" r="425.35" gradientTransform="matrix(1.328016, -0.065898, 0.072968, 1.328367, 267.972557, 485.983518)" xlink:href="#radial-gradient"/>
    <radialGradient id="radial-gradient-59" cx="182.36" cy="-599.99" r="425.2" gradientTransform="matrix(1.328016, -0.065898, 0.072968, 1.328367, 267.972557, 485.983518)" xlink:href="#radial-gradient"/>
    <radialGradient id="radial-gradient-60" cx="182.19" cy="-600.16" r="425.46" gradientTransform="matrix(1.328016, -0.065898, 0.072968, 1.328367, 267.972557, 485.983518)" xlink:href="#radial-gradient"/>
    <radialGradient id="radial-gradient-61" cx="182.47" cy="-600.07" r="425.16" gradientTransform="matrix(1.328016, -0.065898, 0.072968, 1.328367, 267.972557, 485.983518)" xlink:href="#radial-gradient"/>
    <radialGradient id="radial-gradient-62" cx="182.23" cy="-600.06" r="425.35" gradientTransform="matrix(1.328016, -0.065898, 0.072968, 1.328367, 267.972557, 485.983518)" xlink:href="#radial-gradient"/>
    <radialGradient id="radial-gradient-63" cx="182.42" cy="-600" r="425.13" gradientTransform="matrix(1.328016, -0.065898, 0.072968, 1.328367, 267.972557, 485.983518)" xlink:href="#radial-gradient"/>
    <radialGradient id="radial-gradient-64" cx="181.36" cy="-600.16" r="426.22" gradientTransform="matrix(1.328016, -0.065898, 0.072968, 1.328367, 267.972557, 485.983518)" xlink:href="#radial-gradient"/>
    <radialGradient id="radial-gradient-65" cx="178.64" cy="-600.74" r="429.28" gradientTransform="matrix(1.328016, -0.065898, 0.072968, 1.328367, 267.972557, 485.983518)" xlink:href="#radial-gradient"/>
    <radialGradient id="radial-gradient-66" cx="182.41" cy="-600.14" r="425.29" gradientTransform="matrix(1.328016, -0.065898, 0.072968, 1.328367, 267.972557, 485.983518)" xlink:href="#radial-gradient"/>
    <radialGradient id="radial-gradient-67" cx="182.2" cy="-600.09" r="425.41" gradientTransform="matrix(1.328016, -0.065898, 0.072968, 1.328367, 267.972557, 485.983518)" xlink:href="#radial-gradient"/>
    <radialGradient id="radial-gradient-68" cx="182.16" cy="-599.9" r="425.3" gradientTransform="matrix(1.328016, -0.065898, 0.072968, 1.328367, 267.972557, 485.983518)" xlink:href="#radial-gradient"/>
    <radialGradient id="radial-gradient-69" cx="182.23" cy="-599.99" r="425.31" gradientTransform="matrix(1.328016, -0.065898, 0.072968, 1.328367, 267.972557, 485.983518)" xlink:href="#radial-gradient"/>
    <radialGradient id="radial-gradient-70" cx="182.97" cy="-608.17" r="431.16" gradientTransform="matrix(1.328016, -0.065898, 0.072968, 1.328367, 267.972557, 485.983518)" xlink:href="#radial-gradient"/>
    <radialGradient id="radial-gradient-71" cx="182.12" cy="-600" r="425.4" gradientTransform="matrix(1.328016, -0.065898, 0.072968, 1.328367, 267.972557, 485.983518)" xlink:href="#radial-gradient"/>
    <radialGradient id="radial-gradient-72" cx="182.23" cy="-600.27" r="425.53" gradientTransform="matrix(1.328016, -0.065898, 0.072968, 1.328367, 267.972557, 485.983518)" xlink:href="#radial-gradient"/>
    <radialGradient id="radial-gradient-73" cx="182.04" cy="-600.08" r="425.53" gradientTransform="matrix(1.328016, -0.065898, 0.072968, 1.328367, 267.972557, 485.983518)" xlink:href="#radial-gradient"/>
    <radialGradient id="radial-gradient-74" cx="182.46" cy="-600.34" r="425.4" gradientTransform="matrix(1.328016, -0.065898, 0.072968, 1.328367, 267.972557, 485.983518)" xlink:href="#radial-gradient"/>
    <radialGradient id="radial-gradient-75" cx="182.95" cy="-600.28" r="424.92" gradientTransform="matrix(1.328016, -0.065898, 0.072968, 1.328367, 267.972557, 485.983518)" xlink:href="#radial-gradient"/>
    <radialGradient id="radial-gradient-76" cx="182.2" cy="-600.04" r="425.37" gradientTransform="matrix(1.328016, -0.065898, 0.072968, 1.328367, 267.972557, 485.983518)" xlink:href="#radial-gradient"/>
    <radialGradient id="radial-gradient-77" cx="180.25" cy="-600.62" r="427.51" gradientTransform="matrix(1.328016, -0.065898, 0.072968, 1.328367, 267.972557, 485.983518)" xlink:href="#radial-gradient"/>
    <radialGradient id="radial-gradient-78" cx="182.1" cy="-600.08" r="425.49" gradientTransform="matrix(1.328016, -0.065898, 0.072968, 1.328367, 267.972557, 485.983518)" xlink:href="#radial-gradient"/>
    <radialGradient id="radial-gradient-79" cx="182.2" cy="-600.05" r="425.38" gradientTransform="matrix(1.328016, -0.065898, 0.072968, 1.328367, 267.972557, 485.983518)" xlink:href="#radial-gradient"/>
    <radialGradient id="radial-gradient-80" cx="182.2" cy="-600.04" r="425.37" gradientTransform="matrix(1.328016, -0.065898, 0.072968, 1.328367, 267.972557, 485.983518)" xlink:href="#radial-gradient"/>
  </defs>
  <title>Earth 03</title>
  <path class="cls-3" d="M 886.64 64.454 C 896.305 240.104 761.791 389.564 586.187 398.284 C 410.583 407.004 260.413 271.694 250.759 96.044 C 241.104 -79.606 375.608 -229.046 551.201 -237.776 C 726.795 -246.506 876.985 -111.176 886.64 64.454 Z" style="fill: rgb(1, 103, 58);"/>
  <path class="cls-4" d="M 562.99 -198.536 C 564.071 -198.426 567.331 -198.326 566.242 -198.216 C 565.139 -198.225 564.037 -198.329 562.95 -198.526 C 562.95 -198.526 562.99 -198.536 562.99 -198.536 Z" style="fill: url(#radial-gradient);"/>
  <path class="cls-5" d="M 500.414 -205.406 C 498.129 -204.546 495.892 -202.106 493.537 -202.816 C 492.075 -203.256 494.309 -206.276 495.737 -206.816 C 497.163 -207.356 500.414 -205.406 500.414 -205.406 Z" style="fill: url(#radial-gradient-2);"/>
  <path class="cls-6" d="M 535.644 -231.626 C 531.928 -230.926 528.254 -229.896 524.476 -229.506 C 524.136 -229.506 523.811 -230.226 524.08 -230.436 C 524.349 -230.646 529.473 -233.716 531.144 -233.566 C 532.144 -233.466 532.92 -232.516 533.921 -232.356 C 534.581 -232.266 535.198 -232.716 535.847 -232.856 C 537.845 -233.276 539.733 -233.806 541.702 -234.026 C 542.121 -234.076 540.463 -233.766 540.635 -233.386 C 540.888 -232.786 543.008 -232.666 542.38 -232.506 C 540.552 -232.056 538.588 -232.676 536.721 -232.426 C 536.271 -232.386 536.003 -231.906 535.644 -231.626 Z" style="fill: url(#radial-gradient-3);"/>
  <path class="cls-7" d="M 573.938 -197.196 C 573.401 -196.626 573.055 -195.806 572.347 -195.486 C 571.958 -195.326 571.594 -195.876 571.194 -195.966 C 569.342 -196.426 566.198 -195.376 565.618 -197.176 C 565.089 -198.756 568.265 -199.696 569.935 -199.706 C 571.604 -199.716 573.938 -197.196 573.938 -197.196 Z" style="fill: url(#radial-gradient-4);"/>
  <path class="cls-8" d="M 576.7 -193.046 C 578.754 -194.046 580.689 -195.186 582.843 -196.046 C 583.053 -196.126 582.777 -195.496 582.568 -195.396 C 580.672 -194.456 578.655 -193.826 576.7 -193.046 Z" style="fill: url(#radial-gradient-5);"/>
  <path class="cls-9" d="M 489.561 -207.706 C 490.573 -207.24 491.631 -206.884 492.718 -206.646 C 493.408 -206.566 494.232 -207.566 494.715 -207.096 C 495.198 -206.626 493.98 -206.226 493.562 -205.836 C 492.358 -204.696 491.365 -203.216 489.85 -202.506 C 488.852 -202.056 487.707 -202.806 486.669 -202.566 C 483.613 -201.886 480.679 -200.696 477.684 -199.786 C 476.626 -199.456 473.692 -198.116 474.509 -198.846 C 476.638 -200.832 479.114 -202.411 481.814 -203.506 C 483.012 -203.946 484.661 -202.216 485.626 -203.056 C 486.592 -203.896 483.076 -203.126 482.451 -204.056 C 482.058 -204.646 483.86 -204.406 484.498 -204.726 C 486.263 -205.626 489.561 -207.706 489.561 -207.706 Z" style="fill: url(#radial-gradient-6);"/>
  <path class="cls-10" d="M 636.412 -198.106 C 633.407 -199.106 630.216 -199.426 627.527 -201.006 C 626.123 -201.826 630.792 -200.186 632.39 -200.466 C 633.819 -200.706 634.769 -202.526 636.23 -202.466 C 637.39 -202.337 638.319 -201.44 638.491 -200.286 C 638.537 -199.296 636.412 -198.106 636.412 -198.106 Z" style="fill: url(#radial-gradient-7);"/>
  <path class="cls-11" d="M 509.789 -179.986 C 516.761 -185.276 521.807 -186.136 530.674 -184.666 C 531.505 -184.526 529.077 -184.156 528.269 -183.956 C 523.974 -182.836 519.578 -182.086 515.355 -180.716 C 515.076 -180.626 515.769 -179.996 515.51 -179.826 C 513.802 -178.651 511.926 -177.741 509.944 -177.126 C 509.565 -177.016 509.51 -177.976 509.11 -177.986 C 506.67 -177.986 504.263 -177.286 501.823 -177.266 C 500.293 -177.266 504.892 -177.466 506.33 -177.956 C 507.549 -178.514 508.709 -179.194 509.789 -179.986 Z" style="fill: url(#radial-gradient-8);"/>
  <path class="cls-12" d="M 626.228 -184.026 C 628.219 -185.726 632.417 -191.536 634.48 -183.686 C 634.786 -182.496 632.057 -184.116 630.827 -184.166 C 629.286 -184.236 626.228 -184.026 626.228 -184.026 Z" style="fill: url(#radial-gradient-9);"/>
  <path class="cls-13" d="M 634.516 -184.216 C 634.601 -185.306 634.675 -186.416 634.779 -187.506 C 634.803 -187.126 634.805 -186.746 634.785 -186.366 C 634.689 -185.626 634.593 -184.926 634.516 -184.216 Z" style="fill: url(#radial-gradient-10);"/>
  <path class="cls-14" d="M 587.198 -236.686 L 581.456 -237.026" style="fill: url(#radial-gradient-11);"/>
  <path class="cls-15" d="M 598.422 -235.816 C 583.056 -237.056 608.058 -234.816 587.198 -236.686" style="fill: url(#radial-gradient-12);"/>
  <path class="cls-16" d="M 491.404 -169.816 C 497.743 -173.656 498.704 -177.206 504.811 -174.136 C 505.302 -173.906 503.61 -174.236 503.182 -173.906 C 501.508 -172.586 499.355 -171.376 498.716 -169.356 C 498.146 -167.546 500.195 -165.666 499.985 -163.776 C 499.909 -163.156 498.705 -163.776 498.085 -163.846 C 496.083 -164.216 493.585 -163.846 492.078 -165.196 C 490.922 -166.196 491.651 -168.286 491.444 -169.816 L 491.404 -169.816 Z" style="fill: url(#radial-gradient-13);"/>
  <path class="cls-17" d="M 433.553 -207.486 L 436.245 -209.006" style="fill: url(#radial-gradient-14);"/>
  <path class="cls-18" d="M 465.384 -220.526 C 471.164 -222.396 472.052 -222.726 477.563 -224.366 C 478.182 -224.546 476.315 -223.966 475.696 -223.766 C 474.149 -223.276 469.516 -221.886 471.074 -222.286 C 475.069 -223.286 478.85 -224.916 482.835 -225.806 C 487.54 -226.806 492.255 -227.806 496.98 -228.716 C 498.798 -229.086 500.657 -229.306 502.475 -229.716 C 505.96 -230.446 509.395 -231.426 512.902 -232.096 C 514.85 -232.466 517.073 -233.806 518.808 -232.826 C 520.293 -231.976 515.452 -232.066 513.815 -231.576 C 512.896 -231.306 515.663 -231.966 517.211 -232.316 C 517.701 -232.426 518.327 -232.896 518.689 -232.556 C 519.052 -232.216 517.884 -231.656 518.216 -231.396 C 519.44 -230.396 522.807 -231.066 522.506 -229.546 C 522.203 -228.026 519.014 -229.956 517.748 -228.986 C 516.483 -228.016 523.061 -230.226 522.057 -229.196 C 520.069 -227.116 516.458 -227.196 514.208 -225.356 C 512.903 -224.356 517.567 -227.526 519.04 -226.726 C 520.093 -226.156 517.611 -224.726 516.614 -224.056 C 515.449 -223.266 514.104 -222.316 512.693 -222.446 C 512.033 -222.506 513.463 -224.316 512.813 -224.446 C 501.013 -226.186 509.15 -219.326 500.188 -217.886 C 498.629 -217.636 497.328 -219.556 495.768 -219.556 C 494.988 -219.556 494.897 -218.066 494.148 -217.906 C 493.608 -217.786 493.381 -219.006 492.852 -218.906 C 486.448 -217.806 480.311 -215.406 473.876 -214.416 C 473.226 -214.306 475.439 -215.716 474.867 -216.116 C 473.643 -215.766 472.443 -215.339 471.274 -214.836 C 469.357 -214.146 467.441 -213.426 465.494 -212.836 C 463.747 -212.276 462.063 -211.186 460.223 -211.286 C 459.333 -211.286 462.667 -212.206 462.273 -213.016 C 461.88 -213.826 460.505 -212.746 459.656 -212.446 C 458.159 -211.886 455.406 -208.836 455.257 -210.446 C 455.087 -212.316 458.295 -212.696 459.507 -214.126 C 459.954 -214.646 458.261 -213.536 457.642 -213.266 C 454.459 -211.836 451.307 -210.366 448.095 -209.026 C 445.421 -207.896 442.686 -206.926 439.981 -205.916 C 439.792 -205.846 440.19 -206.256 440.359 -206.376 C 441.073 -206.912 441.833 -207.384 442.631 -207.786 C 443.938 -208.396 445.366 -208.786 446.673 -209.346 C 447.61 -209.796 448.407 -210.496 449.324 -210.966 C 450.731 -211.666 455.071 -213.586 453.664 -212.866 C 451.494 -211.585 449.202 -210.52 446.821 -209.686 C 446.341 -209.546 446.056 -210.746 445.607 -210.536 C 442.874 -209.236 440.857 -206.676 438.053 -205.536 C 437.055 -205.106 434.185 -205.096 434.75 -206.056 C 435.86 -208.056 438.95 -207.986 440.431 -209.676 C 441.346 -210.676 437.877 -208.536 436.549 -208.136 C 435.562 -207.897 434.561 -207.717 433.552 -207.596" style="fill: url(#radial-gradient-15);"/>
  <path class="cls-19" d="M 669.226 -212.406 C 667.352 -213.286 663.612 -215.086 663.612 -215.086 C 663.612 -215.086 667.352 -213.286 669.226 -212.406 Z" style="fill: url(#radial-gradient-16);"/>
  <path class="cls-20" d="M 450.522 -177.456 L 451.472 -177.456 L 450.522 -177.456 Z" style="fill: url(#radial-gradient-17);"/>
  <path class="cls-21" d="M 475.965 -223.896 L 470.345 -222.156" style="fill: url(#radial-gradient-18);"/>
  <path class="cls-22" d="M 472.122 -222.726 L 475.945 -223.896" style="fill: url(#radial-gradient-19);"/>
  <path class="cls-23" d="M 428.709 -176.246 C 429.161 -176.51 429.644 -176.719 430.146 -176.866 C 430.216 -176.886 428.306 -174.886 428.709 -176.246 Z" style="fill: url(#radial-gradient-20);"/>
  <path class="cls-24" d="M 406.938 -191.476 C 409.39 -193.016 411.701 -194.776 414.283 -196.086 C 414.523 -196.216 414.648 -195.396 414.887 -195.526 C 415.983 -196.096 416.647 -197.286 417.734 -197.876 C 418.821 -198.466 421.204 -199.876 420.899 -198.816 C 420.113 -196.186 413.911 -196.546 412.983 -194.386 C 412.567 -193.386 415.821 -194.716 416.176 -193.686 C 416.532 -192.656 414.532 -192.686 413.725 -192.146 C 412.209 -191.146 410.736 -189.976 409.221 -189.016 C 408.275 -188.416 406.938 -191.476 406.938 -191.476 Z" style="fill: url(#radial-gradient-21);"/>
  <path class="cls-25" d="M 411.544 -139.626 L 409.38 -138.426 L 411.544 -139.626 Z" style="fill: url(#radial-gradient-22);"/>
  <path class="cls-26" d="M 372.245 -130.116 C 370.252 -128.716 368.46 -127.116 366.397 -125.906 C 365.739 -125.516 367.34 -127.126 367.968 -127.576 C 369.313 -128.546 372.245 -130.116 372.245 -130.116 Z" style="fill: url(#radial-gradient-23);"/>
  <path class="cls-27" d="M 362.196 -129.886 C 360.434 -128.486 358.963 -126.606 356.908 -125.686 C 356.3 -125.416 356.71 -127.266 357.238 -127.686 C 358.785 -128.634 360.452 -129.374 362.196 -129.886 Z" style="fill: url(#radial-gradient-24);"/>
  <path class="cls-28" d="M 371.305 -160.186 C 369.424 -158.586 367.2 -157.336 365.67 -155.396 C 365.163 -154.756 366.13 -153.556 365.593 -152.956 C 364.351 -151.566 362.504 -150.866 360.849 -150.016 C 360.15 -149.666 359.159 -149.906 358.593 -149.376 C 358.025 -148.846 358.131 -147.746 357.665 -147.056 C 356.97 -146.056 351.885 -141.316 351.537 -140.926 C 349.967 -139.166 348.277 -137.156 346.798 -135.226 C 345.12 -133.036 343.823 -130.486 341.833 -128.576 C 340.649 -127.416 338.84 -127.166 337.476 -126.216 C 336.35 -125.436 335.802 -123.156 334.49 -123.456 C 333.389 -123.696 334.998 -125.686 335.593 -126.646 C 336.644 -128.346 338.337 -129.586 339.338 -131.306 C 342.896 -137.356 330.26 -129.006 344.878 -138.786 C 345.317 -139.086 345.794 -137.786 346.262 -138.026 C 347.798 -138.806 348.83 -140.326 350.114 -141.476 C 351.398 -142.626 352.774 -143.386 353.687 -144.706 C 354.094 -145.306 353.389 -146.276 353.806 -146.866 C 354.55 -147.866 360.787 -150.276 360.149 -151.786 C 359.511 -153.296 354.908 -148.356 356.113 -149.356 C 356.411 -149.606 364.469 -155.656 365.684 -156.486 C 367.558 -157.746 371.305 -160.186 371.305 -160.186 Z" style="fill: url(#radial-gradient-25);"/>
  <path class="cls-29" d="M 350.943 -145.446 C 350.943 -145.446 343.589 -138.566 342.88 -138.446 C 342.171 -138.326 341.804 -139.696 342.1 -140.296 C 342.97 -141.774 344.175 -143.025 345.621 -143.946 C 345.86 -144.126 346.084 -143.286 346.334 -143.426 C 348.976 -144.866 348.55 -146.046 350.439 -147.986 C 350.987 -148.546 353.948 -151.986 355.708 -150.216 C 357.366 -148.626 350.943 -145.446 350.943 -145.446 Z" style="fill: url(#radial-gradient-26);"/>
  <path class="cls-30" d="M 344.876 -126.106 C 343.832 -124.976 343.273 -122.966 341.754 -122.706 C 340.235 -122.446 344.876 -126.106 344.876 -126.106 Z" style="fill: url(#radial-gradient-27);"/>
  <path class="cls-31" d="M 754.702 -121.376 C 753.631 -123.376 752.46 -125.376 751.509 -127.466 C 751.276 -128.006 752.194 -126.466 752.607 -126.046 C 754.165 -124.356 756.51 -123.616 758.267 -122.136 C 759.077 -121.316 759.842 -120.455 760.56 -119.556 C 761.808 -118.296 763.065 -117.006 764.43 -115.876 C 764.802 -115.576 765.512 -115.546 765.934 -115.206 C 767.662 -113.766 769.35 -112.276 771.127 -110.886 C 772.905 -109.496 779.988 -105.156 779.991 -104.526 C 780.001 -102.666 776.271 -106.426 774.554 -105.736 C 773.557 -105.346 775.704 -103.936 776.319 -103.056 C 777.654 -100.86 779.137 -98.758 780.762 -96.766 C 781.286 -96.206 788.407 -91.976 788.57 -91.546 C 789.168 -89.956 789.882 -87.286 788.407 -86.466 C 787.41 -85.946 779.742 -96.786 779.43 -97.106 C 778.204 -98.346 776.599 -99.166 775.413 -100.436 C 774.26 -101.83 773.183 -103.285 772.19 -104.796 C 770.709 -106.726 769.476 -107.286 767.505 -109.406 C 766.609 -110.406 766.083 -111.676 765.078 -112.506 C 763.722 -113.636 761.999 -114.246 760.514 -115.196 C 760.383 -115.276 760.362 -115.476 760.272 -115.586 C 758.421 -117.536 754.702 -121.376 754.702 -121.376 Z" style="fill: url(#radial-gradient-28);"/>
  <path class="cls-32" d="M 317.756 -75.456 C 317.507 -75.196 316.98 -74.686 316.98 -74.686 C 316.98 -74.686 317.507 -75.196 317.756 -75.456 Z" style="fill: url(#radial-gradient-29);"/>
  <path class="cls-33" d="M 789.829 -84.266 C 792.695 -82.966 795.385 -81.176 798.419 -80.356 C 800.253 -79.856 802.474 -81.356 804.139 -80.356 C 805.143 -79.786 804.912 -77.996 804.648 -76.856 C 803.914 -74.077 802.865 -71.393 801.52 -68.856 C 801.036 -67.856 799.709 -67.286 799.435 -66.196 C 799.269 -65.466 800.032 -64.806 800.375 -64.196 C 801.224 -62.576 802.292 -61.066 803.051 -59.396 C 803.547 -58.306 801.94 -61.546 801.155 -62.466 C 800.37 -63.386 798.786 -64.096 798.14 -65.316 C 797.604 -66.316 798.068 -67.576 797.831 -68.686 C 797.318 -71.076 796.995 -73.586 795.794 -75.756 C 795.033 -77.048 794.194 -78.294 793.284 -79.486 C 792.176 -81.076 789.829 -84.266 789.829 -84.266 Z" style="fill: url(#radial-gradient-30);"/>
  <path class="cls-34" d="M 300.052 -64.846 C 299.062 -62.936 298.073 -60.996 296.973 -59.106 C 296.131 -57.395 295.135 -55.765 293.999 -54.236 C 293.631 -53.796 292.234 -53.096 292.372 -53.646 C 292.911 -55.646 294.352 -57.346 295.343 -59.206 C 296.332 -61.066 296.723 -62.876 297.964 -64.356 C 298.392 -64.906 300.052 -64.846 300.052 -64.846 Z" style="fill: url(#radial-gradient-31);"/>
  <path class="cls-35" d="M 315.259 -22.276 C 314.893 -21.566 314.848 -20.536 314.16 -20.126 C 313.772 -19.906 313.685 -21.006 313.823 -21.426 C 314.678 -24.306 314.934 -23.106 315.259 -22.276 Z" style="fill: url(#radial-gradient-32);"/>
  <path class="cls-36" d="M 805.021 -61.406 C 807.705 -58.666 811.398 -56.226 813.684 -53.116 C 815.451 -50.685 816.733 -47.938 817.458 -45.026 C 817.611 -44.386 816.854 -43.806 816.878 -43.156 C 816.88 -42.676 817.322 -42.296 817.584 -41.896 C 818.311 -40.796 820.353 -38.446 821.022 -36.636 C 821.611 -35.066 821.84 -33.336 822.677 -31.876 C 823.253 -30.876 824.615 -30.436 825.12 -29.396 C 828.356 -22.636 822.922 -23.476 819.127 -16.926 C 818.622 -16.056 819.638 -14.926 819.603 -13.926 C 819.507 -11.226 820.736 -7.696 818.746 -5.866 C 817.323 -4.556 818.453 -10.316 816.826 -11.366 C 815.823 -12.056 814.694 -9.966 814.12 -8.896 C 812.288 -5.486 812.174 1.304 807.575 3.224 C 806.577 3.654 806.314 1.224 806.318 0.124 C 806.315 -0.406 807.395 -0.366 807.593 -0.876 C 807.79 -1.386 807.256 -2.136 807.443 -2.726 C 808.612 -6.626 809.631 -10.646 811.592 -14.216 C 812.314 -15.546 815.656 -15.296 815.338 -16.776 C 814.394 -21.206 811.532 -25.286 811.478 -29.776 C 811.47 -31.556 814.467 -31.996 815.138 -33.646 C 815.523 -34.646 814.368 -35.646 814.202 -36.696 C 814.036 -37.746 814.4 -38.866 814.095 -39.886 C 813.159 -42.956 811.495 -47.386 809.289 -50.296 C 808.282 -51.686 806.806 -52.796 805.959 -54.296 C 805.645 -54.856 806.031 -55.576 805.948 -56.206 C 805.718 -58.006 805.339 -59.706 805.021 -61.406 Z" style="fill: url(#radial-gradient-33);"/>
  <path class="cls-37" d="M 295.25 -36.946 L 290.07 -29.366 L 295.25 -36.946 Z" style="fill: url(#radial-gradient-34);"/>
  <path class="cls-38" d="M 325.809 15.254 C 323.724 16.414 315.465 23.954 317.675 14.614 C 317.831 13.974 318.898 15.204 319.559 15.254 C 321.639 15.374 323.729 15.254 325.809 15.254 Z" style="fill: url(#radial-gradient-35);"/>
  <path class="cls-39" d="M 817.056 -5.926 C 816.579 -3.281 816.259 -0.61 816.098 2.074 C 816.105 3.354 818.114 5.144 817.028 5.814 C 815.662 6.644 813.477 5.534 812.49 4.274 C 811.775 3.354 812.717 1.924 813.182 0.864 C 814.357 -1.465 815.65 -3.731 817.056 -5.926 Z" style="fill: url(#radial-gradient-36);"/>
  <path class="cls-40" d="M 814.043 10.504 C 814.756 12.944 816.069 15.284 816.192 17.814 C 816.196 18.524 815.108 19.114 814.408 18.974 C 813.707 18.834 813.841 17.654 813.299 17.224 C 812.585 16.624 811.166 16.864 810.772 16.024 C 810.166 14.684 811.645 12.754 810.749 11.634 C 809.542 10.204 807.153 10.504 805.488 9.634 C 805.187 9.484 806.369 9.774 806.487 9.454 C 807.256 7.304 806.923 4.804 807.942 2.764 C 808.239 2.174 808.469 4.044 808.951 4.484 C 809.614 5.094 810.754 5.114 811.338 5.804 C 812.385 7.283 813.29 8.857 814.043 10.504 Z" style="fill: url(#radial-gradient-37);"/>
  <path class="cls-41" d="M 795.33 81.374 C 796.474 82.004 798.624 81.984 798.76 83.274 C 799.383 89.274 799.376 95.574 797.406 101.274 C 796.875 102.854 794.615 99.274 793.758 97.804 C 792.042 94.884 794.194 83.854 794.368 82.804 C 794.591 82.268 794.918 81.782 795.33 81.374 Z" style="fill: url(#radial-gradient-38);"/>
  <path class="cls-42" d="M 625.149 150.644 L 624.963 151.374 C 624.399 154.374 625.149 150.644 625.149 150.644 Z" style="fill: url(#radial-gradient-39);"/>
  <path class="cls-43" d="M 304.658 33.974 C 306.075 34.38 307.412 35.03 308.609 35.894 C 309.201 36.334 309.522 38.524 308.93 38.084 C 308.337 37.644 309.131 36.354 308.558 35.864 C 308.197 35.544 307.562 36.624 307.754 37.064 C 308.665 38.994 312.364 42.474 314.96 41.964 C 317.128 41.534 320.359 34.074 321.42 32.524 C 321.638 32.184 327.072 25.424 327.637 24.294 C 328.38 22.698 328.935 21.02 329.29 19.294 C 329.387 18.844 328.934 18.294 329.123 17.904 C 330.308 15.114 332.856 12.834 333.349 9.824 C 333.544 8.714 331.308 11.514 330.246 11.134 C 329.185 10.754 329.962 8.354 328.921 8.254 C 327.501 8.104 326.773 10.354 325.374 10.624 C 324.031 10.783 322.672 10.461 321.539 9.714 C 320.967 9.384 321.212 8.364 320.72 7.954 C 318.51 6.124 315.704 5.124 313.594 3.124 C 312.91 2.474 313.304 1.234 312.879 0.384 C 311.98 -1.436 310.332 -2.876 309.692 -4.796 C 308.33 -8.796 311.065 -6.036 311.856 -7.796 C 312.939 -10.328 313.737 -12.975 314.233 -15.686 C 314.37 -16.366 313.607 -17.076 313.844 -17.686 C 314.03 -18.156 315.042 -17.846 315.229 -18.316 C 317.739 -24.196 310.101 -20.066 319.259 -27.876 C 319.866 -28.396 320.017 -26.416 320.619 -25.876 C 321.694 -24.936 322.833 -23.276 324.222 -23.576 C 326 -23.966 326.202 -27.296 328.041 -27.486 C 329.88 -27.676 330.527 -24.616 332.248 -24.426 C 341.332 -23.426 333.666 -32.186 344.698 -24.266 C 345.491 -23.706 344.099 -22.266 344.493 -21.386 C 344.888 -20.506 346.287 -20.756 346.621 -19.966 C 347.046 -18.966 346.074 -17.686 346.469 -16.666 C 346.722 -16.026 347.811 -16.206 348.293 -15.726 C 349.52 -14.466 350.011 -12.476 351.496 -11.546 C 352.63 -10.836 354.254 -11.776 355.497 -11.216 C 356.42 -10.786 356.507 -9.386 357.38 -8.826 C 357.761 -8.576 358.299 -8.946 358.718 -9.126 C 361.013 -10.126 363.842 -10.476 365.492 -12.346 C 369.567 -16.976 365.446 -20.816 363.965 -24.766 C 362.931 -27.637 362.068 -30.565 361.379 -33.536 C 359.641 -40.726 365.658 -39.326 367.757 -43.216 C 368.54 -44.666 366.177 -47.056 367.39 -48.216 C 368.953 -49.656 371.994 -47.626 373.757 -48.826 C 374.754 -49.506 371.591 -50.036 370.399 -50.276 C 368.967 -50.554 367.498 -50.578 366.059 -50.346 C 365.439 -50.246 365.145 -49.276 364.525 -49.296 C 363.525 -49.296 362.808 -50.486 361.818 -50.476 C 360.378 -50.476 358.589 -50.366 357.645 -49.266 C 357.426 -49.016 356.183 -40.216 353.692 -40.486 C 351.981 -40.676 351.567 -43.176 350.67 -44.626 C 350.004 -45.686 348.237 -46.966 348.981 -47.976 C 349.975 -49.386 352.529 -48.466 354.075 -49.266 C 356.528 -50.546 352.634 -51.266 350.389 -54.146 C 350.158 -54.456 351.279 -54.236 351.467 -54.566 C 352.431 -56.218 353.195 -57.981 353.739 -59.816 C 354.132 -61.136 352.933 -57.076 351.938 -56.146 C 351.55 -55.776 351.929 -57.806 351.4 -57.646 C 349.135 -56.926 347.252 -55.326 345.28 -54.006 C 344.004 -53.146 341.665 -51.136 341.665 -51.136 C 339.167 -48.866 336.589 -46.686 334.181 -44.336 C 333.564 -43.736 333.29 -42.846 332.632 -42.336 C 331.028 -41.036 328.732 -40.526 327.49 -38.896 C 326.696 -37.896 327.334 -36.286 327.061 -35.016 C 326.836 -34.016 326.151 -33.106 326.016 -32.016 C 325.825 -30.526 327.367 -28.296 326.04 -27.516 C 324.715 -26.736 324.029 -29.666 322.697 -30.006 C 322.087 -30.156 321.913 -29.006 321.375 -28.696 C 319.998 -27.936 318.15 -25.796 317.025 -26.896 C 315.898 -27.996 318.649 -29.606 318.852 -31.136 C 319.08 -32.289 318.76 -33.487 317.984 -34.376 C 317.07 -35.216 315.581 -34.956 314.36 -35.246 C 313.449 -35.456 312.474 -36.246 311.627 -35.856 C 310.779 -35.466 310.635 -34.166 310.23 -33.276 C 310.151 -33.096 310.322 -32.846 310.233 -32.686 C 309.074 -30.686 307.414 -28.936 306.505 -26.796 C 306.297 -26.296 307.32 -25.736 307.093 -25.236 C 306.105 -22.996 304.114 -21.236 303.056 -19.066 C 302.245 -17.376 302.075 -15.456 301.494 -13.656 C 301.279 -12.956 300.919 -10.846 300.715 -11.566 C 300.216 -13.316 301.036 -15.276 300.527 -17.026 C 300.405 -17.456 299.17 -16.356 299.228 -16.796 C 299.38 -18.146 300.565 -19.186 300.938 -20.506 C 301.242 -21.586 300.464 -23.036 301.22 -23.866 C 301.976 -24.696 303.218 -24.316 304.03 -23.866 C 304.843 -23.416 304.906 -20.806 305.673 -21.416 C 308.909 -24.056 302.651 -25.586 302.647 -26.326 C 302.629 -29.746 304.342 -32.946 305.174 -36.256 C 305.615 -38.066 305.634 -40.026 306.465 -41.696 C 309.968 -48.696 310.448 -45.066 311.304 -49.396 C 312.161 -53.726 313.099 -57.836 313.546 -62.136 C 313.643 -62.876 312.719 -63.556 312.895 -64.286 C 313.306 -65.986 314.569 -67.366 315.23 -68.996 C 315.556 -69.806 315.501 -70.746 315.836 -71.566 C 316.469 -73.066 319.15 -76.566 318.477 -78.866 C 318.264 -79.626 317.467 -80.866 316.778 -80.536 C 313.387 -79.026 311.828 -71.216 310.842 -68.616 C 310.131 -66.806 308.86 -65.236 308.13 -63.446 C 306.866 -60.197 306.069 -56.783 305.763 -53.306 C 305.657 -52.536 305.962 -51.676 305.636 -50.966 C 304.351 -48.046 301.663 -45.846 300.63 -42.816 C 300.354 -41.966 301.019 -40.876 300.514 -40.146 C 298.921 -37.889 296.985 -35.895 294.775 -34.236 C 294.426 -33.976 294.33 -35.186 294.568 -35.556 C 295.46 -36.996 296.905 -38.026 297.958 -39.366 C 298.882 -40.556 300.663 -45.766 300.86 -46.436 C 301.396 -48.065 301.792 -49.738 302.044 -51.436 C 302.12 -52.126 301.686 -52.836 301.802 -53.516 C 302.403 -57.056 303.295 -60.516 304.186 -64.006 C 304.808 -66.383 305.571 -68.72 306.469 -71.006 C 307.811 -74.476 309.544 -70.116 310.077 -77.106 C 310.348 -80.546 304.991 -82.106 302.843 -81.656 C 301.844 -81.446 301.793 -79.766 301.006 -79.056 C 300.499 -78.596 299.699 -78.586 299.1 -78.246 C 297.78 -77.657 296.554 -76.875 295.463 -75.926 C 294.817 -75.276 288.641 -65.026 287.181 -65.036 C 285.911 -65.036 287.668 -67.546 287.901 -68.796 L 292.405 -77.466 C 296.671 -85.666 301.981 -93.266 307.381 -100.756 C 307.728 -101.226 308.106 -101.676 308.454 -102.146 C 309.446 -103.526 310.289 -104.996 311.361 -106.296 C 311.63 -106.626 312.596 -107.376 312.448 -106.976 C 311.462 -104.396 309.754 -102.096 308.667 -99.556 C 308.066 -98.033 307.594 -96.461 307.262 -94.856 C 307.155 -94.376 314.419 -103.026 314.577 -103.226 C 315.512 -104.376 316.567 -105.426 317.41 -106.646 C 318.253 -107.866 318.846 -109.266 319.689 -110.496 C 320.682 -111.966 322.074 -113.236 322.946 -114.806 C 323.263 -115.396 325.765 -122.506 327.3 -121.656 C 328.834 -120.806 326.526 -118.536 326.325 -116.946 C 326.327 -116.626 326.641 -117.526 326.85 -117.766 C 327.437 -118.436 328.114 -119.026 328.7 -119.696 C 329.465 -120.576 330.82 -123.586 330.895 -122.426 C 330.995 -120.746 329.331 -119.426 328.8 -117.876 C 328.387 -116.646 335.392 -121.356 335.851 -121.586 C 339.75 -123.516 333.192 -117.386 336.859 -119.896 C 339.599 -121.766 341.291 -125.086 344.283 -126.526 C 345.451 -127.086 346.599 -121.706 348.727 -122.166 C 349.826 -122.406 349.505 -124.296 350.141 -125.216 C 351.848 -127.696 354.968 -129.546 356.865 -131.916 C 357.113 -132.236 356.861 -132.786 357.169 -133.066 C 358.681 -134.616 360.151 -136.336 362.097 -137.296 C 363.034 -137.766 364.391 -136.486 365.248 -137.086 C 365.856 -137.516 362.625 -137.746 363.242 -138.086 C 364.897 -139.086 367.054 -139.786 368.876 -139.186 C 369.938 -138.856 367.315 -137.616 366.368 -137.066 C 366.039 -136.876 365.487 -137.326 365.228 -137.066 C 364.233 -135.976 363.802 -134.436 362.847 -133.296 C 360.742 -130.766 357.045 -130.156 354.395 -128.226 C 354.146 -128.056 354.578 -127.616 354.399 -127.356 C 352.646 -124.246 348.272 -121.356 352.693 -117.256 C 353.698 -116.306 355.57 -117.766 356.873 -117.256 C 358.687 -116.586 359.778 -114.526 361.591 -113.926 C 368.974 -111.456 370.694 -124.456 376.534 -124.656 C 378.303 -124.716 379.1 -121.656 380.861 -121.576 C 382.151 -121.576 382.46 -123.576 383.404 -124.466 C 384.35 -125.356 385.489 -125.626 386.203 -126.626 C 387.385 -128.206 387.241 -130.816 388.895 -131.876 C 395.871 -136.346 396.946 -122.226 403.051 -128.936 C 404.204 -130.196 402.812 -132.496 401.824 -133.936 C 401.341 -134.616 400.025 -133.806 399.322 -134.286 C 396.944 -135.896 394.256 -137.486 392.873 -139.986 C 392.367 -140.916 397.852 -143.716 397.852 -143.736 C 402.172 -147.546 396.193 -145.466 403.401 -149.546 C 404.578 -150.216 406.098 -150.046 407.396 -150.546 C 407.895 -150.756 408.112 -151.436 408.601 -151.626 C 409.927 -152.136 411.417 -152.096 412.745 -152.626 C 414.512 -153.276 416.065 -154.476 417.852 -155.096 C 420.847 -156.096 421.183 -151.226 422.558 -159.456 C 422.509 -160.394 421.672 -161.097 420.74 -160.986 C 417.746 -159.986 415.389 -157.536 412.587 -155.986 C 411.219 -155.194 409.758 -154.573 408.236 -154.136 C 407.428 -153.936 406.504 -154.566 405.736 -154.246 C 401.635 -152.546 397.918 -150.046 393.889 -148.166 C 393.679 -148.066 393.407 -148.526 393.207 -148.386 C 391.6 -147.328 390.14 -146.06 388.868 -144.616 C 388.609 -144.306 389.322 -143.796 389.144 -143.426 C 388.323 -141.706 387.816 -139.276 386.019 -138.626 C 384.542 -138.086 383.174 -141.496 381.778 -140.766 C 380.572 -140.136 383.345 -137.636 382.35 -136.696 C 381.354 -135.756 379.146 -137.386 377.659 -136.906 C 376.95 -136.666 377.177 -135.446 376.669 -134.906 C 375.517 -133.446 370.557 -129.646 368.904 -128.436 C 367.688 -127.546 366.41 -125.436 365.056 -126.116 C 363.452 -126.876 363.958 -129.486 363.239 -131.116 C 363.148 -131.346 363.024 -130.226 363.243 -130.396 C 364.282 -131.504 365.257 -132.669 366.164 -133.886 C 367.288 -135.236 368.27 -136.716 369.513 -137.946 C 374.258 -142.626 371.443 -137.946 375.653 -143.536 C 376.031 -144.026 375.987 -144.776 376.384 -145.236 C 377.329 -146.316 378.685 -146.996 379.629 -148.076 C 380.156 -148.656 378.363 -147.186 377.727 -146.736 C 375.016 -144.866 373.554 -143.456 369.623 -143.586 C 367.253 -143.666 369.039 -146.306 371.734 -149.166 C 381.369 -159.416 368.358 -144.686 381.087 -154.056 C 381.754 -154.566 380.466 -156.196 381.213 -156.596 C 382.35 -157.196 384.03 -155.456 385.076 -156.206 C 385.773 -156.686 382.948 -157.596 383.525 -158.206 C 384.519 -159.356 386.754 -158.506 388.009 -159.396 C 388.826 -159.986 388.257 -161.656 389.094 -162.216 C 390.453 -162.938 391.993 -163.25 393.529 -163.116 C 393.899 -163.116 393.942 -162.496 394.244 -162.266 C 395.619 -161.266 397.559 -163.206 399.236 -163.716 C 403.629 -165.096 407.818 -167.086 412.21 -168.516 C 413.134 -168.639 414.05 -168.826 414.947 -169.076 C 415.775 -169.486 416.189 -170.506 417.017 -170.926 C 417.366 -171.096 417.809 -170.606 418.178 -170.716 C 421.344 -171.656 424.325 -173.136 427.501 -174.016 C 427.721 -174.086 427.405 -173.306 427.624 -173.356 C 431.14 -174.186 448.215 -180.886 453.904 -177.156 C 454.597 -176.706 454.176 -172.986 453.75 -172.346 C 453.125 -171.446 451.594 -171.496 450.929 -170.626 C 450.423 -169.936 452.825 -169.626 452.709 -168.746 C 452.594 -167.866 450.886 -167.406 451.37 -166.746 C 452.205 -165.676 454.49 -166.586 455.257 -165.446 C 456.113 -164.146 455.493 -162.336 455.282 -160.796 C 454.986 -158.126 455.211 -155.156 453.814 -152.876 C 450.75 -147.876 441.936 -154.306 440.66 -155.436 C 439.564 -156.436 440.874 -160.436 439.637 -159.676 C 438.052 -158.676 439.448 -155.866 438.666 -154.206 C 438.083 -153.046 430.127 -146.646 432.304 -145.206 C 440.624 -139.606 434.305 -144.916 438.669 -148.096 C 439.426 -148.656 439.598 -146.426 440.192 -145.686 C 440.998 -144.686 441.684 -143.416 442.846 -142.876 C 443.297 -142.656 443.603 -143.526 443.841 -143.936 C 444.683 -145.326 444.823 -147.286 446.118 -148.226 C 447.743 -149.376 450.014 -149.066 451.9 -149.696 C 452.839 -150.006 453.711 -151.606 454.513 -151.046 C 455.677 -150.226 454.6 -147.776 455.785 -146.986 C 456.528 -146.486 456.898 -148.356 457.414 -149.086 C 458.283 -150.552 459.233 -151.967 460.261 -153.326 C 461.901 -155.156 466.591 -158.936 469.497 -157.816 C 470.499 -157.406 469.361 -155.276 468.444 -154.636 C 466.93 -153.636 463.722 -155.076 463.071 -153.366 C 462.489 -151.826 465.019 -150.016 466.659 -149.956 C 468.299 -149.896 468.496 -152.466 469.842 -153.116 C 470.69 -153.516 471.745 -152.576 472.644 -152.806 C 476.019 -153.716 478.624 -156.466 482.397 -155.956 C 483.528 -155.796 484.91 -155.496 485.544 -154.546 C 485.908 -153.996 483.047 -154.076 483.688 -153.986 C 488.464 -153.144 493.299 -152.689 498.145 -152.626 C 498.825 -152.626 498.808 -153.906 499.406 -154.216 C 500.353 -154.726 501.685 -154.326 502.552 -154.966 C 504.147 -156.136 498.117 -159.746 504.629 -159.376 C 505.489 -159.376 514.761 -155.176 516.869 -153.706 C 517.953 -152.946 518.464 -150.946 519.784 -151.016 C 521.103 -151.086 521.874 -152.726 522.078 -153.946 C 522.184 -154.536 520.63 -153.676 520.326 -154.176 C 519.862 -154.936 520.976 -156.226 520.312 -156.856 C 519.649 -157.486 518.015 -156.346 517.311 -157.066 C 516.226 -158.186 519.718 -159.456 520.503 -162.356 C 520.65 -162.906 519.067 -163.356 519.495 -163.746 C 520.709 -165.056 522.859 -165.096 524.172 -166.276 C 526.023 -167.936 527.142 -172.036 528.483 -171.706 C 530.616 -171.186 533.488 -170.706 534.359 -168.706 C 534.977 -167.256 531.59 -166.706 531.218 -165.216 C 530.963 -164.216 532.916 -163.576 532.832 -162.536 C 532.578 -159.536 530.352 -156.926 530.258 -153.916 C 530.09 -147.966 537.359 -155.706 530.53 -147.836 C 530.142 -147.396 529.351 -147.616 528.843 -147.296 C 527.382 -146.43 526.042 -145.374 524.86 -144.156 C 524.651 -143.926 525.523 -143.546 525.304 -143.316 C 524.656 -142.53 523.72 -142.04 522.702 -141.956 C 521.162 -142.036 519.923 -143.576 518.383 -143.616 C 517.813 -143.616 518.56 -142.286 519.071 -142.086 C 520.675 -141.426 522.513 -141.646 524.185 -141.246 C 524.806 -141.096 525.33 -140.246 525.909 -140.446 C 527.706 -141.146 533.665 -144.986 534.641 -147.646 C 535.213 -149.206 533.712 -151.376 534.795 -152.646 C 538.94 -157.376 540.059 -153.756 541.799 -151.746 C 543.158 -150.196 545.053 -145.426 545.993 -147.246 C 548.261 -151.546 540.771 -155.176 537.851 -155.246 C 536.351 -155.246 534.758 -153.976 533.424 -154.626 C 530.276 -156.186 535.264 -158.426 535.393 -160.536 C 535.484 -162.116 533.136 -163.536 533.739 -164.996 C 534.45 -166.726 537.24 -166.606 538.463 -167.996 C 539.188 -168.836 538.791 -172.306 539.136 -171.246 C 539.715 -169.466 539.286 -167.506 539.245 -165.626 C 539.248 -165.216 538.601 -164.626 538.942 -164.446 C 539.855 -163.916 541.043 -164.246 542.074 -163.966 C 543.106 -163.686 546.086 -161.716 545.412 -162.696 C 543.053 -166.116 534.063 -166.016 546.046 -169.306 C 546.704 -169.492 547.406 -169.461 548.047 -169.216 C 549.65 -168.546 550.888 -167.096 552.56 -166.586 C 553.692 -166.246 555.833 -167.896 556.09 -166.746 C 556.51 -164.876 553.627 -163.466 553.677 -161.556 C 553.684 -160.446 555.582 -158.666 556.308 -159.496 C 557.302 -160.656 556.661 -162.746 555.924 -164.116 C 551.632 -172.026 549.749 -166.856 550.28 -174.276 C 550.279 -174.496 550.71 -174.336 550.93 -174.276 C 554.933 -173.726 558.8 -172.476 562.798 -172.516 C 563.738 -172.516 561.004 -173.516 560.659 -174.366 C 557.427 -182.156 560.082 -177.526 563.155 -180.756 C 563.503 -181.116 561.234 -180.946 561.683 -181.166 C 565.204 -182.786 569.04 -183.656 572.662 -185.166 C 573.25 -185.406 570.184 -184.696 570.783 -184.896 C 573.638 -185.816 576.439 -187.626 579.43 -187.366 C 581.361 -187.196 582.097 -184.126 584.01 -183.756 C 585.351 -183.496 582.507 -186.066 581.482 -186.956 C 580.789 -187.576 578.158 -187.736 578.966 -188.186 C 580.531 -189.056 583.191 -187.186 584.334 -188.566 C 585.476 -189.946 582.425 -192.126 583.387 -193.486 C 584.152 -194.576 586.02 -193.056 587.391 -192.836 C 590.944 -192.246 594.507 -191.696 598.06 -191.066 C 608.78 -189.166 601.854 -180.936 598.599 -176.276 C 598.162 -175.646 599.121 -177.806 599.738 -178.276 C 601.383 -179.406 603.531 -179.666 605.155 -180.806 C 606.778 -181.946 604.224 -184.646 608.702 -183.326 C 610.094 -182.906 611.051 -181.606 612.195 -180.696 C 612.878 -180.156 614.788 -178.406 614.145 -178.986 C 612.999 -180.046 611.056 -180.606 610.658 -182.116 C 610.433 -182.996 612.082 -183.326 612.95 -183.596 C 622.564 -186.596 614.211 -183.516 622.704 -182.886 C 623.704 -182.806 624.549 -183.796 625.569 -183.966 C 627.896 -184.356 633.315 -184.476 635.8 -183.746 C 637.512 -183.246 638.811 -181.536 640.632 -181.466 C 641.362 -181.466 641.344 -182.876 641.18 -183.576 C 641.067 -184.086 639.415 -184.396 639.915 -184.576 C 641.911 -185.236 646.804 -179.176 648.931 -181.526 C 650.124 -182.826 643.689 -185.646 644.804 -186.436 C 645.921 -187.226 647.812 -185.046 649.35 -185.436 C 651.627 -186.076 654.18 -187.256 655.329 -189.356 C 655.864 -190.356 652.967 -189.726 651.954 -190.356 C 650.419 -191.256 647.335 -192.076 647.866 -193.766 C 649.998 -200.766 656.683 -192.416 658.42 -192.976 C 659.687 -193.386 656.467 -195.546 657.03 -196.746 C 657.495 -197.746 659.23 -196.656 660.279 -196.916 C 667.689 -198.746 668.715 -201.436 674.455 -199.586 C 675.587 -199.216 676.511 -198.326 677.663 -198.066 C 678.083 -197.976 678.42 -198.676 678.85 -198.616 C 679.844 -198.342 680.805 -197.96 681.716 -197.476 C 682.839 -197.036 686.117 -195.546 685.093 -196.186 C 684.07 -196.826 675.078 -198.996 679.94 -202.506 C 681.025 -203.306 682.868 -202.686 683.833 -203.626 C 684.321 -204.096 682.72 -204.376 682.078 -204.626 C 680.295 -205.216 674.595 -205.166 675.732 -209.526 C 676.252 -211.526 681.027 -210.526 682.027 -210.526 C 682.527 -210.526 680.177 -210.526 680.575 -210.826 C 683.434 -212.826 687.444 -209.306 689.821 -209.586 C 691.6 -209.796 686.197 -210.416 684.811 -211.586 C 684.359 -211.966 685.705 -212.726 686.266 -212.586 C 688.178 -212.036 689.706 -210.586 691.501 -209.696 C 693.948 -208.476 696.661 -207.876 699.147 -206.696 C 699.668 -206.466 698.043 -207.476 697.514 -207.236 C 696.657 -206.816 695.631 -206.006 695.645 -205.046 C 695.65 -204.396 696.956 -204.856 697.549 -204.596 C 699.196 -204.017 700.755 -203.209 702.181 -202.196 C 703.617 -200.996 704.109 -198.836 705.685 -197.816 C 706.417 -197.326 704.143 -200.056 704.97 -200.366 C 709.851 -202.216 707.737 -199.256 709.621 -198.476 C 711.505 -197.696 713.907 -197.366 715.783 -196.236 C 716.274 -195.946 713.783 -196.236 714.135 -195.766 C 714.488 -195.296 722.559 -189.406 724.025 -188.286 C 726.033 -186.706 728.043 -184.986 730.131 -183.466 C 731.054 -182.796 733.595 -182.676 733.061 -181.686 C 732.525 -180.696 729.569 -183.786 729.685 -182.626 C 729.94 -179.806 732.252 -177.626 733.655 -175.116 C 734.665 -173.276 737.227 -172.816 738.924 -171.546 C 745.209 -166.886 742.494 -167.826 747.897 -165.456 C 749.978 -164.599 751.97 -163.537 753.844 -162.286 C 754.215 -161.996 755.14 -160.956 754.709 -161.136 C 753.837 -161.506 753.362 -162.536 752.481 -162.856 C 752.13 -162.976 752.565 -162.076 752.816 -161.856 C 754.268 -160.382 755.832 -159.024 757.497 -157.796 C 758.622 -156.966 760.123 -156.716 761.128 -155.746 C 762.435 -154.506 762.566 -152.356 763.813 -151.066 C 764.858 -149.982 765.984 -148.979 767.179 -148.066 C 767.811 -147.576 768.802 -147.486 769.276 -146.836 C 769.749 -146.186 769.436 -144.836 770 -144.136 C 771.813 -141.786 779.039 -136.876 779.198 -133.246 C 779.201 -132.716 774.458 -137.016 774.097 -137.296 C 771.014 -139.646 767.602 -141.926 764.41 -144.126 C 759.522 -147.526 754.245 -150.636 749.993 -154.876 C 749.259 -155.606 748.883 -156.636 748.12 -157.336 C 746.995 -158.396 745.361 -158.896 744.395 -160.096 C 743.922 -160.686 744.476 -161.696 744.073 -162.336 C 742.57 -164.826 735.024 -171.566 732.833 -173.606 C 730.642 -175.646 729.21 -177.896 726.572 -179.456 C 724.887 -180.456 722.964 -181.086 721.417 -182.286 C 720.824 -182.746 719.813 -184.826 720.406 -184.286 C 722.949 -181.746 725.165 -178.896 727.549 -176.216 C 728.484 -175.216 730.049 -174.486 730.365 -173.136 C 730.591 -172.136 728.729 -174.386 727.856 -174.926 C 726.572 -175.716 725.373 -177.276 723.845 -177.086 C 722.846 -176.946 722.484 -175.186 722.86 -174.266 C 724.815 -169.596 726.045 -171.486 728.237 -169.086 C 729.566 -167.606 730.395 -165.626 731.982 -164.436 C 733.206 -163.516 735.324 -164.116 736.36 -162.976 C 739.91 -159.076 731.188 -157.676 730.292 -156.876 C 729.884 -156.506 732.104 -156.536 731.767 -156.096 C 730.972 -155.096 729.04 -155.386 728.295 -154.316 C 727.949 -153.806 729.91 -153.506 729.593 -152.976 C 728.552 -151.246 726.406 -150.456 725.065 -148.976 C 723.722 -147.496 729.102 -141.896 729.628 -140.686 C 730.418 -138.836 730.3 -136.686 731.06 -134.826 C 734.799 -125.526 731.861 -138.226 734.293 -128.606 C 734.681 -127.106 734.2 -125.276 735.156 -124.056 C 736.113 -122.836 738.164 -122.756 739.508 -121.886 C 741.706 -120.496 743.191 -117.546 745.763 -117.256 C 747.063 -117.106 745.238 -119.956 745.743 -121.176 C 746.246 -122.396 747.02 -123.576 748.179 -123.656 C 763.504 -124.656 751.104 -122.656 753.408 -119.956 C 754.603 -118.809 755.989 -117.882 757.503 -117.216 C 758.065 -116.906 758.923 -117.126 759.337 -116.636 C 760.152 -115.636 760.259 -114.276 760.915 -113.196 C 761.96 -111.405 763.161 -109.708 764.501 -108.126 C 765.427 -107.076 766.81 -106.516 767.746 -105.486 C 768.098 -105.076 767.922 -104.386 768.254 -103.956 C 768.586 -103.526 769.447 -103.246 769.871 -102.706 C 770.686 -101.706 771.143 -100.436 771.888 -99.386 C 772.634 -98.336 773.747 -97.676 774.303 -96.576 C 775.011 -95.136 775.01 -93.416 775.568 -91.916 C 777.251 -87.436 780.073 -83.416 781.278 -78.696 C 782.208 -75.056 782.627 -71.306 783.527 -67.696 C 783.874 -66.306 785.591 -64.976 785.039 -63.646 C 783.617 -60.206 779.627 -58.256 778.175 -54.826 C 777.533 -53.296 778.943 -51.596 779.272 -49.966 C 780.156 -45.446 781.319 -40.966 781.853 -36.376 C 781.927 -35.706 781.07 -35.216 780.963 -34.536 C 781.01 -34.009 781.159 -33.496 781.402 -33.026 C 782.784 -28.816 783.817 -24.486 785.598 -20.436 C 786.985 -17.296 793.097 -15.106 795.088 -11.086 C 796.149 -8.936 800.195 -2.306 798.938 0.224 C 798.662 0.754 797.595 -0.446 797.147 -0.056 C 796.699 0.334 797.733 1.084 797.446 1.534 C 796.93 2.364 795.45 2.354 795.085 3.264 C 794.719 4.174 796.444 5.044 795.908 5.734 C 794.845 7.124 792.725 7.254 791.251 8.224 C 790.862 8.474 792.812 8.314 792.61 7.894 C 792.083 6.834 790.692 6.444 789.917 5.534 C 789.715 5.294 790.81 6.084 790.818 5.774 C 790.88 4.483 790.634 3.194 790.098 2.014 C 789.976 1.704 789.278 2.134 789.097 1.834 C 788.724 1.204 788.989 0.324 788.685 -0.346 C 787.906 -1.986 786.49 -3.296 785.891 -5.006 C 785.597 -5.826 786.67 -6.916 786.137 -7.606 C 785.603 -8.296 780.716 -11.536 778.726 -11.386 C 777.537 -11.296 775.869 -9.046 775.383 -10.126 C 774.664 -11.766 777.225 -13.466 777.006 -15.256 C 776.922 -15.996 775.189 -14.676 774.756 -15.256 C 772.478 -18.576 775.32 -24.016 767.921 -21.916 C 766.772 -21.586 766.862 -19.766 766.257 -18.736 C 765.326 -17.136 764.043 -15.736 763.352 -14.026 C 761.754 -10.026 765.776 -11.496 761.138 -7.336 C 760.77 -7.006 760.345 -7.996 760.203 -8.466 C 758.279 -14.816 760.101 -27.346 754.133 -21.466 C 752.144 -19.466 753.032 -15.876 752.308 -13.116 C 751.326 -9.556 747.188 -7.296 746.628 -3.646 C 746.45 -1.544 747.48 0.482 749.286 1.584 C 750.66 2.384 752.546 -0.216 753.94 0.584 C 754.222 0.734 756.669 9.784 760.397 5.454 C 761.818 3.814 760.51 0.574 762.173 -0.816 C 763.317 -1.816 765.049 0.474 766.549 0.314 C 768.048 0.154 769.255 -2.206 770.767 -1.756 C 771.93 -1.396 772.142 0.774 771.547 1.834 C 770.279 4.084 767.564 5.094 765.824 7.044 C 765.586 7.304 766.823 6.824 766.895 7.164 C 766.967 7.504 766.797 11.164 765.919 11.594 C 765.41 11.844 764.163 10.384 764.365 10.914 C 770.582 27.254 768.778 18.984 776.288 30.224 C 776.803 30.994 776.299 32.274 777.012 32.884 C 778.67 34.304 783.795 31.484 783.501 36.504 C 783.503 36.734 775.924 38.914 775.784 38.904 C 774.664 38.814 773.924 37.024 772.775 37.264 C 771.876 37.464 773.925 39.084 774.845 39.104 C 776.095 39.104 776.927 37.584 778.146 37.384 C 778.536 37.324 778.211 38.324 778.572 38.484 C 781.328 39.674 785.576 39.234 785.298 41.544 C 785.193 42.354 780.541 49.544 780.155 50.344 C 779.848 50.934 780.727 48.904 781.377 48.784 C 782.026 48.664 782.453 49.864 783.122 49.784 C 785.122 49.594 787.108 47.064 788.873 48.044 C 790.146 48.744 786.766 50.534 787.024 51.964 C 787.189 52.904 788.788 52.804 789.739 52.904 C 790.139 52.954 789.094 51.904 788.735 52.154 C 787.992 52.613 787.574 53.453 787.657 54.324 C 788.117 56.264 789.924 57.684 790.494 59.604 C 791.177 61.944 786.756 61.864 786.514 63.124 C 786.094 65.184 786.535 67.344 786.737 69.434 C 786.874 70.704 787.54 71.924 787.567 73.204 C 787.579 75.554 784.088 77.074 784.28 79.414 C 784.365 80.414 786.454 78.354 787.157 79.024 C 787.862 79.694 786.477 80.804 786.682 81.684 C 786.887 82.564 788.507 82.684 788.181 83.404 C 787.855 84.124 786.905 82.294 786.267 82.544 C 785.628 82.794 785.923 83.774 785.697 84.364 C 785.469 84.954 784.951 85.364 785.014 85.854 C 785.119 86.664 786.312 87.244 786.126 88.044 C 785.94 88.844 784.487 88.344 784.281 89.044 C 784.075 89.744 785.578 90.344 785.212 90.944 C 784.418 92.244 782.218 92.264 781.486 93.604 C 781.169 94.184 783.336 93.604 783.379 94.274 C 783.434 95.274 782.107 95.774 781.682 96.634 C 781.029 97.904 780.926 99.414 780.173 100.634 C 779.419 101.854 777.831 102.254 777.388 103.504 C 777.191 104.014 779.118 103.584 778.931 104.104 C 778.109 106.255 776.773 108.17 775.041 109.684 C 774.494 110.144 773.396 108.804 772.92 109.344 C 772.442 109.884 774.485 110.344 774.047 110.774 C 773.142 111.634 771.488 111.104 770.403 111.774 C 769.316 112.444 768.936 114.354 767.657 114.504 C 765.898 114.704 764.398 112.984 762.647 112.664 C 762.226 112.584 763.38 113.304 763.342 113.664 C 763.228 114.724 762.263 115.664 762.248 116.664 C 762.233 117.664 763.19 118.924 763.266 120.124 C 763.268 120.554 762.68 118.824 762.411 119.124 C 761.944 119.714 762.731 120.804 762.233 121.374 C 760.331 123.524 758.156 125.416 755.763 127.004 C 753.831 128.364 750.429 127.954 749.011 130.294 C 749.011 130.364 748.36 139.444 748.139 139.294 C 745.84 137.654 746.399 133.744 744.488 131.674 C 743.925 131.054 743.236 133.204 742.396 133.064 C 741.345 132.874 741.073 130.694 740.024 130.904 C 738.236 131.254 737.186 133.174 735.792 134.354 C 734.797 135.194 733.5 135.814 732.807 136.954 C 732.42 137.594 733.455 138.704 732.908 139.204 C 731.834 140.204 729.73 139.494 728.795 140.594 C 728.288 141.184 730.262 141.824 730.036 142.594 C 727.786 150.044 726.136 146.274 725.296 151.904 C 724.601 156.574 724.406 157.604 728.511 160.394 C 729.083 160.774 730.11 160.114 730.602 160.614 C 731.447 161.484 731.175 163.074 731.99 163.984 C 732.805 164.894 734.407 165.304 735.531 166.104 C 737.178 167.244 738.456 168.954 740.271 169.784 C 741.203 170.224 742.477 169.154 743.361 169.674 C 745.06 170.874 746.5 172.405 747.595 174.174 C 747.766 174.414 747.127 174.694 747.199 174.994 C 747.802 177.544 749.793 179.594 750.666 182.084 C 751.297 183.994 751.788 185.945 752.138 187.924 C 753.71 195.924 749.428 197.264 745.379 203.254 C 745.081 203.704 745.265 204.404 744.887 204.804 C 743.644 206.182 742.222 207.386 740.656 208.384 C 740.123 208.623 739.518 208.659 738.956 208.484 C 738.426 208.384 738.022 207.604 737.503 207.774 C 736.984 207.944 737.049 208.774 736.681 209.214 C 735.309 210.804 732.814 211.724 732.305 213.784 C 731.991 215.044 735.135 215.524 734.821 216.784 C 734.44 218.354 732.01 218.434 730.896 219.594 C 730.21 220.304 730.236 221.514 729.61 222.274 C 728.876 223.161 727.964 223.883 726.931 224.394 C 726.542 224.584 727.728 223.684 727.596 223.254 C 726.659 220.144 725.841 216.824 723.868 214.254 C 723.103 213.254 721.296 213.994 720.154 213.454 C 719.01 212.914 718.615 211.864 717.692 211.284 C 712.675 208.164 714.69 210.924 709.67 207.184 C 708.967 206.664 708.712 205.684 707.999 205.184 C 707.658 204.924 707.079 205.184 706.698 205.014 C 704.622 203.844 703.021 201.694 700.677 201.104 C 699.576 200.814 694.573 202.024 694.034 204.174 C 693.897 204.734 695.198 204.954 695.141 205.524 C 693.479 220.144 689.927 215.984 695.149 229.414 C 695.924 231.002 696.808 232.535 697.793 234.004 C 697.932 234.235 698.053 234.475 698.157 234.724 C 698.947 236.664 700.066 238.524 700.467 240.584 C 700.54 240.984 699.011 241.054 699.401 241.174 C 705.46 242.974 715.326 242.074 718.893 249.024 C 720.712 252.564 716.627 255.364 718.787 259.314 C 720.414 262.314 726.057 257.264 723.9 265.414 C 723.429 267.164 720.851 267.524 719.093 267.974 C 718.654 268.094 718.678 266.974 718.218 266.884 C 716.906 266.504 715.478 266.884 714.146 266.544 C 713.766 266.464 713.622 265.894 713.232 265.784 C 710.648 265.034 707.729 265.284 705.343 264.014 C 704.64 263.634 705.794 262.354 705.459 261.634 C 704.748 260.362 703.806 259.233 702.682 258.304 C 702.149 257.794 701.03 257.884 700.757 257.194 C 700.482 256.504 701.619 255.764 701.375 255.064 C 701.131 254.364 699.679 254.064 699.415 253.254 C 696.588 244.424 704.405 251.254 694.072 241.404 C 693.711 241.064 693.197 242.404 692.786 242.144 C 691.703 241.434 691.623 239.604 690.45 239.054 C 688.855 238.294 686.324 239.904 685.216 238.544 C 683.093 235.934 687.281 226.164 687.584 224.794 C 687.788 223.794 687.041 228.034 686.288 227.404 C 682.028 223.784 689.256 221.554 687.888 216.124 C 687.693 215.364 686.108 216.124 685.615 215.504 C 685.241 215.034 685.818 214.324 686.045 213.784 C 686.144 213.524 686.653 213.384 686.551 213.124 C 685.455 210.124 683.801 207.314 682.605 204.334 C 682.31 203.594 682.426 202.734 682.063 202.024 C 681.234 200.374 679.956 198.974 679.038 197.344 C 677.29 194.174 676.432 190.584 675.133 187.214 C 674.637 185.904 674.709 184.384 673.943 183.214 C 673.347 182.304 671.988 180.534 671.273 181.354 C 670.159 182.634 671.701 184.864 671.12 186.464 C 670.729 187.507 669.819 188.267 668.721 188.464 C 667.961 188.554 667.52 186.464 666.982 186.984 C 661.214 192.924 667.07 192.264 661.727 195.224 C 660.859 195.714 661.325 193.024 660.452 192.514 C 658.636 191.454 655.723 192.604 654.344 191.014 C 652.331 188.604 656.537 185.934 656.065 183.664 C 654.935 178.214 652.867 180.314 651.251 175.394 C 650.845 174.214 651.886 172.694 651.231 171.634 C 650.736 170.834 651.181 173.634 650.605 174.344 C 649.77 175.344 646.49 173.424 647.195 172.344 C 647.898 171.264 650.427 172.894 650.672 171.744 C 650.915 170.594 648.347 170.874 647.742 169.874 C 647.429 169.364 649.124 168.614 648.613 168.304 C 646.235 166.874 644.745 168.754 644.393 168.414 C 644.393 168.414 638.656 161.414 637.276 161.414 C 636.346 161.414 638.715 164.874 638.35 164.014 C 636.872 160.584 635.623 157.014 633.985 153.694 C 633.217 152.144 632.716 150.064 631.142 149.364 C 629.569 148.664 627.742 151.094 626.347 150.254 C 624.953 149.414 625.698 146.624 624.491 145.374 C 623.988 144.864 623.348 146.684 622.667 146.464 C 621.044 145.934 620.124 144.024 618.51 143.464 C 617.509 143.104 614.509 143.164 615.362 143.834 C 616.98 145.174 619.369 145.074 621.373 145.834 C 622.446 146.234 623.896 146.304 624.481 147.274 C 624.925 148.004 623.88 148.864 623.684 149.694 C 623.049 152.624 622.966 155.694 622.021 158.524 C 621.854 159.024 621.693 156.994 621.194 157.184 C 619.198 157.944 617.82 160.044 615.783 160.844 C 615.225 161.064 614.777 159.784 614.208 159.944 C 613.64 160.104 613.828 161.784 613.307 161.494 C 610.91 160.144 609.286 157.704 607.198 155.974 C 606.424 155.354 609.284 157.194 609.209 158.184 C 609.146 159.454 607.761 160.284 606.915 161.184 C 606.676 161.424 606.206 161.354 606.027 161.634 C 604.253 164.564 601.363 171.944 598.265 174.324 C 597.708 174.764 596.908 173.024 596.33 173.424 C 595.752 173.824 597.737 174.624 597.259 175.014 C 595.58 176.127 593.67 176.845 591.67 177.114 C 591.151 177.234 589.668 176.624 590.227 176.524 C 591.006 176.364 592.226 176.224 592.589 176.934 C 592.953 177.644 591.401 177.394 590.893 177.774 C 589.51 178.826 588.181 179.947 586.912 181.134 C 585.229 182.644 584.936 185.734 582.944 187.364 C 581.551 188.524 579.864 189.274 578.391 190.304 C 576.916 191.334 575.944 192.884 574.569 193.984 C 573.196 195.084 571.577 195.364 570.684 196.694 C 570.099 197.634 571.276 199.034 570.702 200.024 C 570.127 201.014 568.976 200.864 568.159 201.374 C 566.016 202.744 564.177 204.654 561.842 205.684 C 560.256 206.364 558.06 205.324 556.656 206.364 C 554.663 207.854 555.052 215.114 555.359 216.454 C 555.749 218.214 557.486 219.584 557.625 221.384 C 557.689 222.124 555.406 219.624 555.62 220.314 C 555.945 221.214 557.695 221.194 557.859 222.144 C 558.552 226.484 555.785 228.844 554.314 232.384 C 554.029 233.37 553.801 234.372 553.63 235.384 C 553.028 237.573 552.304 239.726 551.464 241.834 C 550.724 243.574 548.391 244.964 548.741 246.834 C 549.029 248.304 552.224 247.474 552.802 248.834 C 553.257 249.934 550.365 247.624 549.288 248.124 C 547.203 249.124 542.157 255.404 539.457 255.364 C 531.276 255.234 528.802 239.424 525.556 234.564 C 522.763 230.384 520.29 229.754 518.644 224.864 C 518.075 223.154 518.405 221.224 517.845 219.494 C 517.53 218.494 516.647 217.864 516.112 217.014 C 515.032 215.254 513.944 213.494 513.014 211.654 C 512.943 211.534 513.293 211.454 513.232 211.334 C 512.515 210.004 511.22 208.954 510.792 207.524 C 510.65 207.104 512.085 208.254 512.073 207.814 C 512.061 207.374 511.171 207.454 510.78 207.184 C 508.512 205.644 508.354 202.274 507.211 199.774 C 505.096 195.094 504.477 189.844 503.84 184.774 C 503.726 183.914 504.984 183.384 505.178 182.524 C 505.53 180.864 502.812 181.124 503.17 180.894 C 503.738 180.584 505.224 181.654 505.111 181.024 C 504.782 179.284 503.095 178.084 502.317 176.524 C 501.306 174.524 504.484 172.294 504.282 170.034 C 504.163 168.294 501.368 167.204 501.668 165.484 C 501.93 164.004 504.962 164.484 505.495 163.094 C 507.182 158.684 500.569 158.094 498.873 158.854 C 497.875 159.274 498.444 161.014 497.888 161.854 C 496.152 164.444 494.922 168.054 492.017 169.134 C 489.812 169.954 487.51 167.604 485.453 166.434 C 482.615 164.854 484.616 164.944 483.257 163.384 C 481.516 161.384 478.476 159.534 477.622 156.874 C 477.429 156.274 478.915 157.574 479.484 157.304 C 482.477 155.914 485.035 153.654 487.967 152.094 C 488.366 151.884 487.634 153.294 487.173 153.234 C 483.354 152.897 479.589 152.094 475.961 150.844 C 475.649 150.734 473.266 146.204 473.064 146.084 C 471.71 145.234 469.822 145.574 468.478 144.714 C 468.096 144.484 468.932 143.874 468.85 143.434 C 468.623 141.636 468.074 139.892 467.233 138.284 C 466.457 136.984 464.783 136.414 463.867 135.204 C 462.95 133.994 463.07 132.204 461.966 131.314 C 461.454 130.894 459.967 131.584 460.23 132.184 C 460.575 132.984 461.854 132.824 462.705 132.984 C 462.966 133.044 462.363 132.564 462.103 132.554 C 458.658 132.171 455.193 132.017 451.73 132.094 C 451.34 132.094 451.507 133.254 451.146 133.094 C 449.873 132.574 449.243 130.774 447.882 130.534 C 446.521 130.294 445.339 131.924 443.959 131.854 C 440.108 131.654 436.401 130.204 432.567 129.754 C 432.077 129.694 431.652 130.554 431.211 130.344 C 429.406 129.514 428.098 127.854 426.372 126.874 C 426.102 126.724 425.754 127.144 425.453 127.054 C 423.761 126.534 410.249 122.554 408.007 120.314 C 407.766 120.074 408.004 119.634 407.832 119.314 C 406.583 115.854 407.097 110.794 403.877 108.994 C 400.869 107.304 397.351 111.554 393.89 111.494 C 392.08 111.494 390.592 109.904 389.216 108.734 C 388.573 108.164 388.558 107.104 388.003 106.434 C 386.846 105.004 385.17 103.994 384.113 102.434 C 383.729 101.864 384.325 100.934 383.902 100.434 C 382.352 98.524 379.716 97.564 378.456 95.434 C 377.588 93.984 378.357 92.034 377.968 90.384 C 377.672 89.164 376.676 88.174 376.44 86.944 C 376.286 86.164 377.271 85.314 376.888 84.624 C 375.233 81.724 370.362 74.294 365.024 76.484 C 363.917 76.934 365.907 79.004 365.333 80.044 C 364.937 80.774 362.911 79.544 362.875 80.374 C 362.798 82.794 364.45 84.984 365.092 87.374 C 365.667 89.237 366.089 91.144 366.352 93.074 C 366.356 93.574 365.618 94.074 365.84 94.474 C 366.183 95.154 367.174 95.234 367.727 95.764 C 369.738 97.694 370.244 100.764 371.128 103.384 C 372.062 106.224 370.509 105.564 369.59 107.564 C 369.511 107.734 370.01 107.674 370.061 107.844 C 370.336 108.714 369.605 110.414 370.515 110.534 C 372.427 110.794 374.045 108.534 375.965 108.634 C 376.835 108.684 377.443 110.014 377.307 110.884 C 376.842 113.764 374.806 116.234 374.281 119.124 C 374.194 119.654 375.393 119.494 375.675 119.944 C 376.684 121.564 376.756 123.834 378.153 125.154 C 378.767 125.744 379.8 124.494 380.65 124.644 C 384.033 125.264 388.374 129.054 390.781 126.644 C 391.657 125.764 391.769 124.304 392.765 123.494 C 393.76 122.684 395.449 122.494 396.545 121.644 C 397.272 121.064 397.315 119.864 398.042 119.284 C 398.769 118.704 399.781 119.104 400.399 118.564 C 401.583 117.564 401.924 113.904 403.218 114.804 C 404.513 115.704 401.825 118.044 402.054 119.704 C 402.731 124.318 403.988 128.83 405.796 133.134 C 406.019 133.694 414.562 138.014 414.732 138.134 C 414.903 138.254 414.735 138.724 414.867 138.994 C 416.029 141.374 417.332 143.674 418.594 145.994 C 419.079 146.914 420.313 147.694 420.119 148.694 C 419.145 153.604 415.766 153.744 412.882 156.894 C 412.256 157.584 412.463 158.894 411.725 159.414 C 411.257 159.774 410.554 159.044 409.964 159.104 C 409.154 159.174 408.164 159.194 407.647 159.794 C 406.912 160.644 407.25 162.104 406.575 162.984 C 405.056 164.984 402.792 166.284 401.202 168.204 C 400.02 169.624 399.944 172.134 398.228 172.934 C 396.511 173.734 394.538 171.274 392.963 172.094 C 391.387 172.914 392.306 176.214 390.679 176.874 C 389.052 177.534 387.087 174.754 385.26 175.204 C 381.375 176.204 378.341 179.254 374.659 180.824 C 373.199 181.289 371.686 181.575 370.154 181.674 C 365.498 182.414 360.885 183.674 356.165 183.744 C 354.885 183.744 353.947 182.244 352.687 182.154 C 351.616 182.084 350.753 183.154 349.693 183.324 C 348.531 183.454 347.353 183.363 346.221 183.054 C 344.539 182.654 343.042 181.244 341.323 181.344 C 340.143 181.404 339.571 182.964 338.524 183.484 C 338.325 183.584 338.59 182.894 338.37 182.804 C 338.149 182.714 337.933 183.244 337.683 183.164 C 335.608 182.384 333.265 181.854 331.667 180.314 C 328.652 177.444 331.036 176.314 330.63 173.494 C 329.089 163.764 327.457 154.054 325.476 144.414 C 324.451 139.634 323.695 134.794 322.4 130.084 C 321.686 127.524 318.731 124.704 318.43 122.684 C 316.958 112.914 315.706 103.114 314.334 93.344 C 314.059 92.126 313.882 90.889 313.804 89.644 C 313.8 88.844 314.526 88.124 314.472 87.324 C 314.403 85.694 313.626 84.174 313.447 82.564 C 313.384 81.934 313.9 81.334 313.787 80.724 C 312.756 74.874 310.725 69.214 310.055 63.324 C 309.939 62.404 311.156 61.814 311.542 60.984 C 312.323 59.384 312.914 57.704 313.515 56.044 C 313.653 55.664 314.25 54.914 313.839 54.884 C 312.929 54.804 310.577 60.064 309.875 61.484 C 309.34 62.584 309.188 65.794 308.432 64.844 C 306.871 62.844 306.976 59.974 306.713 57.464 C 306.598 56.464 307.262 55.464 307.307 54.464 C 307.435 52.914 307.345 51.352 307.043 49.824 C 306.95 49.364 306.215 48.484 305.967 48.894" style="fill: url(#radial-gradient-40);"/>
  <path class="cls-44" d="M 746.323 142.024 C 748.329 143.194 751.33 143.444 752.282 145.524 C 753.394 147.834 748.22 158.274 743.026 153.784 C 738.736 150.064 743.578 146.674 745.166 144.374 C 745.611 143.622 745.998 142.836 746.323 142.024 Z" style="fill: url(#radial-gradient-41);"/>
  <path class="cls-45" d="M 809.895 121.784 C 810.749 124.254 811.721 126.694 812.435 129.204 C 814.748 137.204 804.416 140.614 812.925 149.874 C 815.52 152.694 812.481 147.194 817.315 146.144 C 818.863 145.804 821.757 150.354 822.638 152.404 C 822.831 152.894 821.446 152.054 821.324 151.544 C 821.201 151.034 822.626 150.054 822.086 150.134 C 820.977 150.324 820.287 152.134 819.196 151.874 C 817.523 151.434 816.993 147.754 815.366 148.354 C 813.9 148.884 817.517 152.074 816.241 152.964 C 814.966 153.854 813.657 150.344 812.108 150.624 C 810.851 150.854 811.343 153.204 810.377 154.024 C 805.669 158.024 807.121 149.134 806.395 148.024 C 805.8 147.094 807.056 152.024 806.283 151.294 C 804.362 149.344 803.657 146.494 802.454 144.024 C 802.049 143.204 801.025 142.244 801.44 141.444 C 801.797 140.824 803.137 142.764 803.444 142.144 C 803.75 141.524 802.524 132.654 802.5 132.144 C 802.356 129.424 801.075 125.444 803.397 124.024 C 804.016 123.644 804.846 123.784 805.535 123.544 C 807.072 123.034 808.478 122.374 809.895 121.784 Z" style="fill: url(#radial-gradient-42);"/>
  <path class="cls-46" d="M 806.463 157.044 C 808.336 158.295 810.139 159.647 811.865 161.094 C 813.513 162.644 806.463 157.044 806.463 157.044 Z" style="fill: url(#radial-gradient-43);"/>
  <path class="cls-47" d="M 647.759 212.704 C 647.407 214.114 646.675 215.484 646.672 216.944 C 646.677 217.844 647.68 218.494 647.785 219.384 C 647.879 220.114 647.383 220.814 647.226 221.534 C 646.905 223.074 647.455 225.044 646.371 226.204 C 645.794 226.824 644.875 225.064 644.73 224.204 C 644.711 223.284 645.021 222.39 645.607 221.684 C 645.756 221.464 646.368 221.934 646.427 221.684 C 647.122 218.734 647.759 212.704 647.759 212.704 Z" style="fill: url(#radial-gradient-44);"/>
  <path class="cls-48" d="M 380.694 202.224 C 382.867 202.974 385.299 203.224 387.226 204.494 C 387.908 204.944 385.579 205.204 384.798 204.934 C 383.321 204.211 381.94 203.3 380.694 202.224 Z" style="fill: url(#radial-gradient-45);"/>
  <path class="cls-49" d="M 823.464 151.594 C 825.148 152.374 827.02 152.854 828.477 153.964 C 829.23 154.514 830.829 156.344 829.9 156.364 C 827.27 156.374 823.464 151.594 823.464 151.594 Z" style="fill: url(#radial-gradient-46);"/>
  <path class="cls-50" d="M 814.67 162.084 C 815.828 163.574 818.084 164.674 818.143 166.554 C 818.204 168.434 816.16 169.604 814.977 170.974 C 814.788 171.204 815.064 170.394 815.063 170.104 C 814.969 167.434 814.805 164.754 814.67 162.084 Z" style="fill: url(#radial-gradient-47);"/>
  <path class="cls-51" d="M 821.359 163.764 C 819.965 166.874 818.312 169.894 817.168 173.114 C 816.804 174.114 818.569 171.404 819.004 170.424 C 819.963 168.274 821.359 163.764 821.359 163.764 Z" style="fill: url(#radial-gradient-48);"/>
  <path class="cls-52" d="M 803.983 172.074 C 803.846 174.414 804.179 176.834 803.591 179.074 C 803.198 180.524 801.733 181.494 801.14 182.874 C 800.548 184.254 800.726 185.794 800.163 187.164 C 798.818 189.701 797.329 192.158 795.702 194.524 C 795.256 195.174 793.947 197.074 794.232 196.344 C 795.218 193.764 796.686 191.344 797.943 188.874 C 798.101 188.564 798.31 188.284 798.468 187.974 C 799.812 185.164 800.687 182.144 802.072 179.354 C 802.339 178.824 803.138 178.614 803.244 178.024 C 803.4 177.194 802.716 176.354 802.811 175.524 C 803.088 174.338 803.48 173.182 803.983 172.074 Z" style="fill: url(#radial-gradient-49);"/>
  <path class="cls-53" d="M 703.647 -206.766 C 704.99 -206.136 709.04 -204.276 707.656 -204.836 C 703.007 -206.756 698.376 -208.786 693.755 -210.836 C 690.647 -212.216 684.989 -215.736 681.368 -215.936 C 680.848 -215.936 682.373 -215.036 682.155 -214.566 C 681.937 -214.096 681.353 -214.916 680.952 -215.086 C 679.9 -215.469 678.873 -215.917 677.875 -216.426 C 677.694 -216.536 677.872 -216.966 677.702 -217.026 C 666.315 -220.346 654.892 -222.756 643.898 -227.296 C 643.367 -227.506 646.08 -226.736 645.55 -226.916 C 641.047 -228.46 636.46 -229.739 631.809 -230.746" style="fill: url(#radial-gradient-50);"/>
  <path class="cls-54" d="M 555.833 258.444 C 555.83 257.914 555.839 248.254 557.004 247.444 C 558.17 246.634 560.469 248.294 561.052 247.064 C 561.636 245.834 557.286 244.064 558.3 244.744 C 567.271 250.624 558 244.824 565.083 252.804 C 565.455 253.224 566.411 252.424 566.763 252.804 C 567.769 254.084 567.879 255.874 568.697 257.284 C 569.262 258.284 571.074 258.794 570.881 259.904 C 569.766 266.564 563.805 270.084 557.418 265.054 C 555.56 263.704 555.833 258.444 555.833 258.444 Z" style="fill: url(#radial-gradient-51);"/>
  <path class="cls-55" d="M 829.282 164.374 C 830.497 165.294 832.759 165.624 832.917 167.134 C 833.969 176.814 830.301 175.384 829.656 182.004 C 829.457 184.004 829.977 186.004 829.688 187.944 C 829.582 188.744 829.847 186.004 829.156 185.604 C 827.67 184.774 825.487 185.824 824.151 184.794 C 823.046 183.954 823.696 181.964 822.919 180.794 C 822.697 180.454 822.232 181.254 821.984 181.584 C 821.07 182.804 820.689 184.494 819.464 185.414 C 819.056 185.714 818.985 183.574 818.737 184.034 C 817.648 186.034 815.893 192.584 816.691 190.474 C 817.854 187.414 818.738 184.234 819.832 181.134 C 820.373 179.594 820.06 177.134 821.597 176.564 C 825.21 175.174 820.292 186.874 825.03 177.014 C 825.464 176.104 825.198 174.934 825.724 174.074 C 825.941 173.704 826.724 174.144 826.982 173.784 C 828.241 172.29 829.191 170.56 829.775 168.694 C 830.118 167.274 829.44 165.784 829.272 164.354 L 829.282 164.374 Z" style="fill: url(#radial-gradient-52);"/>
  <path class="cls-56" style="fill: url(#radial-gradient-53);"/>
  <path class="cls-57" d="M 784.585 221.194 C 784.853 220.022 785.253 218.885 785.777 217.804 C 786.342 216.914 787.439 216.464 788.095 215.634 C 788.333 215.304 788.24 214.804 788.418 214.434 C 789.298 212.514 790.398 210.704 791.239 208.764 C 792.374 206.104 792.522 201.884 794.324 204.074 C 795.551 205.534 794.346 208.484 795.903 209.544 C 796.906 210.244 797.3 207.224 798.499 206.914 C 800.414 206.324 802.482 206.459 804.311 207.294 C 805.022 207.674 803.849 208.874 803.322 209.464 C 802.049 210.844 799.793 211.384 799.001 213.094 C 798.656 213.864 801.257 214.094 800.87 214.824 C 797.458 221.824 795.101 214.894 793.655 223.094 C 793.538 223.754 794.982 222.574 795.594 222.824 C 796.205 223.074 795.978 223.824 796.3 224.224 C 798.133 226.594 801.832 228.164 802.037 231.144 C 802.177 233.034 798.435 232.474 796.99 233.654 C 796.643 233.944 797.626 234.484 797.468 234.894 C 796.757 236.714 795.224 238.124 794.494 239.954 C 793.764 241.784 794.134 243.664 793.403 245.334 C 792.139 248.244 789.128 250.084 787.513 252.814 C 787.295 253.174 788.637 251.734 788.629 252.154 C 788.58 254.154 786.236 261.064 785.043 262.154 C 783.848 263.244 782.485 264.454 781.211 265.604 C 780.216 266.524 779.488 268.794 778.145 268.414 C 776.974 268.064 778.952 265.834 778.357 264.774 C 777.135 262.634 777.648 266.984 773.842 267.774 C 773.413 267.864 774.224 266.234 773.836 266.424 C 772.668 266.964 765.589 272.804 764.579 272.844 C 763.569 272.884 765.455 270.174 764.566 270.284 C 762.267 270.574 760.578 272.624 758.494 273.614 C 757.785 273.944 756.73 274.814 756.217 274.204 C 755.21 272.974 755.77 270.954 755.032 269.524 C 754.102 267.774 751.927 266.754 751.297 264.864 C 750.951 263.864 752.737 262.954 752.502 261.914 C 752.337 261.214 750.891 261.804 750.497 261.224 C 749.36 259.664 754.214 251.124 755.07 250.414 C 755.587 250.004 755.897 251.814 756.547 251.754 C 758.596 251.524 760.45 250.414 762.366 249.644 C 762.875 249.434 763.544 249.294 763.822 248.804 C 764.812 247.004 763.878 244.424 765.059 242.734 C 767.044 239.904 771.62 239.094 773.454 236.164 C 775.16 233.464 776.815 230.724 778.35 227.934 C 778.727 227.254 778.682 226.344 779.159 225.714 C 779.636 225.084 780.654 224.714 781.29 224.074 C 782.394 222.954 783.176 221.534 784.331 220.464 C 784.66 220.174 783.765 221.284 783.907 221.704 C 784.008 221.994 784.335 221.374 784.585 221.194 Z" style="fill: url(#radial-gradient-54);"/>
  <path class="cls-58" d="M 840.248 204.884 C 839.48 207.194 839.937 210.424 837.955 211.884 C 836.789 212.724 836.292 209.454 835.874 208.084 C 835.132 205.644 836.086 202.604 836.914 200.434 C 837.309 199.434 838.542 196.434 838.429 197.554 C 838.133 200.234 835.746 202.754 836.39 205.364 C 836.697 206.624 838.969 205.064 840.248 204.914 L 840.248 204.884 Z" style="fill: url(#radial-gradient-55);"/>
  <path class="cls-59" d="M 665.325 258.934 C 672.169 259.564 679.07 259.694 685.855 260.834 C 686.556 260.954 686.443 262.274 687.085 262.574 C 689.721 263.784 692.811 263.834 695.369 265.184 C 701.656 268.534 689.213 269.764 702.996 270.284 C 703.756 270.284 701.816 268.574 702.394 268.074 C 702.971 267.574 715.113 271.634 715.357 272.374 C 715.805 273.824 713.008 274.374 712.185 275.654 C 712.006 275.914 712.807 276.024 713.086 275.874 C 714.8 274.874 716.071 273.164 717.887 272.394 C 720.012 271.494 723.535 277.674 723.738 278.164 C 724.274 279.444 722.816 281.634 724.03 282.354 C 725.896 283.464 728.466 281.534 730.539 282.184 C 731.797 282.652 732.696 283.776 732.875 285.104 C 732.98 286.164 731.453 286.774 731.109 287.784 C 731.01 288.044 731.83 287.984 731.781 288.264 C 731.328 291.404 731.206 294.764 729.681 297.544 C 729.245 298.334 727.866 296.544 727.038 296.944 C 725.451 297.624 724.875 300.154 723.156 300.374 C 721.437 300.594 719.867 298.624 718.143 298.064 C 717.583 297.894 716.975 298.344 716.404 298.224 C 711.749 297.224 705.388 295.044 702.047 291.224 C 701.645 290.774 702.221 289.974 701.948 289.444 C 701.076 287.845 699.999 286.365 698.745 285.044 C 697.569 283.663 696.149 282.51 694.556 281.644 C 693.554 281.194 692.11 282.344 691.366 281.584 C 689.847 280.004 689.345 277.674 688.674 275.584 C 688.562 275.214 689.469 274.684 689.128 274.504 C 687.435 273.764 685.637 273.289 683.8 273.094 C 683.36 273.024 682.805 273.764 682.483 273.414 C 681.798 272.624 682.201 271.204 681.466 270.414 C 674.425 262.694 679.308 268.734 674 267.214 C 673.188 266.984 672.673 266.144 671.991 265.714 C 670.286 264.714 668.114 264.324 666.736 262.894 C 665.702 261.924 665.325 258.934 665.325 258.934 Z" style="fill: url(#radial-gradient-56);"/>
  <path class="cls-60" d="M 834.797 215.904 C 834.678 216.124 834.41 216.544 834.41 216.544 C 834.41 216.544 834.678 216.124 834.797 215.904 Z" style="fill: url(#radial-gradient-57);"/>
  <path class="cls-61" d="M 801.909 259.434 C 800.992 260.054 799.184 262.434 799.118 261.324 C 798.973 258.564 801.811 256.174 801.606 253.414 C 801.184 247.544 796.067 255.534 798.846 249.694 C 799.697 247.914 801.149 246.454 801.879 244.624 C 802.284 243.624 801.867 242.374 802.202 241.334 C 802.708 239.834 803.457 238.429 804.42 237.174 C 804.599 236.954 804.824 238.114 804.893 237.844 C 805.815 234.364 804.85 229.634 807.758 227.424 C 808.047 227.194 808.591 228.024 808.759 227.724 C 809.623 226.584 809.595 224.924 810.458 223.784 C 812.176 221.544 815.838 221.984 818.342 220.664 C 819.978 219.759 821.46 218.601 822.733 217.234 C 824.812 215.064 825.334 211.774 827.202 209.434 C 827.391 209.194 828.133 209.554 828.044 209.854 C 826.538 214.434 824.889 218.154 821.184 221.034 C 818.874 222.844 808.841 228.034 807.235 230.764 C 806.244 232.324 805.145 234.434 805.893 236.114 C 806.451 237.354 808.731 237.514 809.898 236.844 C 811.373 236.004 811.251 233.674 812.394 232.414 C 813.537 231.154 815.473 230.214 816.976 229.064 C 817.972 228.304 818.666 227.064 819.874 226.714 C 820.463 226.554 819.581 227.954 819.223 228.454 C 817.015 231.724 814.55 234.814 811.852 237.694 C 811.484 238.064 810.103 237.814 810.405 238.224 C 812.562 241.324 816.785 240.154 814.775 245.604 C 814.252 247.014 812.625 247.734 811.431 248.604 C 810.783 249.094 809.74 250.344 809.226 249.704 C 807.938 248.064 809.32 244.784 807.535 243.704 C 806.32 242.954 805.455 245.704 804.832 247.034 C 804.693 247.344 805.644 247.424 805.605 247.754 C 805.279 251.353 804.602 254.91 803.582 258.374 C 803.385 259.014 801.909 259.434 801.909 259.434 Z" style="fill: url(#radial-gradient-58);"/>
  <path class="cls-62" d="M 732.472 277.164 C 732.483 279.244 733.898 281.954 732.396 283.394 C 731.231 284.524 728.684 283.014 727.836 281.624 C 726.716 279.774 732.472 277.164 732.472 277.164 Z" style="fill: url(#radial-gradient-59);"/>
  <path class="cls-63" d="M 835.528 221.974 C 837.21 220.314 838.791 218.544 840.562 216.974 C 841.279 216.354 843.309 214.604 842.964 215.464 C 842.619 216.324 836.754 222.904 836.008 223.804 C 835.264 224.704 834.266 227.074 834.02 226.084 C 833.633 224.664 835.528 221.974 835.528 221.974 Z" style="fill: url(#radial-gradient-60);"/>
  <path class="cls-64" d="M 815.461 245.094 C 814.814 247.315 814.055 249.501 813.186 251.644 C 813.068 251.884 812.287 251.824 812.386 251.574 C 813.289 249.358 814.316 247.194 815.461 245.094 Z" style="fill: url(#radial-gradient-61);"/>
  <path class="cls-65" d="M 860.261 207.374 C 859.387 208.534 859.042 211.184 857.629 210.844 C 856.217 210.504 858.696 208.374 859.05 207.094 C 859.049 206.964 858.819 206.974 858.709 206.954 C 857.259 206.588 855.77 206.396 854.276 206.384 C 853.357 206.474 852.346 208.444 851.832 207.684 C 851.077 206.584 852.519 205.084 852.471 203.764 C 852.468 203.174 851.947 204.764 851.75 205.354 C 850.873 207.794 849.867 212.354 848.697 212.274 C 847.527 212.194 847.147 210.424 847.312 209.364 C 847.476 208.304 848.982 207.674 849.638 206.684 C 851.106 204.464 852.082 201.934 853.41 199.624 C 853.168 200.168 852.879 200.69 852.548 201.184 C 852.022 201.944 848.106 208.334 845.514 206.184 C 844.45 205.304 846.23 203.514 846.844 202.284 C 847.328 201.284 848.225 200.584 848.83 199.654 C 849.057 199.264 851.738 191.794 854.808 195.424 C 856.085 196.924 851.618 201.264 855.3 201.604 C 855.73 201.604 857.025 198.714 857.637 197.144 C 858.248 195.574 862.62 184.724 863.425 183.564 C 864.228 182.404 865.667 182.234 866.563 181.314 C 866.861 181.024 874.676 168.844 873.773 172.084" style="fill: url(#radial-gradient-62);"/>
  <path class="cls-66" d="M 869.228 186.124 C 867.362 190.644 865.276 195.184 863.591 199.754 C 863.482 200.034 864.325 198.814 864.227 199.104 C 863.13 201.965 861.806 204.734 860.271 207.384" style="fill: url(#radial-gradient-63);"/>
  <path class="cls-67" d="M 848.161 216.874 C 847.668 218.014 847.474 219.344 846.68 220.314 C 845.885 221.284 847.519 218.144 847.972 217.094 C 848.025 217.012 848.089 216.938 848.161 216.874 Z" style="fill: url(#radial-gradient-64);"/>
  <path class="cls-68" d="M 874.5 169.634 C 874.608 169.274 874.706 168.914 874.804 168.564" style="fill: url(#radial-gradient-65);"/>
  <path class="cls-69" d="M 767.415 285.004 C 769.409 284.004 772.278 280.114 773.318 282.004 C 774.358 283.894 769.925 285.004 767.929 285.944 C 767.6 286.164 767.415 285.004 767.415 285.004 Z" style="fill: url(#radial-gradient-66);"/>
  <path class="cls-70" d="M 750.896 296.584 C 745.546 298.584 738.069 302.874 732.209 302.804 C 731.509 302.804 733.768 300.894 733.058 300.884 C 730.558 300.884 727.16 304.884 725.819 302.804 C 722.793 298.074 734.327 296.804 735.485 296.384 C 736.033 296.164 736.219 295.384 736.728 295.134 C 741.553 292.284 747.716 292.824 753.231 291.824 C 753.551 291.774 753.942 292.024 754.231 291.824 C 755.634 290.664 756.555 288.974 758.03 287.894 C 758.279 287.704 758.194 288.774 758.494 288.714 C 763.139 287.814 767.631 286.294 772.205 285.164 C 772.785 285.014 774.391 284.434 773.974 284.864 C 768.628 290.103 762.083 293.96 754.903 296.104 C 753.58 296.351 752.242 296.511 750.896 296.584 Z" style="fill: url(#radial-gradient-67);"/>
  <path class="cls-71" d="M 841.611 229.924 L 838.89 235.464 L 841.611 229.924 Z" style="fill: url(#radial-gradient-68);"/>
  <path class="cls-72" d="M 858.265 208.154 C 857.664 209.774 857.203 211.444 856.491 213.024 C 856.056 213.964 854.681 216.704 854.856 215.674 C 855.314 214.004 855.977 212.399 856.83 210.894 C 857.275 209.964 858.265 208.154 858.265 208.154 Z" style="fill: url(#radial-gradient-69);"/>
  <path class="cls-73" d="M 814.539 259.564 L 814.98 259.784 L 814.539 259.564 Z" style="fill: url(#radial-gradient-70);"/>
  <path class="cls-74" d="M 799.796 270.374 C 802.379 268.904 805.162 267.744 807.532 265.964 C 808.898 264.964 809.356 262.904 810.863 262.134 C 812.119 261.484 809.325 264.504 808.38 265.544 C 807.218 266.733 805.985 267.852 804.689 268.894 C 803.693 269.794 798.156 274.104 797.515 273.894 C 796.154 273.594 799.796 270.374 799.796 270.374 Z" style="fill: url(#radial-gradient-71);"/>
  <path class="cls-75" d="M 786.355 279.654 C 787.906 279.045 789.416 278.337 790.874 277.534 C 792.12 276.714 792.952 275.314 794.258 274.534 C 794.528 274.394 794.831 275.134 794.643 275.384 C 794.127 276.094 793.208 276.384 792.521 276.914 C 791.385 277.784 784.884 283.074 784.744 283.084 C 783.475 283.224 786.355 279.654 786.355 279.654 Z" style="fill: url(#radial-gradient-72);"/>
  <path class="cls-76" d="M 817.115 260.754 C 814.67 263.624 812.276 266.554 809.781 269.394 C 809.214 270.034 810.914 268.094 811.32 267.394 C 811.439 267.184 810.593 267.974 810.692 267.754 C 813.067 263.074 812.128 264.974 813.847 263.044 C 815.567 261.114 816.766 259.044 818.447 257.194 C 820.901 254.484 823.658 252.054 826.285 249.474 C 828.115 247.674 823.106 253.474 821.527 255.534 C 820.107 257.284 817.115 260.754 817.115 260.754 Z" style="fill: url(#radial-gradient-73);"/>
  <path class="cls-77" d="M 793.121 278.784 C 795.365 277.784 797.437 276.124 799.875 275.784 C 800.875 275.654 798.885 277.784 797.998 278.144 C 796.414 278.599 794.771 278.815 793.121 278.784 Z" style="fill: url(#radial-gradient-74);"/>
  <path class="cls-78" d="M 832.239 252.104 L 834.738 247.984 L 832.239 252.104 Z" style="fill: url(#radial-gradient-75);"/>
  <path class="cls-79" d="M 378.628 330.884 C 377.528 328.964 376.405 326.374 374.775 324.574 C 373.4 323.315 372.126 321.951 370.963 320.494 C 370.379 319.634 369.301 318.214 370.057 317.494 C 370.813 316.774 378.14 321.764 378.15 321.754 C 380.008 321.504 383.114 314.904 383.162 314.754 C 383.211 314.604 383.216 315.434 383.427 315.654 C 383.88 316.124 384.581 316.304 385.063 316.764 C 388.761 320.134 389.483 322.284 392.886 326.514 C 393.57 327.374 395.964 328.174 395.148 328.884 C 394.152 329.724 391.525 326.444 391.511 327.714 C 391.472 329.624 394.186 330.514 395.075 332.204 C 395.247 332.524 393.975 332.204 394.077 332.564 C 394.353 333.564 395.476 334.174 395.891 335.134 C 396.306 336.094 396.233 337.484 396.6 338.604 C 397.616 341.664 401.167 343.814 401.344 347.024 C 401.344 347.024 395.218 343.944 395.138 343.914 C 391.429 341.67 387.942 339.075 384.727 336.164 C 383.581 335.164 382.327 334.304 381.192 333.314 C 380.297 332.584 378.628 330.884 378.628 330.884 Z" style="fill: url(#radial-gradient-76);"/>
  <path class="cls-80" d="M 853.506 223.284 C 853.644 223.004 853.783 222.724 853.932 222.444" style="fill: url(#radial-gradient-77);"/>
  <path class="cls-81" d="M 854.089 222.124 L 856.068 218.004 C 856.305 217.514 855.137 219.944 855.365 219.444 C 855.751 218.574 856.196 217.714 856.591 216.844 C 857.411 215.044 858.223 213.234 859.033 211.434 C 859.36 210.605 859.73 209.794 860.14 209.004 C 859.706 210.174 859.152 211.284 858.668 212.424" style="fill: url(#radial-gradient-78);"/>
  <path class="cls-82" d="M 839.171 248.674 C 817.39 283.578 789.049 313.91 755.707 338.004 C 748.972 342.844 742.071 347.394 734.998 351.654 L 734.89 351.754 C 735.806 351.184 736.955 350.894 737.611 350.054 C 738.603 348.764 738.593 346.814 739.747 345.634 C 740.9 344.454 743.059 344.304 744.293 343.064 C 744.851 342.504 744.204 341.374 744.651 340.704 C 745.365 339.644 746.642 339.064 747.548 338.184 C 751.268 334.674 743.759 340.404 751.772 333.434 C 752.17 333.084 750.581 335.114 751.039 334.844 C 752.405 334.034 753.398 332.714 754.643 331.734 C 758.348 328.824 762.18 325.514 766.055 322.824 C 774.723 316.824 782.551 310.694 789.799 302.934 C 790.665 301.994 791.791 301.304 792.525 300.294 C 793.002 299.654 792.958 298.724 793.433 298.074 C 794.784 296.284 796.366 294.684 797.877 293.074 C 802.699 287.794 802.464 290.714 807.616 283.464 C 807.765 283.254 806.688 283.874 806.827 283.654 C 809.225 280.071 811.957 276.723 814.984 273.654 C 815.888 272.654 817.203 269.824 817.88 270.964 C 818.727 272.394 816.176 273.964 816.145 275.604 C 816.149 276.604 817.276 274.034 817.842 273.234 C 818.431 272.305 819.096 271.425 819.827 270.604 C 821.041 269.404 822.818 268.764 823.81 267.404 C 825.051 265.764 825.019 263.404 826.221 261.724 C 828.434 258.624 829.621 256.344 832.053 252.834 C 833.155 251.264 836.279 248.194 836.714 247.444 C 836.992 246.984 836.168 246.294 836.486 245.854 C 837.16 244.854 838.479 244.554 839.345 243.734 C 840.877 242.274 845.827 234.734 846.814 234.154 C 848.548 233.244 845.012 237.594 844.041 239.284 C 842.277 242.364 838.57 244.894 838.67 248.444 L 839.171 248.674 Z" style="fill: url(#radial-gradient-79);"/>
  <path class="cls-83" d="M 305.987 48.894 C 305.591 49.524 306.215 50.384 306.269 51.144 C 307.468 69.684 308.776 88.234 309.755 106.804 C 309.761 107.684 309.305 108.524 309.35 109.404 C 309.437 110.864 310.125 112.254 310.152 113.724 C 310.154 113.984 309.449 113.194 309.401 113.454 C 309.262 114.612 309.299 115.785 309.51 116.934 C 310.099 122.534 310.57 128.154 311.539 133.704 C 311.683 134.544 312.716 135.044 312.86 135.874 C 313.892 141.634 314.262 147.504 315.144 153.294 C 315.186 154.421 315.482 155.525 316.01 156.524 C 317.633 158.864 320.202 160.454 321.774 162.814 C 322.852 164.454 322.973 166.534 323.803 168.304 C 330.104 181.584 320.842 156.864 329.861 179.184 C 330.458 180.674 331.808 182.384 331.136 183.834 C 330.582 185.004 327.014 183.374 327.32 184.634 C 327.32 184.724 335.563 196.634 338.206 196.994 C 339.507 197.184 340.82 195.894 342.082 196.264 C 343.343 196.634 343.974 198.674 345.366 199.014 C 346.759 199.354 348.361 197.944 349.862 198.224 C 352.645 198.724 355.025 200.544 357.738 201.304 C 361.364 202.304 366.097 201.044 368.62 205.234 C 369.538 206.744 367.909 208.824 368.457 210.504 C 368.682 211.204 370.817 210.504 370.582 211.224 C 369.212 215.054 366.69 218.394 364.457 221.784 C 364.17 222.234 363.369 222.154 363.102 222.604 C 361.536 225.134 361.242 228.254 359.986 230.924 C 357.811 235.534 352.713 241.604 347.845 243.684 C 334.634 249.304 354.069 233.404 333.226 249.814 C 332.281 250.554 333.083 252.884 331.915 253.164 C 330.746 253.444 328.991 252.414 328.296 253.394 C 324.385 258.894 330.917 266.784 332.447 270.624 C 332.762 271.414 332.377 272.384 332.721 273.174 C 333.687 275.002 334.747 276.777 335.9 278.494 C 336.661 280.134 337.513 281.73 338.455 283.274 C 339.865 285.164 342.251 286.274 343.392 288.364 C 348.32 297.274 338.519 282.144 345.77 293.694 C 346.285 294.534 347.088 295.174 347.563 296.044 C 347.633 296.184 347.112 295.964 347.083 296.114 C 346.607 298.614 347.713 301.714 346.124 303.684 C 345.289 304.684 344.005 301.984 342.772 301.454 C 342.201 301.194 343.656 302.334 344.089 302.794 C 344.522 303.254 345.005 303.894 345.487 304.404 C 346.281 305.224 347.116 305.994 347.92 306.794 C 351.026 309.894 354.023 312.894 357.288 315.794 L 357.286 315.434 C 320.825 282.812 292.327 242.266 274.005 196.944 C 268.781 184.065 264.456 170.843 261.064 157.374 C 259.808 152.374 258.801 147.234 257.554 142.184 C 251.176 116.184 246.555 72.854 251.852 46.094 C 253.167 39.424 253.804 36.914 255.03 28.544 C 259.882 -2.556 269.503 -32.696 283.554 -60.816 L 283.886 -60.246 C 284.016 -58.466 285.175 -56.896 285.543 -55.156 C 285.77 -54.08 285.825 -52.977 285.711 -51.886 C 285.636 -51.026 284.909 -50.276 285.004 -49.426 C 285.329 -47.633 285.848 -45.879 286.552 -44.196 C 287.02 -42.776 288.406 -41.466 288.144 -39.986 C 287.883 -38.506 285.967 -37.556 285.095 -36.176 C 284.761 -35.497 284.517 -34.778 284.366 -34.036 C 283.933 -32.716 283.861 -31.226 283.097 -30.036 C 282.334 -28.846 280.607 -28.166 279.735 -26.896 C 278.186 -24.666 277.545 -17.426 277.799 -14.686 C 278.179 -10.926 279.666 -9.636 279.156 -5.946 C 278.069 2.174 273.949 4.054 282.118 13.224 C 283.224 14.474 282.881 10.004 283.452 8.444 C 284.132 6.604 286.186 3.534 289.107 5.444 C 290.561 6.394 290.313 8.684 290.803 10.344 C 291.641 12.969 292.323 15.64 292.845 18.344 C 293.041 19.504 291.858 20.874 292.494 21.854 C 293.501 23.304 295.037 24.304 295.944 25.774 C 298.133 29.324 295.192 30.844 299.7 34.324 C 300.543 34.974 301.695 33.324 302.756 33.504 C 303.382 33.607 304.001 33.751 304.608 33.934" style="fill: url(#radial-gradient-80);"/>
</svg>