<svg id="Layer_1" data-name="Layer 1" xmlns="http://www.w3.org/2000/svg" xmlns:xlink="http://www.w3.org/1999/xlink" viewBox="0 0 1024 1024"><defs><style>.cls-1{fill:#fff;}.cls-2{fill:#212121;}.cls-3{fill:#01673a;}.cls-4{fill:url(#radial-gradient);}.cls-5{fill:url(#radial-gradient-2);}.cls-6{fill:url(#radial-gradient-3);}.cls-7{fill:url(#radial-gradient-4);}.cls-8{fill:url(#radial-gradient-5);}.cls-9{fill:url(#radial-gradient-6);}.cls-10{fill:url(#radial-gradient-7);}.cls-11{fill:url(#radial-gradient-8);}.cls-12{fill:url(#radial-gradient-9);}.cls-13{fill:url(#radial-gradient-10);}.cls-14{fill:url(#radial-gradient-11);}.cls-15{fill:url(#radial-gradient-12);}.cls-16{fill:url(#radial-gradient-13);}.cls-17{fill:url(#radial-gradient-14);}.cls-18{fill:url(#radial-gradient-15);}.cls-19{fill:url(#radial-gradient-16);}.cls-20{fill:url(#radial-gradient-17);}.cls-21{fill:url(#radial-gradient-18);}.cls-22{fill:url(#radial-gradient-19);}.cls-23{fill:url(#radial-gradient-20);}.cls-24{fill:url(#radial-gradient-21);}.cls-25{fill:url(#radial-gradient-22);}.cls-26{fill:url(#radial-gradient-23);}.cls-27{fill:url(#radial-gradient-24);}.cls-28{fill:url(#radial-gradient-25);}.cls-29{fill:url(#radial-gradient-26);}.cls-30{fill:url(#radial-gradient-27);}.cls-31{fill:url(#radial-gradient-28);}.cls-32{fill:url(#radial-gradient-29);}.cls-33{fill:url(#radial-gradient-30);}.cls-34{fill:url(#radial-gradient-31);}.cls-35{fill:url(#radial-gradient-32);}.cls-36{fill:url(#radial-gradient-33);}.cls-37{fill:url(#radial-gradient-34);}.cls-38{fill:url(#radial-gradient-35);}.cls-39{fill:url(#radial-gradient-36);}.cls-40{fill:url(#radial-gradient-37);}.cls-41{fill:url(#radial-gradient-38);}.cls-42{fill:url(#radial-gradient-39);}.cls-43{fill:url(#radial-gradient-40);}.cls-44{fill:url(#radial-gradient-41);}.cls-45{fill:url(#radial-gradient-42);}.cls-46{fill:url(#radial-gradient-43);}.cls-47{fill:url(#radial-gradient-44);}.cls-48{fill:url(#radial-gradient-45);}.cls-49{fill:url(#radial-gradient-46);}.cls-50{fill:url(#radial-gradient-47);}.cls-51{fill:url(#radial-gradient-48);}.cls-52{fill:url(#radial-gradient-49);}.cls-53{fill:url(#radial-gradient-50);}.cls-54{fill:url(#radial-gradient-51);}.cls-55{fill:url(#radial-gradient-52);}.cls-56{fill:url(#radial-gradient-53);}.cls-57{fill:url(#radial-gradient-54);}.cls-58{fill:url(#radial-gradient-55);}.cls-59{fill:url(#radial-gradient-56);}.cls-60{fill:url(#radial-gradient-57);}.cls-61{fill:url(#radial-gradient-58);}.cls-62{fill:url(#radial-gradient-59);}.cls-63{fill:url(#radial-gradient-60);}.cls-64{fill:url(#radial-gradient-61);}.cls-65{fill:url(#radial-gradient-62);}.cls-66{fill:url(#radial-gradient-63);}.cls-67{fill:url(#radial-gradient-64);}.cls-68{fill:url(#radial-gradient-65);}.cls-69{fill:url(#radial-gradient-66);}.cls-70{fill:url(#radial-gradient-67);}.cls-71{fill:url(#radial-gradient-68);}.cls-72{fill:url(#radial-gradient-69);}.cls-73{fill:url(#radial-gradient-70);}.cls-74{fill:url(#radial-gradient-71);}.cls-75{fill:url(#radial-gradient-72);}.cls-76{fill:url(#radial-gradient-73);}.cls-77{fill:url(#radial-gradient-74);}.cls-78{fill:url(#radial-gradient-75);}.cls-79{fill:url(#radial-gradient-76);}.cls-80{fill:url(#radial-gradient-77);}.cls-81{fill:url(#radial-gradient-78);}.cls-82{fill:url(#radial-gradient-79);}.cls-83{fill:url(#radial-gradient-80);}</style><radialGradient id="radial-gradient" cx="182.1" cy="-599.92" r="425.85" gradientTransform="translate(177.75 1179.61) rotate(-2.84) scale(1.33)" gradientUnits="userSpaceOnUse"><stop offset="0" stop-color="#22b573"/><stop offset="0.4" stop-color="#009245"/><stop offset="1" stop-color="#001300"/></radialGradient><radialGradient id="radial-gradient-2" cx="182.2" cy="-600.09" r="425.21" xlink:href="#radial-gradient"/><radialGradient id="radial-gradient-3" cx="182.18" cy="-599.97" r="425.58" xlink:href="#radial-gradient"/><radialGradient id="radial-gradient-4" cx="182.22" cy="-600.01" r="425.38" xlink:href="#radial-gradient"/><radialGradient id="radial-gradient-5" cx="182.17" cy="-600.13" r="425.29" xlink:href="#radial-gradient"/><radialGradient id="radial-gradient-6" cx="182.2" cy="-600.04" r="425.38" xlink:href="#radial-gradient"/><radialGradient id="radial-gradient-7" cx="182.19" cy="-600.06" r="425.38" xlink:href="#radial-gradient"/><radialGradient id="radial-gradient-8" cx="182.2" cy="-600.05" r="425.34" xlink:href="#radial-gradient"/><radialGradient id="radial-gradient-9" cx="182.26" cy="-599.97" r="425.33" xlink:href="#radial-gradient"/><radialGradient id="radial-gradient-10" cx="183.12" cy="-600.05" r="423.43" xlink:href="#radial-gradient"/><radialGradient id="radial-gradient-11" cx="182.12" cy="-599.98" r="425.62" xlink:href="#radial-gradient"/><radialGradient id="radial-gradient-12" cx="182.26" cy="-600.11" r="425.15" xlink:href="#radial-gradient"/><radialGradient id="radial-gradient-13" cx="182.17" cy="-600.05" r="425.45" xlink:href="#radial-gradient"/><radialGradient id="radial-gradient-14" cx="182.2" cy="-600.34" r="424.24" xlink:href="#radial-gradient"/><radialGradient id="radial-gradient-15" cx="182.2" cy="-600.04" r="425.39" xlink:href="#radial-gradient"/><radialGradient id="radial-gradient-16" cx="182.19" cy="-600.14" r="425.31" xlink:href="#radial-gradient"/><radialGradient id="radial-gradient-17" cx="198.19" cy="-686.63" r="0.25" xlink:href="#radial-gradient"/><radialGradient id="radial-gradient-18" cx="182.21" cy="-600.34" r="424.4" xlink:href="#radial-gradient"/><radialGradient id="radial-gradient-19" cx="182.15" cy="-600.24" r="424.8" xlink:href="#radial-gradient"/><radialGradient id="radial-gradient-20" cx="182.2" cy="-600.23" r="424.48" xlink:href="#radial-gradient"/><radialGradient id="radial-gradient-21" cx="182.19" cy="-600.05" r="425.35" xlink:href="#radial-gradient"/><radialGradient id="radial-gradient-22" cx="182.22" cy="-600.07" r="425.28" xlink:href="#radial-gradient"/><radialGradient id="radial-gradient-23" cx="182.21" cy="-600.08" r="425.24" xlink:href="#radial-gradient"/><radialGradient id="radial-gradient-24" cx="182.21" cy="-600.02" r="425.52" xlink:href="#radial-gradient"/><radialGradient id="radial-gradient-25" cx="182.22" cy="-600.05" r="425.41" xlink:href="#radial-gradient"/><radialGradient id="radial-gradient-26" cx="182.18" cy="-600.04" r="425.3" xlink:href="#radial-gradient"/><radialGradient id="radial-gradient-27" cx="182.22" cy="-600.07" r="425.4" xlink:href="#radial-gradient"/><radialGradient id="radial-gradient-28" cx="182.15" cy="-600.05" r="425.46" xlink:href="#radial-gradient"/><radialGradient id="radial-gradient-29" cx="182.12" cy="-600.01" r="425.02" xlink:href="#radial-gradient"/><radialGradient id="radial-gradient-30" cx="182.11" cy="-600.04" r="425.52" xlink:href="#radial-gradient"/><radialGradient id="radial-gradient-31" cx="182.22" cy="-600.04" r="425.45" xlink:href="#radial-gradient"/><radialGradient id="radial-gradient-32" cx="182.41" cy="-600.05" r="426.25" xlink:href="#radial-gradient"/><radialGradient id="radial-gradient-33" cx="182.2" cy="-600.04" r="425.38" xlink:href="#radial-gradient"/><radialGradient id="radial-gradient-34" cx="182.17" cy="-600.04" r="425.25" xlink:href="#radial-gradient"/><radialGradient id="radial-gradient-35" cx="182.18" cy="-600.03" r="425.26" xlink:href="#radial-gradient"/><radialGradient id="radial-gradient-36" cx="182.23" cy="-600.05" r="425.33" xlink:href="#radial-gradient"/><radialGradient id="radial-gradient-37" cx="182.06" cy="-600.04" r="425.58" xlink:href="#radial-gradient"/><radialGradient id="radial-gradient-38" cx="182.32" cy="-600.02" r="425.2" xlink:href="#radial-gradient"/><radialGradient id="radial-gradient-39" cx="182.72" cy="-600.14" r="424.88" xlink:href="#radial-gradient"/><radialGradient id="radial-gradient-40" cx="182.2" cy="-600.05" r="425.37" xlink:href="#radial-gradient"/><radialGradient id="radial-gradient-41" cx="182.31" cy="-600.07" r="425.26" xlink:href="#radial-gradient"/><radialGradient id="radial-gradient-42" cx="182.14" cy="-600.05" r="425.44" xlink:href="#radial-gradient"/><radialGradient id="radial-gradient-43" cx="182.11" cy="-600.07" r="425.49" xlink:href="#radial-gradient"/><radialGradient id="radial-gradient-44" cx="182.4" cy="-600.05" r="425.2" xlink:href="#radial-gradient"/><radialGradient id="radial-gradient-45" cx="182.3" cy="-599.82" r="424.95" xlink:href="#radial-gradient"/><radialGradient id="radial-gradient-46" cx="182.16" cy="-600.04" r="425.42" xlink:href="#radial-gradient"/><radialGradient id="radial-gradient-47" cx="182.22" cy="-600.13" r="425.41" xlink:href="#radial-gradient"/><radialGradient id="radial-gradient-48" cx="182.65" cy="-599.92" r="424.81" xlink:href="#radial-gradient"/><radialGradient id="radial-gradient-49" cx="182.21" cy="-600.02" r="425.35" xlink:href="#radial-gradient"/><radialGradient id="radial-gradient-50" cx="182.2" cy="-600.04" r="425.38" xlink:href="#radial-gradient"/><radialGradient id="radial-gradient-51" cx="182.18" cy="-600" r="425.31" xlink:href="#radial-gradient"/><radialGradient id="radial-gradient-52" cx="182.24" cy="-600.01" r="425.31" xlink:href="#radial-gradient"/><radialGradient id="radial-gradient-53" cx="453.89" cy="-390.92" r="0.32" xlink:href="#radial-gradient"/><radialGradient id="radial-gradient-54" cx="182.21" cy="-600.04" r="425.35" xlink:href="#radial-gradient"/><radialGradient id="radial-gradient-55" cx="181.99" cy="-600.13" r="425.62" xlink:href="#radial-gradient"/><radialGradient id="radial-gradient-56" cx="182.21" cy="-600.02" r="425.34" xlink:href="#radial-gradient"/><radialGradient id="radial-gradient-57" cx="182.46" cy="-599.79" r="424.94" xlink:href="#radial-gradient"/><radialGradient id="radial-gradient-58" cx="182.25" cy="-600.07" r="425.35" xlink:href="#radial-gradient"/><radialGradient id="radial-gradient-59" cx="182.36" cy="-599.99" r="425.2" xlink:href="#radial-gradient"/><radialGradient id="radial-gradient-60" cx="182.19" cy="-600.16" r="425.46" xlink:href="#radial-gradient"/><radialGradient id="radial-gradient-61" cx="182.47" cy="-600.07" r="425.16" xlink:href="#radial-gradient"/><radialGradient id="radial-gradient-62" cx="182.23" cy="-600.06" r="425.35" xlink:href="#radial-gradient"/><radialGradient id="radial-gradient-63" cx="182.42" cy="-600" r="425.13" xlink:href="#radial-gradient"/><radialGradient id="radial-gradient-64" cx="181.36" cy="-600.16" r="426.22" xlink:href="#radial-gradient"/><radialGradient id="radial-gradient-65" cx="178.64" cy="-600.74" r="429.28" xlink:href="#radial-gradient"/><radialGradient id="radial-gradient-66" cx="182.41" cy="-600.14" r="425.29" xlink:href="#radial-gradient"/><radialGradient id="radial-gradient-67" cx="182.2" cy="-600.09" r="425.41" xlink:href="#radial-gradient"/><radialGradient id="radial-gradient-68" cx="182.16" cy="-599.9" r="425.3" xlink:href="#radial-gradient"/><radialGradient id="radial-gradient-69" cx="182.23" cy="-599.99" r="425.31" xlink:href="#radial-gradient"/><radialGradient id="radial-gradient-70" cx="182.97" cy="-608.17" r="431.16" xlink:href="#radial-gradient"/><radialGradient id="radial-gradient-71" cx="182.12" cy="-600" r="425.4" xlink:href="#radial-gradient"/><radialGradient id="radial-gradient-72" cx="182.23" cy="-600.27" r="425.53" xlink:href="#radial-gradient"/><radialGradient id="radial-gradient-73" cx="182.04" cy="-600.08" r="425.53" xlink:href="#radial-gradient"/><radialGradient id="radial-gradient-74" cx="182.46" cy="-600.34" r="425.4" xlink:href="#radial-gradient"/><radialGradient id="radial-gradient-75" cx="182.95" cy="-600.28" r="424.92" xlink:href="#radial-gradient"/><radialGradient id="radial-gradient-76" cx="182.2" cy="-600.04" r="425.37" xlink:href="#radial-gradient"/><radialGradient id="radial-gradient-77" cx="180.25" cy="-600.62" r="427.51" xlink:href="#radial-gradient"/><radialGradient id="radial-gradient-78" cx="182.1" cy="-600.08" r="425.49" xlink:href="#radial-gradient"/><radialGradient id="radial-gradient-79" cx="182.2" cy="-600.05" r="425.38" xlink:href="#radial-gradient"/><radialGradient id="radial-gradient-80" cx="182.2" cy="-600.04" r="425.37" xlink:href="#radial-gradient"/></defs><title>Earth 03</title><rect class="cls-1" width="1024" height="1024"/><rect class="cls-2" y="975" width="1024" height="49"/><path class="cls-1" d="M353.93,989.68h3.52a10.52,10.52,0,0,1,6.83,2.17A7.43,7.43,0,0,1,367,998a7.71,7.71,0,0,1-2.68,6.33,10.6,10.6,0,0,1-6.92,2.19h-3.45Zm2.12,15h.74a14.69,14.69,0,0,0,3.11-.32,7.15,7.15,0,0,0,2.56-1.1,5.72,5.72,0,0,0,1.75-2,6.58,6.58,0,0,0,.65-3.07,6.86,6.86,0,0,0-.64-3.1,4.93,4.93,0,0,0-1.79-2,8.47,8.47,0,0,0-2.54-1.08,13.4,13.4,0,0,0-3.1-.33h-.74Z"/><path fill ="white" class="cls-1" d="M370.09,1001.65a3.94,3.94,0,0,0,.9,2.45,2.88,2.88,0,0,0,2.28,1,3.1,3.1,0,0,0,1.81-.5,5.07,5.07,0,0,0,1.34-1.54l1.72,1a5.52,5.52,0,0,1-4.89,2.86,4.84,4.84,0,0,1-3.79-1.57,5.75,5.75,0,0,1-1.4-3.93,6.13,6.13,0,0,1,1.33-4.08,4.69,4.69,0,0,1,3.81-1.56,4.43,4.43,0,0,1,3.68,1.56,6.21,6.21,0,0,1,1.26,4v.31Zm6-1.52a3.13,3.13,0,0,0-.94-1.91,2.77,2.77,0,0,0-2-.71,3.24,3.24,0,0,0-1.09.19,2.76,2.76,0,0,0-.9.55,3.19,3.19,0,0,0-.66.84,3.1,3.1,0,0,0-.34,1Z"/><path class="cls-1" d="M384.11,998.48a1.43,1.43,0,0,0-1.35-.92,1.13,1.13,0,0,0-.77.3,1,1,0,0,0-.08,1.41,3,3,0,0,0,.71.52l.45.21c.11.06.28.14.52.24a1.53,1.53,0,0,0,.32.13l.2.09a5.7,5.7,0,0,1,1.78,1.19,2.46,2.46,0,0,1,.66,1.79,3.2,3.2,0,0,1-1.09,2.48,3.53,3.53,0,0,1-2.54,1,4.09,4.09,0,0,1-1.17-.17,4,4,0,0,1-1.06-.47,3.7,3.7,0,0,1-.85-.73,3.22,3.22,0,0,1-.57-1l1.73-.78a2.19,2.19,0,0,0,1.92,1.34,1.51,1.51,0,0,0,.87-.26,1.56,1.56,0,0,0,.6-.65,1.18,1.18,0,0,0,.08-.85,1.56,1.56,0,0,0-.7-.86l-2-1a7.12,7.12,0,0,1-.9-.54,2.92,2.92,0,0,1-.63-.56,2.28,2.28,0,0,1-.38-.68,2.75,2.75,0,0,1-.12-.86,2.88,2.88,0,0,1,.9-2.15,3.18,3.18,0,0,1,5.09.94Z"/><path class="cls-1" d="M391.39,991.29a1.28,1.28,0,0,1-.4,1,1.44,1.44,0,0,1-2,0,1.28,1.28,0,0,1-.41-1,1.39,1.39,0,0,1,.41-1,1.41,1.41,0,0,1,2,0A1.38,1.38,0,0,1,391.39,991.29Zm-.38,15.26h-2V996.07h2Z"/><path class="cls-1" d="M404.13,1006.35a8,8,0,0,1-1.13,4.59c-.76,1.07-2.09,1.61-4,1.61a5.24,5.24,0,0,1-3.66-1.28,4.59,4.59,0,0,1-1.44-3.47h2a2.78,2.78,0,0,0,.87,2.19,3.34,3.34,0,0,0,2.29.77,2.61,2.61,0,0,0,2.38-1,5.34,5.34,0,0,0,.63-2.84v-2h0a4.52,4.52,0,0,1-1.56,1.46,4,4,0,0,1-2,.53,4.53,4.53,0,0,1-3.7-1.63,6.13,6.13,0,0,1-1.35-4,5.71,5.71,0,0,1,1.37-3.85,4.46,4.46,0,0,1,3.59-1.63,4.16,4.16,0,0,1,3.67,2.1h0v-1.8h2Zm-5.35-1.23a3.08,3.08,0,0,0,2.51-1.1,4.13,4.13,0,0,0,.92-2.7,4,4,0,0,0-.92-2.67,3.1,3.1,0,0,0-2.51-1.09,3,3,0,0,0-2.43,1.12,4,4,0,0,0-.9,2.64,4.09,4.09,0,0,0,.9,2.68A3,3,0,0,0,398.78,1005.12Z"/><path class="cls-1" d="M408.79,997.49h0a3,3,0,0,1,1.3-1.28,4,4,0,0,1,1.87-.44,4.59,4.59,0,0,1,1.76.3,2.93,2.93,0,0,1,1.16.91,3.56,3.56,0,0,1,.63,1.42,8.42,8.42,0,0,1,.2,1.91v6.24h-2v-6a4.38,4.38,0,0,0-.45-2.26,2,2,0,0,0-1.87-.73,3.18,3.18,0,0,0-.88.1,1.74,1.74,0,0,0-.63.29,2.37,2.37,0,0,0-.46.43,4.7,4.7,0,0,0-.33.55,2,2,0,0,0-.13.39c0,.17-.07.34-.1.51a4.34,4.34,0,0,0-.07.52c0,.17,0,.31,0,.4v5.8h-2V996.07h2Z"/><path class="cls-1" d="M424.91,987.13h2v10.69H427a4.26,4.26,0,0,1,3.68-2.05,4.46,4.46,0,0,1,3.58,1.63,5.71,5.71,0,0,1,1.37,3.85,6.13,6.13,0,0,1-1.35,4,4.53,4.53,0,0,1-3.7,1.63,3.93,3.93,0,0,1-2-.53,4.47,4.47,0,0,1-1.57-1.46h-.05v1.63h-2Zm5.25,18a3.06,3.06,0,0,0,2.5-1.1,4.08,4.08,0,0,0,.92-2.7,4,4,0,0,0-.92-2.67,3.08,3.08,0,0,0-2.5-1.09,3,3,0,0,0-2.44,1.12,4,4,0,0,0-.9,2.64,4.09,4.09,0,0,0,.9,2.68A3,3,0,0,0,430.16,1005.12Z"/><path class="cls-1" d="M435.9,996.07h2.37l3.56,6.65,3.31-6.65h2.28l-8.54,16.48h-2.3l4.15-7.79Z"/><path class="cls-1" d="M457.66,1002.32l-1.94,4.23h-2.28L461.56,989l8.11,17.58H467.4l-1.94-4.23Zm3.9-8.75-3,6.83h6.05Z"/><path class="cls-1" d="M473,1006.55h-2V987.13h2Z"/><path class="cls-1" d="M478,1006.55h-2V987.13h2Z"/><path class="cls-1" d="M485.7,998.54v1.68h-4.94v-1.68Z"/><path class="cls-1" d="M493.58,989.16a4,4,0,0,0-1.34-.42,1.06,1.06,0,0,0-.95.41,2.6,2.6,0,0,0-.41,1c0,.3-.07.53-.08.71s0,.41,0,.7v4.49h2.79V998h-2.79v8.59h-2V998h-.92v-1.89h.92V991q0-4.12,3.41-4.12a3.76,3.76,0,0,1,1.41.27Z"/><path class="cls-1" d="M496.72,997.78h.06a3.29,3.29,0,0,1,1.13-1.47,2.92,2.92,0,0,1,1.76-.54,3.18,3.18,0,0,1,1.67.51l-.93,1.84a1.78,1.78,0,0,0-1.24-.43,2,2,0,0,0-2.07,1.25,5.71,5.71,0,0,0-.31,1.16,10,10,0,0,0-.07,1.31v5.14h-2V996.07h2Z"/><path class="cls-1" d="M503.68,1001.65a3.94,3.94,0,0,0,.9,2.45,2.88,2.88,0,0,0,2.28,1,3.13,3.13,0,0,0,1.82-.5,5.35,5.35,0,0,0,1.34-1.54l1.71,1a5.52,5.52,0,0,1-4.89,2.86,4.85,4.85,0,0,1-3.79-1.57,5.75,5.75,0,0,1-1.4-3.93,6.13,6.13,0,0,1,1.34-4.08,4.68,4.68,0,0,1,3.8-1.56,4.42,4.42,0,0,1,3.68,1.56,6.21,6.21,0,0,1,1.26,4v.31Zm6-1.52a3.08,3.08,0,0,0-.94-1.91,2.77,2.77,0,0,0-2-.71,3.24,3.24,0,0,0-1.09.19,2.76,2.76,0,0,0-.9.55,3.15,3.15,0,0,0-.65.84,3.38,3.38,0,0,0-.36,1Z"/><path class="cls-1" d="M514.68,1001.65a4,4,0,0,0,.91,2.45,2.85,2.85,0,0,0,2.27,1,3.07,3.07,0,0,0,1.81-.5,5.09,5.09,0,0,0,1.35-1.54l1.71,1a5.56,5.56,0,0,1-2,2.1,5.5,5.5,0,0,1-2.85.76,4.85,4.85,0,0,1-3.79-1.57,5.74,5.74,0,0,1-1.39-3.93,6.17,6.17,0,0,1,1.32-4.08,4.71,4.71,0,0,1,3.82-1.56,4.41,4.41,0,0,1,3.67,1.56,6.21,6.21,0,0,1,1.26,4v.31Zm6-1.52a3.12,3.12,0,0,0-.93-1.91,2.8,2.8,0,0,0-2-.71,3.26,3.26,0,0,0-1.1.19,2.76,2.76,0,0,0-.9.55,3.19,3.19,0,0,0-.66.84,3.36,3.36,0,0,0-.35,1Z"/><path class="cls-1" d="M529.29,998.54v1.68h-4.93v-1.68Z"/><path class="cls-1" d="M539.82,1004.92h-.05a4.47,4.47,0,0,1-1.57,1.46,3.93,3.93,0,0,1-2,.53,4.53,4.53,0,0,1-3.7-1.63,6.13,6.13,0,0,1-1.35-4,5.66,5.66,0,0,1,1.37-3.85,4.46,4.46,0,0,1,3.58-1.63,4.26,4.26,0,0,1,3.68,2.05h.05V987.13h2v19.42h-2Zm-3.32.2a3.06,3.06,0,0,0,2.5-1.1,4.08,4.08,0,0,0,.93-2.7,4,4,0,0,0-.93-2.67,3.08,3.08,0,0,0-2.5-1.09,3,3,0,0,0-2.43,1.12,4,4,0,0,0-.91,2.64,4,4,0,0,0,.91,2.68A3,3,0,0,0,536.5,1005.12Z"/><path class="cls-1" d="M545.15,997.37a5.59,5.59,0,0,1,4-1.6,5.5,5.5,0,0,1,4,1.6,5.61,5.61,0,0,1,0,7.93,5.43,5.43,0,0,1-4,1.61,5.51,5.51,0,0,1-4-1.61,5.69,5.69,0,0,1,0-7.93Zm.41,4a3.66,3.66,0,0,0,1.06,2.57,3.39,3.39,0,0,0,2.55,1.08,3.46,3.46,0,0,0,2.55-1.08,3.66,3.66,0,0,0,1.06-2.57,3.59,3.59,0,0,0-1.06-2.57,3.46,3.46,0,0,0-2.55-1.08,3.39,3.39,0,0,0-2.55,1.08A3.59,3.59,0,0,0,545.56,1001.34Z"/><path class="cls-1" d="M560.26,1002.75l3.1-7.25,3.1,7.25,3.06-6.68h2.3l-5.36,10.84-3.1-7-3.1,7-5.36-10.84h2.3Z"/><path class="cls-1" d="M574.87,997.49h0a3,3,0,0,1,1.31-1.28,3.94,3.94,0,0,1,1.87-.44,4.54,4.54,0,0,1,1.75.3A2.93,2.93,0,0,1,581,997a3.57,3.57,0,0,1,.64,1.42,8.46,8.46,0,0,1,.19,1.91v6.24h-2v-6a4.38,4.38,0,0,0-.45-2.26,2,2,0,0,0-1.88-.73,3.15,3.15,0,0,0-.87.1,1.82,1.82,0,0,0-.63.29,2.06,2.06,0,0,0-.45.43,3,3,0,0,0-.34.55,2,2,0,0,0-.12.39c0,.17-.07.34-.11.51s-.05.34-.07.52,0,.31,0,.4v5.8h-2V996.07h2Z"/><path class="cls-1" d="M586.74,1006.55h-2V987.13h2Z"/><path class="cls-1" d="M590.3,997.37a5.59,5.59,0,0,1,4-1.6,5.48,5.48,0,0,1,4,1.6,5.59,5.59,0,0,1,0,7.93,5.41,5.41,0,0,1-4,1.61,5.51,5.51,0,0,1-4-1.61,5.66,5.66,0,0,1,0-7.93Zm.41,4a3.66,3.66,0,0,0,1.06,2.57,3.54,3.54,0,0,0,5.09,0,3.62,3.62,0,0,0,1.06-2.57,3.55,3.55,0,0,0-1.06-2.57,3.54,3.54,0,0,0-5.09,0A3.59,3.59,0,0,0,590.71,1001.34Z"/><path class="cls-1" d="M611.69,1006.55h-2v-1.63h0a4.14,4.14,0,0,1-3.59,2,4.61,4.61,0,0,1-3.7-1.63,6.18,6.18,0,0,1-1.34-4,5.66,5.66,0,0,1,1.37-3.85,4.49,4.49,0,0,1,3.61-1.63,4.24,4.24,0,0,1,3.65,2.05h0v-1.75h2Zm-5.34-1.43a3.06,3.06,0,0,0,2.5-1.1,4.08,4.08,0,0,0,.92-2.7,4,4,0,0,0-.92-2.67,3.08,3.08,0,0,0-2.5-1.09,3,3,0,0,0-2.43,1.12,4,4,0,0,0-.9,2.64,4.09,4.09,0,0,0,.9,2.68A3,3,0,0,0,606.35,1005.12Z"/><path class="cls-1" d="M622.2,1004.92h-.05a4.52,4.52,0,0,1-1.56,1.46,4,4,0,0,1-2,.53,4.49,4.49,0,0,1-3.68-1.63,6.09,6.09,0,0,1-1.36-4,5.71,5.71,0,0,1,1.37-3.85,4.46,4.46,0,0,1,3.59-1.63,4.25,4.25,0,0,1,3.67,2.05h.05V987.13h2v19.42h-2Zm-3.32.2a3.06,3.06,0,0,0,2.5-1.1,4.08,4.08,0,0,0,.93-2.7,4,4,0,0,0-.93-2.67,3.08,3.08,0,0,0-2.5-1.09,3,3,0,0,0-2.43,1.12,4,4,0,0,0-.91,2.64,4.1,4.1,0,0,0,.91,2.68A3,3,0,0,0,618.88,1005.12Z"/><path class="cls-1" d="M630,1005.61a1.26,1.26,0,0,1-.38.92,1.28,1.28,0,0,1-.93.38,1.26,1.26,0,0,1-.92-.38,1.26,1.26,0,0,1,0-1.82,1.21,1.21,0,0,1,.92-.4,1.23,1.23,0,0,1,.93.4A1.25,1.25,0,0,1,630,1005.61Z"/><path class="cls-1" d="M641.13,999.06a3.94,3.94,0,0,0-3-1.42,3.31,3.31,0,0,0-2.5,1.1,3.72,3.72,0,0,0-1,2.58,3.61,3.61,0,0,0,1,2.66,3.57,3.57,0,0,0,2.63,1,3.81,3.81,0,0,0,2.89-1.39v2.57a6,6,0,0,1-2.91.7,5.6,5.6,0,0,1-4-1.59,5.17,5.17,0,0,1-1.65-3.91,5.42,5.42,0,0,1,1.65-4,5.69,5.69,0,0,1,4.12-1.6,5.31,5.31,0,0,1,2.8.69Z"/><path class="cls-1" d="M644,997.37a5.59,5.59,0,0,1,4-1.6,5.5,5.5,0,0,1,4,1.6,5.61,5.61,0,0,1,0,7.93,5.43,5.43,0,0,1-4,1.61,5.51,5.51,0,0,1-4-1.61,5.66,5.66,0,0,1,0-7.93Zm.41,4a3.62,3.62,0,0,0,1.06,2.57A3.39,3.39,0,0,0,648,1005a3.43,3.43,0,0,0,2.54-1.08,3.62,3.62,0,0,0,1.06-2.57,3.55,3.55,0,0,0-1.06-2.57,3.43,3.43,0,0,0-2.54-1.08,3.39,3.39,0,0,0-2.55,1.08A3.55,3.55,0,0,0,644.4,1001.34Z"/><path class="cls-1" d="M657.45,997.4h0a3.57,3.57,0,0,1,1.21-1.17,2.87,2.87,0,0,1,1.58-.46,3.35,3.35,0,0,1,3.05,1.85,3.7,3.7,0,0,1,1.37-1.35,3.59,3.59,0,0,1,1.87-.5c2.34,0,3.5,1.5,3.5,4.52v6.26h-2v-5.93c0-.27,0-.53,0-.79a3.77,3.77,0,0,0-.13-.76,2.75,2.75,0,0,0-.27-.69,1.87,1.87,0,0,0-.5-.56,1.79,1.79,0,0,0-1-.26,2.06,2.06,0,0,0-1.08.26,2,2,0,0,0-.67.62,3,3,0,0,0-.37.93,7.47,7.47,0,0,0-.17,1c0,.3,0,.65,0,1v5.14h-2V1001c0-.35,0-.65,0-.89a6.7,6.7,0,0,0-.14-.9,2.3,2.3,0,0,0-.29-.85,1.86,1.86,0,0,0-.56-.56,1.74,1.74,0,0,0-.93-.24,1.88,1.88,0,0,0-2,1.34,5.61,5.61,0,0,0-.27,1.19,10.11,10.11,0,0,0-.07,1.32v5.14h-2V996.07h2Z"/><path class="cls-1" d="M306.65,1000.37h28.71a.67.67,0,0,0,0-1.33H306.65a.67.67,0,0,0,0,1.33Z"/><path class="cls-1" d="M688.64,1000.37h28.71a.67.67,0,0,0,0-1.33H688.64a.67.67,0,0,0,0,1.33Z"/><path class="cls-3" d="M830.14,496.08c8.73,175.65-126.58,325.11-302.23,333.83S202.81,703.32,194.09,527.67,320.67,202.58,496.31,193.85,821.42,320.45,830.14,496.08Z"/><path class="cls-4" d="M507.89,233.09c1.08.11,4.34.21,3.25.32a19.37,19.37,0,0,1-3.29-.31S507.89,233.09,507.89,233.09Z"/><path class="cls-5" d="M445.35,226.22c-2.29.86-4.54,3.3-6.89,2.59-1.46-.44.79-3.46,2.22-4S445.35,226.22,445.35,226.22Z"/><path class="cls-6" d="M480.72,200c-3.72.7-7.4,1.73-11.18,2.12-.34,0-.66-.72-.39-.93s5.41-3.28,7.08-3.13c1,.1,1.77,1.05,2.77,1.21.66.09,1.28-.36,1.93-.5,2-.42,3.89-.95,5.86-1.17.42-.05-1.24.26-1.07.64.25.6,2.37.72,1.74.88-1.83.45-3.79-.17-5.66.08C481.35,199.24,481.08,199.72,480.72,200Z"/><path class="cls-7" d="M518.83,234.43c-.54.57-.89,1.39-1.6,1.71-.39.16-.75-.39-1.15-.48-1.85-.46-5,.59-5.57-1.21-.52-1.58,2.66-2.52,4.33-2.53S518.83,234.43,518.83,234.43Z"/><path class="cls-8" d="M521.57,238.58c2.06-1,4-2.14,6.16-3,.21-.08-.07.55-.28.65C525.55,237.17,523.53,237.8,521.57,238.58Z"/><path class="cls-9" d="M434.51,223.92a15.37,15.37,0,0,0,3.15,1.06c.69.08,1.52-.92,2-.45s-.74.87-1.16,1.26c-1.21,1.14-2.21,2.62-3.73,3.33-1,.45-2.14-.3-3.18-.06-3.06.68-6,1.87-9,2.78-1.06.33-4,1.67-3.18.94a24,24,0,0,1,7.33-4.66c1.2-.44,2.84,1.29,3.81.45s-2.55-.07-3.17-1c-.39-.59,1.41-.35,2.05-.67C431.2,226,434.51,223.92,434.51,223.92Z"/><path class="cls-10" d="M581.31,233.52c-3-1-6.19-1.32-8.87-2.9-1.4-.82,3.26.82,4.86.54,1.43-.24,2.39-2.06,3.85-2a2.56,2.56,0,0,1,2.25,2.18C583.44,232.33,581.31,233.52,581.31,233.52Z"/><path class="cls-11" d="M454.59,251.64c7-5.29,12.05-6.15,20.91-4.68.83.14-1.6.51-2.41.71-4.3,1.12-8.7,1.87-12.93,3.24-.28.09.41.72.15.89a20.71,20.71,0,0,1-5.58,2.7c-.38.11-.43-.85-.83-.86-2.44,0-4.85.7-7.29.72-1.53,0,3.07-.2,4.51-.69A19.91,19.91,0,0,0,454.59,251.64Z"/><path class="cls-12" d="M571.05,247.6c2-1.7,6.23-7.51,8.25.34.3,1.19-2.42-.43-3.65-.48C574.11,247.39,571.05,247.6,571.05,247.6Z"/><path class="cls-13" d="M579.34,247.41c.09-1.09.17-2.2.28-3.29a9.77,9.77,0,0,1,0,1.14C579.52,246,579.42,246.7,579.34,247.41Z"/><path class="cls-14" d="M532.3,194.94l-5.74-.34"/><path class="cls-15" d="M543.52,195.81c-15.36-1.24,9.63,1-11.22-.87"/><path class="cls-16" d="M436.15,261.81c6.36-3.84,7.34-7.39,13.43-4.32.49.23-1.2-.1-1.63.23-1.68,1.32-3.84,2.53-4.49,4.55-.58,1.81,1.46,3.69,1.24,5.58-.08.62-1.28,0-1.9-.07-2-.37-4.5,0-6-1.35-1.15-1-.41-3.09-.61-4.62Z"/><path class="cls-17" d="M378.5,224.14l2.7-1.52"/><path class="cls-18" d="M410.4,211.1c5.79-1.87,6.68-2.2,12.2-3.84.62-.18-1.25.4-1.87.6-1.55.49-6.19,1.88-4.63,1.48,4-1,7.79-2.63,11.78-3.52,4.71-1,9.43-2,14.16-2.91,1.82-.37,3.68-.59,5.5-1,3.49-.73,6.93-1.71,10.44-2.38,1.95-.37,4.18-1.71,5.91-.73,1.48.85-3.36.76-5,1.25-.92.27,1.85-.39,3.4-.74.49-.11,1.12-.58,1.48-.24s-.81.9-.48,1.16c1.22,1,4.59.33,4.28,1.85s-3.49-.41-4.76.56,5.32-1.24,4.31-.21c-2,2.08-5.61,2-7.87,3.84-1.31,1,3.37-2.17,4.84-1.37,1.05.57-1.44,2-2.44,2.67-1.17.79-2.52,1.74-3.93,1.61-.66-.06.78-1.87.13-2-11.79-1.74-3.69,5.12-12.66,6.56-1.56.25-2.85-1.67-4.41-1.67-.78,0-.88,1.49-1.63,1.65-.54.12-.76-1.1-1.29-1-6.41,1.1-12.56,3.5-19,4.49-.65.11,1.57-1.3,1-1.7a30,30,0,0,0-3.6,1.28c-1.92.69-3.84,1.41-5.79,2-1.75.56-3.44,1.65-5.28,1.55-.89,0,2.45-.92,2.06-1.73s-1.77.27-2.62.57c-1.5.56-4.27,3.61-4.41,2-.16-1.87,3.05-2.25,4.27-3.68.45-.52-1.25.59-1.87.86-3.19,1.43-6.35,2.9-9.57,4.24-2.68,1.13-5.42,2.1-8.13,3.11-.19.07.21-.34.38-.46a15.2,15.2,0,0,1,2.28-1.41c1.31-.61,2.74-1,4.05-1.56.94-.45,1.74-1.15,2.66-1.62,1.41-.7,5.76-2.62,4.35-1.9a38.74,38.74,0,0,1-6.86,3.18c-.48.14-.76-1.06-1.21-.85-2.74,1.3-4.77,3.86-7.58,5-1,.43-3.87.44-3.3-.52,1.12-2,4.21-1.93,5.7-3.62.92-1-2.56,1.14-3.89,1.54a25.78,25.78,0,0,1-3,.54"/><path class="cls-19" d="M614.2,219.22c-1.87-.88-5.6-2.68-5.6-2.68s3.73,1.8,5.6,2.68Z"/><path class="cls-20" d="M395.31,254.17l.95,0-.95,0Z"/><path class="cls-21" d="M421,207.73l-5.63,1.74"/><path class="cls-22" d="M417.15,208.9l3.83-1.17"/><path class="cls-23" d="M373.49,255.38a6.46,6.46,0,0,1,1.44-.62C375,254.74,373.08,256.74,373.49,255.38Z"/><path class="cls-24" d="M351.8,240.15c2.46-1.54,4.78-3.3,7.37-4.61.24-.13.36.69.6.56,1.1-.57,1.77-1.76,2.86-2.35s3.48-2,3.17-.94c-.8,2.63-7,2.27-7.94,4.43-.42,1,2.84-.33,3.19.7s-1.65,1-2.46,1.54c-1.52,1-3,2.17-4.52,3.13C353.12,243.21,351.8,240.15,351.8,240.15Z"/><path class="cls-25" d="M356.13,292l-2.17,1.2,2.17-1.2Z"/><path class="cls-26" d="M316.78,301.51c-2,1.4-3.8,3-5.87,4.21-.66.39.95-1.22,1.58-1.67C313.84,303.08,316.78,301.51,316.78,301.51Z"/><path class="cls-27" d="M306.73,301.74c-1.77,1.4-3.25,3.28-5.31,4.2-.61.27-.19-1.58.34-2A20.73,20.73,0,0,1,306.73,301.74Z"/><path class="cls-28" d="M316,271.44c-1.89,1.6-4.12,2.85-5.66,4.79-.51.64.45,1.84-.09,2.44-1.25,1.39-3.1,2.09-4.76,2.94-.7.35-1.69.11-2.26.64s-.47,1.63-.94,2.32c-.7,1-5.81,5.74-6.16,6.13-1.58,1.76-3.28,3.77-4.77,5.7-1.69,2.19-3,4.74-5,6.65-1.19,1.16-3,1.41-4.37,2.36-1.13.78-1.69,3.06-3,2.76-1.1-.24.52-2.23,1.12-3.19,1.06-1.7,2.76-2.94,3.77-4.66,3.59-6.05-9.09,2.3,5.58-7.48.44-.3.91,1,1.38.76,1.54-.78,2.58-2.3,3.87-3.45s2.67-1.91,3.59-3.23c.41-.6-.29-1.57.13-2.16.75-1,7-3.41,6.37-4.92s-5.26,3.43-4.05,2.43c.3-.25,8.39-6.3,9.61-7.13C312.24,273.88,316,271.44,316,271.44Z"/><path class="cls-29" d="M295.56,286.18s-7.39,6.88-8.1,7-1.07-1.25-.77-1.85a10.92,10.92,0,0,1,3.54-3.65c.24-.18.46.66.71.52,2.65-1.44,2.23-2.62,4.13-4.56.55-.56,3.53-4,5.28-2.23C302,283,295.56,286.18,295.56,286.18Z"/><path class="cls-30" d="M289.39,305.52c-1.05,1.13-1.62,3.14-3.14,3.4S289.39,305.52,289.39,305.52Z"/><path class="cls-31" d="M699.19,310.25c-1.06-2-2.22-4-3.16-6.09-.23-.54.68,1,1.09,1.42,1.55,1.69,3.89,2.43,5.64,3.91a33.08,33.08,0,0,1,2.28,2.58c1.24,1.26,2.49,2.55,3.85,3.68.37.3,1.08.33,1.5.67,1.72,1.44,3.4,2.93,5.17,4.32s8.83,5.73,8.83,6.36c0,1.86-3.71-1.9-5.43-1.21-1,.39,1.14,1.8,1.75,2.68a55.39,55.39,0,0,0,4.41,6.29c.52.56,7.62,4.79,7.78,5.22.59,1.59,1.29,4.26-.19,5.08-1,.52-8.61-10.32-8.92-10.64-1.22-1.24-2.82-2.06-4-3.33a49.32,49.32,0,0,1-3.2-4.36c-1.47-1.93-2.7-2.49-4.66-4.61-.89-1-1.41-2.27-2.41-3.1-1.35-1.13-3.07-1.74-4.55-2.69-.13-.08-.15-.28-.24-.39C702.89,314.09,699.19,310.25,699.19,310.25Z"/><path class="cls-32" d="M262,356.17c-.25.26-.78.77-.78.77s.53-.51.78-.77Z"/><path class="cls-33" d="M734.12,347.36c2.86,1.3,5.54,3.09,8.57,3.91,1.83.5,4.06-1,5.72,0,1,.57.76,2.36.49,3.5a37.83,37.83,0,0,1-3.17,8c-.49,1-1.82,1.57-2.1,2.66-.17.73.59,1.39.93,2,.84,1.62,1.9,3.13,2.65,4.8.49,1.09-1.1-2.15-1.88-3.07s-2.36-1.63-3-2.85c-.53-1-.06-2.26-.29-3.37-.5-2.39-.81-4.9-2-7.07a37.22,37.22,0,0,0-2.49-3.73C736.45,350.55,734.12,347.36,734.12,347.36Z"/><path class="cls-34" d="M244.24,366.78c-1,1.91-2,3.85-3.11,5.74a31.59,31.59,0,0,1-3,4.87c-.37.44-1.77,1.14-1.63.59.55-2,2-3.7,3-5.56s1.4-3.67,2.65-5.15C242.58,366.72,244.24,366.78,244.24,366.78Z"/><path class="cls-35" d="M259.22,409.35c-.37.71-.42,1.74-1.11,2.15-.39.22-.47-.88-.33-1.3C258.65,407.32,258.9,408.52,259.22,409.35Z"/><path class="cls-36" d="M749.19,370.22c2.67,2.74,6.35,5.18,8.62,8.29a23.21,23.21,0,0,1,3.73,8.09c.15.64-.61,1.22-.59,1.87,0,.48.44.86.7,1.26.72,1.1,2.75,3.45,3.41,5.26.58,1.57.8,3.3,1.63,4.76.57,1,1.93,1.44,2.43,2.48,3.2,6.76-2.23,5.92-6.06,12.47-.51.87.5,2,.46,3-.11,2.7,1.1,6.23-.9,8.06-1.43,1.31-.27-4.45-1.89-5.5-1-.69-2.14,1.4-2.72,2.47-1.85,3.41-2,10.2-6.61,12.12-1,.43-1.25-2-1.24-3.1,0-.53,1.08-.49,1.28-1s-.33-1.26-.14-1.85c1.19-3.9,2.23-7.92,4.21-11.49.73-1.33,4.07-1.08,3.76-2.56-.92-4.43-3.76-8.51-3.79-13,0-1.78,3-2.22,3.68-3.87.39-1-.76-2-.92-3.05s.21-2.17-.09-3.19c-.92-3.07-2.56-7.5-4.75-10.41-1-1.39-2.47-2.5-3.31-4-.31-.56.08-1.28,0-1.91C749.87,373.62,749.5,371.92,749.19,370.22Z"/><path class="cls-37" d="M239.29,394.68l-5.22,7.58,5.22-7.58Z"/><path class="cls-38" d="M269.57,446.88c-2.09,1.16-10.39,8.7-8.13-.64.16-.64,1.22.59,1.88.64C265.4,447,267.49,446.88,269.57,446.88Z"/><path class="cls-39" d="M760.93,425.7a67.93,67.93,0,0,0-1,8c0,1.28,2,3.07.91,3.74-1.37.83-3.55-.28-4.53-1.54-.71-.92.24-2.35.71-3.41A76.49,76.49,0,0,1,760.93,425.7Z"/><path class="cls-40" d="M757.83,442.13c.7,2.44,2,4.78,2.11,7.31,0,.71-1.09,1.3-1.79,1.16s-.56-1.32-1.1-1.75c-.71-.6-2.13-.36-2.52-1.2-.6-1.34.89-3.27,0-4.39-1.2-1.43-3.59-1.13-5.25-2-.3-.15.88.14,1-.18.78-2.15.46-4.65,1.49-6.69.3-.59.52,1.28,1,1.72.66.61,1.8.63,2.38,1.32A28.8,28.8,0,0,1,757.83,442.13Z"/><path class="cls-41" d="M738.74,513c1.14.63,3.29.61,3.42,1.9.59,6,.55,12.3-1.45,18-.54,1.58-2.78-2-3.63-3.47-1.7-2.92.51-13.95.69-15A4.39,4.39,0,0,1,738.74,513Z"/><path class="cls-42" d="M568.19,582.27,568,583C567.42,586,568.19,582.27,568.19,582.27Z"/><path class="cls-43" d="M248.32,465.6a12.66,12.66,0,0,1,3.94,1.92c.59.44.9,2.63.31,2.19s.21-1.73-.36-2.22c-.36-.32-1,.76-.81,1.2.9,1.93,4.58,5.41,7.18,4.9,2.17-.43,5.44-7.89,6.51-9.44.22-.34,5.69-7.1,6.26-8.23a22.73,22.73,0,0,0,1.68-5c.1-.45-.35-1-.16-1.39,1.2-2.79,3.76-5.07,4.27-8.08.2-1.11-2.05,1.69-3.11,1.31s-.27-2.78-1.31-2.88c-1.42-.15-2.16,2.1-3.56,2.37a5.72,5.72,0,0,1-3.83-.91c-.57-.33-.32-1.35-.81-1.76-2.2-1.83-5-2.83-7.1-4.83-.68-.65-.28-1.89-.7-2.74-.89-1.82-2.53-3.26-3.16-5.18-1.34-4,1.38-1.24,2.18-3a37.32,37.32,0,0,0,2.42-7.89c.14-.68-.62-1.39-.38-2,.19-.47,1.2-.16,1.39-.63,2.54-5.88-5.12-1.75,4.08-9.56.61-.52.75,1.46,1.35,2,1.07.94,2.2,2.6,3.59,2.3,1.78-.39,2-3.72,3.84-3.91s2.47,2.87,4.19,3.06c9.08,1,1.46-7.76,12.45.16.79.56-.61,2-.22,2.88s1.79.63,2.12,1.42c.42,1-.56,2.28-.17,3.3.25.64,1.34.46,1.82.94,1.22,1.26,1.7,3.25,3.18,4.18,1.13.71,2.76-.23,4,.33.92.43,1,1.83,1.87,2.39.38.25.92-.12,1.34-.3,2.3-1,5.13-1.35,6.79-3.22,4.1-4.63,0-8.47-1.46-12.42a77,77,0,0,1-2.54-8.77c-1.7-7.19,4.31-5.79,6.43-9.68.79-1.45-1.56-3.84-.34-5,1.57-1.44,4.6.59,6.37-.61,1-.68-2.16-1.21-3.35-1.45a12.41,12.41,0,0,0-4.34-.07c-.62.1-.92,1.07-1.54,1.05-1,0-1.71-1.19-2.7-1.18-1.44,0-3.23.11-4.18,1.21-.22.25-1.51,9.05-4,8.78-1.71-.19-2.11-2.69-3-4.14-.66-1.06-2.42-2.34-1.67-3.35,1-1.41,3.55-.49,5.1-1.29,2.46-1.28-1.43-2-3.66-4.88-.23-.31.89-.09,1.08-.42a24.05,24.05,0,0,0,2.3-5.25c.4-1.32-.82,2.74-1.82,3.67-.39.37,0-1.66-.53-1.5-2.27.72-4.16,2.32-6.14,3.64-1.28.86-3.63,2.87-3.63,2.87-2.51,2.27-5.1,4.45-7.52,6.8-.62.6-.9,1.49-1.56,2-1.61,1.3-3.91,1.81-5.16,3.44-.8,1-.17,2.61-.45,3.88-.23,1-.92,1.91-1.06,3-.2,1.49,1.33,3.72,0,4.5s-2-2.15-3.33-2.49c-.61-.15-.79,1-1.33,1.31-1.38.76-3.24,2.9-4.36,1.8s1.64-2.71,1.85-4.24a3.79,3.79,0,0,0-.85-3.24c-.91-.84-2.4-.58-3.62-.87-.91-.21-1.88-1-2.73-.61s-1,1.69-1.41,2.58c-.08.18.09.43,0,.59-1.17,2-2.84,3.75-3.76,5.89-.21.5.81,1.06.58,1.56-1,2.24-3,4-4.07,6.17-.82,1.69-1,3.61-1.59,5.41-.22.7-.59,2.81-.79,2.09-.49-1.75.34-3.71-.16-5.46-.12-.43-1.36.67-1.3.23.16-1.35,1.35-2.39,1.73-3.71.31-1.08-.46-2.53.3-3.36s2-.45,2.81,0,.86,3.06,1.63,2.45c3.25-2.64-3-4.17-3-4.91,0-3.42,1.73-6.62,2.58-9.93.45-1.81.48-3.77,1.32-5.44,3.54-7,4-3.37,4.88-7.7s1.84-8.44,2.31-12.74c.1-.74-.82-1.42-.64-2.15.42-1.7,1.69-3.08,2.36-4.71.33-.81.28-1.75.62-2.57.64-1.5,3.34-5,2.68-7.3-.21-.76-1-2-1.69-1.67-3.4,1.51-5,9.32-6,11.92-.72,1.81-2,3.38-2.74,5.17a37,37,0,0,0-2.42,10.14c-.11.77.19,1.63-.14,2.34-1.3,2.92-4,5.12-5.05,8.15-.28.85.38,1.94-.13,2.67a26.73,26.73,0,0,1-5.77,5.91c-.35.26-.44-.95-.2-1.32.9-1.44,2.35-2.47,3.41-3.81.93-1.19,2.74-6.4,2.94-7.07a30.31,30.31,0,0,0,1.21-5c.08-.69-.35-1.4-.23-2.08.62-3.54,1.53-7,2.44-10.49a62.4,62.4,0,0,1,2.32-7c1.36-3.47,3.07.89,3.64-6.1.29-3.44-5.06-5-7.21-4.55-1,.21-1.06,1.89-1.85,2.6-.51.46-1.31.47-1.91.81a14.7,14.7,0,0,0-3.65,2.32c-.65.65-6.88,10.9-8.34,10.89-1.27,0,.5-2.51.74-3.76v0l4.55-8.67c4.31-8.2,9.66-15.8,15.1-23.29.35-.47.73-.92,1.08-1.39,1-1.38,1.85-2.85,2.93-4.15.27-.33,1.24-1.08,1.09-.68-1,2.58-2.72,4.88-3.82,7.42a28.62,28.62,0,0,0-1.43,4.7c-.11.48,7.2-8.17,7.36-8.37.94-1.15,2-2.2,2.85-3.42s1.45-2.62,2.3-3.85c1-1.47,2.4-2.74,3.28-4.31.32-.59,2.86-7.7,4.39-6.85s-.79,3.12-1,4.71c0,.32.32-.58.53-.82.59-.67,1.27-1.26,1.86-1.93.77-.88,2.14-3.89,2.21-2.73.09,1.68-1.58,3-2.12,4.55-.42,1.23,6.61-3.48,7.07-3.71,3.91-1.93-2.68,4.2,1,1.69,2.75-1.87,4.46-5.19,7.46-6.63,1.17-.56,2.29,4.82,4.42,4.36,1.1-.24.79-2.13,1.43-3.05,1.72-2.48,4.85-4.33,6.76-6.7.25-.32,0-.87.31-1.15,1.52-1.55,3-3.27,4.95-4.23.94-.47,2.29.81,3.15.21.61-.43-2.62-.66-2-1,1.66-1,3.82-1.7,5.64-1.1,1.06.33-1.57,1.57-2.52,2.12-.33.19-.88-.26-1.14,0-1,1.09-1.44,2.63-2.4,3.77-2.12,2.53-5.82,3.14-8.48,5.07-.25.17.18.61,0,.87-1.77,3.11-6.16,6-1.76,10.1,1,.95,2.88-.51,4.18,0,1.81.67,2.89,2.73,4.7,3.33,7.37,2.47,9.16-10.53,15-10.73,1.77-.06,2.55,3,4.31,3.08,1.29,0,1.61-2,2.56-2.89S330,306,330.72,305c1.19-1.58,1.06-4.19,2.72-5.25,7-4.47,8,9.65,14.14,2.94,1.16-1.26-.22-3.56-1.2-5-.48-.68-1.8.13-2.5-.35-2.37-1.61-5.05-3.2-6.42-5.7-.5-.93,5-3.73,5-3.75,4.34-3.81-1.65-1.73,5.58-5.81,1.18-.67,2.7-.5,4-1,.5-.21.72-.89,1.21-1.08,1.33-.51,2.82-.47,4.15-1,1.77-.65,3.33-1.85,5.12-2.47,3-1,3.31,3.87,4.73-4.36a1.62,1.62,0,0,0-1.81-1.53c-3,1-5.37,3.45-8.18,5a19.44,19.44,0,0,1-4.36,1.85c-.81.2-1.73-.43-2.5-.11-4.11,1.7-7.84,4.2-11.88,6.08-.21.1-.48-.36-.68-.22a21.82,21.82,0,0,0-4.36,3.77c-.26.31.45.82.27,1.19-.83,1.72-1.35,4.15-3.15,4.8-1.48.54-2.83-2.87-4.23-2.14-1.21.63,1.55,3.13.55,4.07s-3.2-.69-4.69-.21c-.71.24-.49,1.46-1,2-1.16,1.46-6.14,5.26-7.8,6.47-1.22.89-2.51,3-3.86,2.32-1.6-.76-1.08-3.37-1.79-5-.09-.23-.22.89,0,.72a40.79,40.79,0,0,0,2.94-3.49c1.13-1.35,2.12-2.83,3.37-4.06,4.77-4.68,1.93,0,6.17-5.59.38-.49.34-1.24.74-1.7.95-1.08,2.31-1.76,3.26-2.84.53-.58-1.27.89-1.91,1.34-2.72,1.87-4.19,3.28-8.12,3.15-2.37-.08-.57-2.72,2.14-5.58,9.69-10.25-3.4,4.48,9.38-4.89.67-.51-.61-2.14.14-2.54,1.14-.6,2.81,1.14,3.86.39.7-.48-2.12-1.39-1.54-2,1-1.15,3.23-.3,4.49-1.19.82-.59.26-2.26,1.1-2.82a8,8,0,0,1,4.44-.9c.37,0,.41.62.71.85,1.37,1,3.32-.94,5-1.45,4.4-1.38,8.6-3.37,13-4.8a20.14,20.14,0,0,0,2.74-.56c.83-.41,1.25-1.43,2.08-1.85.35-.17.79.32,1.16.21,3.17-.94,6.16-2.42,9.34-3.3.22-.07-.1.71.12.66,3.52-.83,20.63-7.53,26.3-3.8.69.45.25,4.17-.18,4.81-.63.9-2.16.85-2.83,1.72-.51.69,1.89,1,1.77,1.88s-1.83,1.34-1.35,2c.83,1.07,3.12.16,3.88,1.3.85,1.3.22,3.11,0,4.65-.31,2.67-.1,5.64-1.51,7.92-3.09,5-11.87-1.43-13.14-2.56-1.09-1,.24-5-1-4.24-1.59,1-.21,3.81-1,5.47-.59,1.16-8.58,7.56-6.41,9,8.29,5.6,2,.29,6.38-2.89.76-.56.92,1.67,1.51,2.41.8,1,1.48,2.27,2.64,2.81.45.22.76-.65,1-1.06.85-1.39,1-3.35,2.3-4.29,1.63-1.15,3.9-.84,5.79-1.47.94-.31,1.82-1.91,2.62-1.35,1.16.82.07,3.27,1.25,4.06.74.5,1.12-1.37,1.64-2.1a45.67,45.67,0,0,1,2.87-4.24c1.65-1.83,6.36-5.61,9.26-4.49,1,.41-.15,2.54-1.07,3.18-1.52,1-4.72-.44-5.38,1.27-.59,1.54,1.93,3.35,3.57,3.41s1.85-2.51,3.2-3.16c.85-.4,1.9.54,2.8.31,3.38-.91,6-3.66,9.77-3.15,1.13.16,2.51.46,3.14,1.41.36.55-2.5.47-1.86.56a89.92,89.92,0,0,0,14.45,1.36c.68,0,.67-1.28,1.27-1.59.95-.51,2.28-.11,3.15-.75,1.6-1.17-4.41-4.78,2.1-4.41.86,0,10.11,4.2,12.21,5.67,1.08.76,1.58,2.76,2.9,2.69s2.1-1.71,2.31-2.93c.11-.59-1.45.27-1.75-.23-.46-.76.66-2.05,0-2.68s-2.3.51-3-.21c-1.08-1.12,2.42-2.39,3.22-5.29.15-.55-1.43-1-1-1.39,1.22-1.31,3.37-1.35,4.69-2.53,1.86-1.66,3-5.76,4.34-5.43,2.13.52,5,1,5.86,3,.61,1.45-2.78,2-3.16,3.49-.26,1,1.69,1.64,1.6,2.68-.27,3-2.51,5.61-2.62,8.62-.2,5.95,7.11-1.79.24,6.08-.39.44-1.18.22-1.69.54a19.33,19.33,0,0,0-4,3.14c-.21.23.66.61.44.84a3.8,3.8,0,0,1-2.61,1.36c-1.54-.08-2.77-1.62-4.31-1.66-.57,0,.17,1.33.68,1.53,1.6.66,3.44.44,5.11.84.62.15,1.14,1,1.72.8,1.8-.7,7.78-4.54,8.77-7.2.58-1.56-.91-3.73.18-5,4.17-4.73,5.27-1.11,7,.9,1.35,1.55,3.22,6.32,4.17,4.5,2.29-4.3-5.18-7.93-8.1-8-1.5,0-3.1,1.27-4.43.62-3.14-1.56,1.86-3.8,2-5.91.1-1.58-2.24-3-1.63-4.46.72-1.73,3.51-1.61,4.74-3,.73-.84.35-4.31.69-3.25.57,1.78.13,3.74.08,5.62,0,.41-.65,1-.31,1.18.91.53,2.1.2,3.13.48s4,2.25,3.33,1.27c-2.34-3.42-11.33-3.32.67-6.61a3.18,3.18,0,0,1,2,.09c1.6.67,2.83,2.12,4.5,2.63,1.13.34,3.28-1.31,3.53-.16.41,1.87-2.48,3.28-2.44,5.19,0,1.11,1.89,2.89,2.62,2.06,1-1.16.37-3.25-.36-4.62-4.25-7.91-6.16-2.74-5.59-10.16,0-.22.43-.06.65,0,4,.55,7.86,1.8,11.86,1.76.94,0-1.79-1-2.13-1.85-3.19-7.79-.56-3.16,2.53-6.39.35-.36-1.92-.19-1.47-.41,3.53-1.62,7.37-2.49,11-4,.59-.24-2.48.47-1.88.27,2.86-.92,5.67-2.73,8.66-2.47,1.93.17,2.65,3.24,4.56,3.61,1.34.26-1.49-2.31-2.51-3.2-.69-.62-3.32-.78-2.51-1.23,1.57-.87,4.22,1,5.37-.38s-1.89-3.56-.92-4.92c.77-1.09,2.63.43,4,.65,3.55.59,7.11,1.14,10.66,1.77,10.71,1.9,3.74,10.13.46,14.79-.44.63.53-1.53,1.15-2,1.65-1.13,3.8-1.39,5.43-2.53s-.91-3.84,3.56-2.52c1.39.42,2.34,1.72,3.48,2.63.68.54,2.58,2.29,1.94,1.71-1.14-1.06-3.08-1.62-3.47-3.13-.22-.88,1.43-1.21,2.3-1.48,9.63-3,1.26.08,9.75.71,1,.08,1.85-.91,2.87-1.08,2.33-.39,7.75-.51,10.23.22,1.71.5,3,2.21,4.82,2.28.73,0,.72-1.41.56-2.11-.11-.51-1.76-.82-1.26-1,2-.66,6.86,5.4,9,3.05,1.2-1.3-5.22-4.12-4.1-4.91s3,1.39,4.54,1c2.28-.64,4.84-1.82,6-3.92.54-1-2.36-.37-3.37-1-1.53-.9-4.61-1.72-4.07-3.41,2.17-7,8.81,1.35,10.55.79,1.27-.41-1.94-2.57-1.37-3.77.47-1,2.2.09,3.25-.17,7.42-1.83,8.46-4.52,14.19-2.67,1.13.37,2.05,1.26,3.2,1.52.42.09.76-.61,1.19-.55a14,14,0,0,1,2.86,1.14c1.12.44,4.39,1.93,3.37,1.29s-10-2.81-5.12-6.32c1.09-.8,2.93-.18,3.9-1.12.49-.47-1.11-.75-1.75-1-1.78-.59-7.48-.54-6.32-4.9.53-2,5.3-1,6.3-1,.5,0-1.85,0-1.45-.3,2.87-2,6.86,1.52,9.24,1.24,1.78-.21-3.62-.83-5-2-.45-.38.9-1.14,1.46-1,1.91.55,3.43,2,5.22,2.89,2.44,1.22,5.15,1.82,7.63,3,.52.23-1.1-.78-1.63-.54-.86.42-1.89,1.23-1.88,2.19,0,.65,1.31.19,1.9.45a18.59,18.59,0,0,1,4.62,2.4c1.43,1.2,1.91,3.36,3.48,4.38.73.49-1.53-2.24-.7-2.55,4.89-1.85,2.76,1.11,4.64,1.89s4.28,1.11,6.15,2.24c.49.29-2,0-1.65.47s8.39,6.36,9.85,7.48c2,1.58,4,3.3,6.08,4.82.92.67,3.46.79,2.92,1.78s-3.48-2.1-3.37-.94c.24,2.82,2.54,5,3.93,7.51,1,1.84,3.56,2.3,5.25,3.57,6.26,4.66,3.55,3.72,8.94,6.09a33.84,33.84,0,0,1,5.93,3.17c.37.29,1.29,1.33.86,1.15-.87-.37-1.34-1.4-2.22-1.72-.35-.12.08.78.33,1a39.07,39.07,0,0,0,4.66,4.06c1.12.83,2.62,1.08,3.62,2.05,1.3,1.24,1.42,3.39,2.66,4.68a29.4,29.4,0,0,0,3.35,3c.63.49,1.62.58,2.09,1.23s.15,2,.71,2.7c1.8,2.35,9,7.26,9.14,10.89,0,.53-4.72-3.77-5.08-4.05-3.07-2.35-6.47-4.63-9.65-6.83-4.87-3.4-10.13-6.51-14.36-10.75-.73-.73-1.1-1.76-1.86-2.46-1.12-1.06-2.75-1.56-3.71-2.76-.47-.59.09-1.6-.31-2.24-1.49-2.49-9-9.23-11.18-11.27s-3.6-4.29-6.23-5.85c-1.68-1-3.6-1.63-5.14-2.83-.59-.46-1.59-2.54-1-2,2.53,2.54,4.73,5.39,7.1,8.07.93,1,2.49,1.73,2.8,3.08.22,1-1.63-1.25-2.5-1.79-1.28-.79-2.47-2.35-4-2.16-1,.14-1.37,1.9-1,2.82,1.93,4.67,3.17,2.78,5.35,5.18,1.32,1.48,2.14,3.46,3.72,4.65,1.22.92,3.34.32,4.37,1.46,3.53,3.9-5.2,5.3-6.1,6.1-.41.37,1.81.34,1.47.78-.8,1-2.73.71-3.48,1.78-.35.51,1.61.81,1.29,1.34-1.05,1.73-3.2,2.52-4.55,4s4,7.08,4.52,8.29c.78,1.85.65,4,1.4,5.86,3.69,9.3.82-3.4,3.2,6.22.38,1.5-.11,3.33.84,4.55s3,1.3,4.34,2.17c2.19,1.39,3.66,4.34,6.23,4.63,1.3.15-.51-2.7,0-3.92s1.29-2.4,2.45-2.48c15.33-1,2.92,1,5.21,3.7a14,14,0,0,0,4.08,2.74c.56.31,1.42.09,1.83.58.81,1,.91,2.36,1.56,3.44a35.24,35.24,0,0,0,3.56,5.07c.92,1.05,2.3,1.61,3.23,2.64.35.41.17,1.1.5,1.53s1.19.71,1.61,1.25c.81,1,1.26,2.27,2,3.32s1.85,1.71,2.4,2.81c.7,1.44.69,3.16,1.24,4.66,1.66,4.48,4.46,8.5,5.64,13.22.91,3.64,1.31,7.39,2.19,11,.34,1.39,2.05,2.72,1.49,4.05-1.44,3.44-5.44,5.39-6.91,8.82-.65,1.53.75,3.23,1.07,4.86.86,4.52,2,9,2.51,13.59.07.67-.79,1.16-.9,1.84a4.05,4.05,0,0,0,.43,1.51c1.36,4.21,2.37,8.54,4.13,12.59,1.37,3.14,7.47,5.33,9.44,9.35,1.05,2.15,5.06,8.78,3.79,11.31-.28.53-1.34-.67-1.79-.28s.58,1.14.29,1.59c-.52.83-2,.82-2.37,1.73s1.35,1.78.81,2.47c-1.07,1.39-3.19,1.52-4.67,2.49-.39.25,1.56.09,1.36-.33-.52-1.06-1.91-1.45-2.68-2.36-.2-.24.89.55.9.24a8.13,8.13,0,0,0-.7-3.76c-.12-.31-.82.12-1-.18-.37-.63-.1-1.51-.4-2.18-.77-1.64-2.18-2.95-2.77-4.66-.29-.82.79-1.91.26-2.6s-5.4-3.93-7.39-3.78c-1.19.09-2.87,2.34-3.35,1.26-.71-1.64,1.86-3.34,1.65-5.13-.08-.74-1.82.58-2.25,0-2.26-3.32.61-8.76-6.8-6.66-1.15.33-1.07,2.15-1.68,3.18-.94,1.6-2.23,3-2.93,4.71-1.62,4,2.41,2.53-2.25,6.69-.37.33-.79-.66-.93-1.13-1.89-6.35,0-18.88-6-13-2,2-1.13,5.59-1.87,8.35-1,3.56-5.15,5.82-5.73,9.47a5.55,5.55,0,0,0,2.63,5.23c1.37.8,3.27-1.8,4.66-1,.28.15,2.68,9.2,6.43,4.87,1.43-1.64.14-4.88,1.81-6.27,1.15-1,2.87,1.29,4.37,1.13s2.72-2.52,4.23-2.07c1.16.36,1.36,2.53.76,3.59-1.28,2.25-4,3.26-5.75,5.21-.24.26,1-.22,1.07.12s-.12,4-1,4.43c-.51.25-1.75-1.21-1.55-.68,6.13,16.34,4.37,8.07,11.82,19.31.51.77,0,2.05.71,2.66,1.65,1.42,6.79-1.4,6.47,3.62,0,.23-7.59,2.41-7.73,2.4-1.12-.09-1.85-1.88-3-1.64-.9.2,1.14,1.82,2.06,1.84,1.25,0,2.09-1.52,3.31-1.72.39-.06.06.94.42,1.1,2.75,1.19,7,.75,6.71,3.06-.11.81-4.8,8-5.19,8.8-.31.59.58-1.44,1.23-1.56s1.07,1.08,1.74,1c2-.19,4-2.72,5.76-1.74,1.27.7-2.12,2.49-1.87,3.92.16.94,1.76.84,2.71.94.4.05-.64-1-1-.75a2.31,2.31,0,0,0-1.09,2.17c.45,1.94,2.25,3.36,2.81,5.28.67,2.34-3.75,2.26-4,3.52-.43,2.06,0,4.22.19,6.31.13,1.27.79,2.49.81,3.77,0,2.35-3.5,3.87-3.32,6.21.08,1,2.18-1.06,2.88-.39s-.69,1.78-.49,2.66,1.82,1,1.49,1.72-1.27-1.11-1.91-.86-.35,1.23-.58,1.82-.75,1-.69,1.49c.1.81,1.29,1.39,1.1,2.19s-1.64.3-1.85,1,1.29,1.3.92,1.9c-.8,1.3-3,1.32-3.74,2.66-.32.58,1.85,0,1.89.67.05,1-1.28,1.5-1.71,2.36-.66,1.27-.77,2.78-1.53,4s-2.35,1.62-2.8,2.87c-.2.51,1.73.08,1.54.6a14.21,14.21,0,0,1-3.92,5.58c-.55.46-1.64-.88-2.12-.34s1.56,1,1.12,1.43c-.91.86-2.56.33-3.65,1s-1.48,2.58-2.76,2.73c-1.76.2-3.25-1.52-5-1.84-.42-.08.73.64.69,1-.12,1.06-1.09,2-1.11,3s.93,2.26,1,3.46c0,.43-.58-1.3-.85-1-.47.59.31,1.68-.19,2.25a33.31,33.31,0,0,1-6.5,5.63c-1.94,1.36-5.34.95-6.77,3.29,0,.07-.7,9.15-.92,9-2.29-1.64-1.71-5.55-3.61-7.62-.56-.62-1.26,1.53-2.1,1.39-1.05-.19-1.31-2.37-2.36-2.16-1.79.35-2.85,2.27-4.25,3.45-1,.84-2.3,1.46-3,2.6-.39.64.64,1.75.09,2.25-1.08,1-3.18.29-4.12,1.39-.51.59,1.46,1.23,1.23,2-2.29,7.45-3.92,3.68-4.79,9.31-.72,4.67-.92,5.7,3.17,8.49.57.38,1.6-.28,2.09.22.84.87.56,2.46,1.37,3.37s2.41,1.32,3.53,2.12c1.64,1.14,2.91,2.85,4.72,3.68.93.44,2.21-.63,3.09-.11a15.36,15.36,0,0,1,4.21,4.5c.17.24-.47.52-.4.82.59,2.55,2.57,4.6,3.43,7.09a41.84,41.84,0,0,1,1.44,5.84c1.53,8-2.76,9.34-6.84,15.33-.3.45-.12,1.15-.5,1.55a20.81,20.81,0,0,1-4.25,3.58,2.41,2.41,0,0,1-1.7.1c-.53-.1-.93-.88-1.45-.71s-.46,1-.83,1.44c-1.38,1.59-3.88,2.51-4.4,4.57-.32,1.26,2.82,1.74,2.5,3-.39,1.57-2.82,1.65-3.94,2.81-.69.71-.67,1.92-1.3,2.68a8.27,8.27,0,0,1-2.69,2.12c-.39.19.8-.71.67-1.14-.92-3.11-1.72-6.43-3.68-9-.76-1-2.57-.26-3.71-.8s-1.53-1.59-2.45-2.17c-5-3.12-3-.36-8-4.1-.7-.52-.95-1.5-1.66-2-.34-.26-.92,0-1.3-.17-2.07-1.17-3.66-3.32-6-3.91-1.1-.29-6.11.92-6.66,3.07-.14.56,1.16.78,1.1,1.35-1.74,14.62-5.27,10.46-.12,23.89a38.74,38.74,0,0,0,2.62,4.59,5.37,5.37,0,0,1,.36.72c.78,1.94,1.89,3.8,2.28,5.86.07.4-1.46.47-1.07.59,6.05,1.8,15.92.9,19.45,7.85,1.8,3.54-2.3,6.34-.16,10.29,1.61,3,7.28-2.05,5.08,6.1-.48,1.75-3.06,2.11-4.82,2.56-.44.12-.41-1-.87-1.09-1.31-.38-2.74,0-4.07-.34-.38-.08-.52-.65-.91-.76-2.58-.75-5.5-.5-7.88-1.77-.7-.38.46-1.66.13-2.38a11.72,11.72,0,0,0-2.76-3.33c-.53-.51-1.65-.42-1.92-1.11s.87-1.43.63-2.13-1.69-1-1.95-1.81c-2.78-8.83,5-2-5.28-11.85-.36-.34-.88,1-1.29.74-1.08-.71-1.15-2.54-2.32-3.09-1.59-.76-4.13.85-5.23-.51-2.11-2.61,2.13-12.38,2.44-13.75.21-1-.56,3.24-1.31,2.61-4.24-3.62,3-5.85,1.66-11.28-.19-.76-1.78,0-2.27-.62-.37-.47.21-1.18.44-1.72.1-.26.61-.4.51-.66-1.08-3-2.72-5.81-3.9-8.79-.29-.74-.17-1.6-.53-2.31-.82-1.65-2.09-3.05-3-4.68-1.73-3.17-2.57-6.76-3.85-10.13-.49-1.31-.41-2.83-1.17-4-.59-.91-1.94-2.68-2.66-1.86-1.12,1.28.41,3.51-.18,5.11a3.18,3.18,0,0,1-2.41,2c-.76.09-1.19-2-1.73-1.48-5.8,5.94.06,5.28-5.3,8.24-.87.49-.39-2.2-1.26-2.71-1.81-1.06-4.73.09-6.1-1.5-2-2.41,2.22-5.08,1.76-7.35-1.1-5.45-3.18-3.35-4.77-8.27-.4-1.18.65-2.7,0-3.76-.49-.8-.06,2-.64,2.71-.84,1-4.11-.92-3.4-2s3.23.55,3.48-.6-2.32-.87-2.92-1.87c-.31-.51,1.39-1.26.88-1.57-2.37-1.43-3.87.45-4.22.11,0,0-5.7-7-7.08-7-.93,0,1.42,3.46,1.06,2.6-1.46-3.43-2.69-7-4.31-10.32-.76-1.55-1.25-3.63-2.82-4.33s-3.41,1.73-4.8.89-.63-3.63-1.83-4.88c-.5-.51-1.15,1.31-1.83,1.09-1.62-.53-2.53-2.44-4.14-3-1-.36-4-.3-3.15.37,1.61,1.34,4,1.24,6,2,1.07.4,2.52.47,3.1,1.44.44.73-.61,1.59-.81,2.42-.65,2.93-.75,6-1.71,8.83-.17.5-.32-1.53-.82-1.34-2,.76-3.39,2.86-5.43,3.66-.56.22-1-1.06-1.57-.9s-.39,1.84-.91,1.55c-2.39-1.35-4-3.79-6.08-5.52-.77-.62,2.08,1.22,2,2.21-.07,1.27-1.46,2.1-2.31,3-.24.24-.71.17-.89.45-1.79,2.93-4.72,10.31-7.83,12.69-.56.44-1.35-1.3-1.93-.9s1.4,1.2.92,1.59a13.4,13.4,0,0,1-5.6,2.1c-.52.12-2-.49-1.44-.59.78-.16,2-.3,2.36.41s-1.19.46-1.7.84a51.6,51.6,0,0,0-4,3.36c-1.69,1.51-2,4.6-4,6.23-1.4,1.16-3.09,1.91-4.57,2.94s-2.46,2.58-3.84,3.68-3,1.38-3.9,2.71c-.59.94.58,2.34,0,3.33s-1.73.84-2.55,1.35c-2.15,1.37-4,3.28-6.34,4.31-1.59.68-3.78-.36-5.19.68-2,1.49-1.65,8.75-1.35,10.09.38,1.76,2.11,3.13,2.24,4.93.06.74-2.21-1.76-2-1.07.32.9,2.07.88,2.23,1.83.67,4.34-2.11,6.7-3.6,10.24a27.07,27.07,0,0,0-.7,3,62,62,0,0,1-2.2,6.45c-.75,1.74-3.09,3.13-2.75,5,.28,1.47,3.48.64,4.05,2,.45,1.1-2.43-1.21-3.51-.71-2.09,1-7.17,7.28-9.87,7.24-8.18-.13-10.57-15.94-13.79-20.8-2.77-4.18-5.24-4.81-6.86-9.7-.56-1.71-.22-3.64-.77-5.37-.31-1-1.19-1.63-1.72-2.48-1.07-1.76-2.15-3.52-3.07-5.36-.07-.12.28-.2.22-.32-.71-1.33-2-2.38-2.42-3.81-.14-.42,1.29.73,1.28.29s-.9-.36-1.29-.63c-2.26-1.54-2.4-4.91-3.53-7.41-2.09-4.68-2.68-9.93-3.29-15-.11-.86,1.15-1.39,1.35-2.25.36-1.66-2.36-1.4-2-1.63.57-.31,2.05.76,1.94.13-.32-1.74-2-2.94-2.77-4.5-1-2,2.19-4.23,2-6.49-.11-1.74-2.9-2.83-2.59-4.55.27-1.48,3.3-1,3.84-2.39,1.71-4.41-4.9-5-6.6-4.24-1,.42-.44,2.16-1,3-1.75,2.59-3,6.2-5.91,7.28-2.21.82-4.5-1.53-6.55-2.7-2.83-1.58-.83-1.49-2.18-3.05-1.73-2-4.76-3.85-5.6-6.51-.19-.6,1.29.7,1.86.43,3-1.39,5.57-3.65,8.51-5.21.4-.21-.34,1.2-.8,1.14A47,47,0,0,1,419,582.47c-.31-.11-2.67-4.64-2.87-4.76-1.35-.85-3.24-.51-4.58-1.37-.38-.23.46-.84.38-1.28a15.22,15.22,0,0,0-1.59-5.15c-.77-1.3-2.44-1.87-3.35-3.08s-.78-3-1.88-3.89c-.51-.42-2,.27-1.74.87.34.8,1.62.64,2.47.8.26.06-.34-.42-.6-.43a78.17,78.17,0,0,0-10.37-.46c-.39,0-.23,1.16-.59,1-1.27-.52-1.89-2.32-3.25-2.56s-2.55,1.39-3.93,1.32c-3.85-.2-7.55-1.65-11.38-2.1-.49-.06-.92.8-1.36.59-1.8-.83-3.1-2.49-4.82-3.47-.27-.15-.62.27-.92.18-1.69-.52-15.18-4.5-17.41-6.74-.24-.24,0-.68-.17-1-1.23-3.46-.69-8.52-3.9-10.32-3-1.69-6.54,2.56-10,2.5-1.81,0-3.29-1.59-4.66-2.76-.64-.57-.65-1.63-1.2-2.3-1.15-1.43-2.82-2.44-3.87-4-.38-.57.22-1.5-.2-2-1.54-1.91-4.17-2.87-5.42-5-.86-1.45-.08-3.4-.46-5.05-.29-1.22-1.28-2.21-1.51-3.44-.15-.78.84-1.63.46-2.32-1.64-2.9-6.47-10.33-11.82-8.14-1.11.45.87,2.52.29,3.56-.4.73-2.42-.5-2.46.33-.09,2.42,1.55,4.61,2.18,7a35.73,35.73,0,0,1,1.23,5.7c0,.5-.74,1-.52,1.4.34.68,1.33.76,1.88,1.29,2,1.93,2.49,5,3.36,7.62.92,2.84-.63,2.18-1.56,4.18-.08.17.42.11.47.28.27.87-.47,2.57.44,2.69,1.91.26,3.54-2,5.46-1.9.87.05,1.47,1.38,1.33,2.25-.48,2.88-2.53,5.35-3.07,8.24-.09.53,1.11.37,1.39.82,1,1.62,1.06,3.89,2.45,5.21.61.59,1.65-.66,2.5-.51,3.38.62,7.7,4.41,10.12,2,.88-.88,1-2.34,2-3.15s2.69-1,3.79-1.85c.73-.58.78-1.78,1.51-2.36s1.74-.18,2.36-.72c1.19-1,1.55-4.66,2.84-3.76s-1.41,3.24-1.19,4.9a55.24,55.24,0,0,0,3.67,13.43c.22.56,8.74,4.88,8.91,5s0,.59.13.86c1.15,2.38,2.44,4.68,3.69,7,.48.92,1.71,1.7,1.51,2.7-1,4.91-4.38,5.05-7.28,8.2-.63.69-.43,2-1.17,2.52-.47.36-1.17-.37-1.76-.31-.81.07-1.8.09-2.32.69-.74.85-.41,2.31-1.09,3.19-1.53,2-3.8,3.3-5.4,5.22-1.19,1.42-1.28,3.93-3,4.73s-3.68-1.66-5.26-.84-.68,4.12-2.31,4.78-3.58-2.12-5.41-1.67c-3.89,1-6.94,4.05-10.63,5.62a18.93,18.93,0,0,1-4.51.85c-4.66.74-9.28,2-14,2.07-1.28,0-2.21-1.5-3.47-1.59-1.07-.07-1.94,1-3,1.17a9.25,9.25,0,0,1-3.47-.27c-1.68-.4-3.17-1.81-4.89-1.71-1.18.06-1.76,1.62-2.81,2.14-.2.1.07-.59-.15-.68s-.44.44-.69.36c-2.07-.78-4.41-1.31-6-2.85-3-2.87-.61-4-1-6.82-1.49-9.73-3.07-19.44-5-29.08-1-4.78-1.73-9.62-3-14.33-.7-2.56-3.64-5.38-3.93-7.4-1.42-9.77-2.62-19.57-3.94-29.34a23.35,23.35,0,0,1-.51-3.7c0-.8.73-1.52.68-2.32-.06-1.63-.83-3.15-1-4.76-.06-.63.46-1.23.35-1.84-1-5.85-3-11.51-3.64-17.4-.11-.92,1.11-1.51,1.5-2.34.79-1.6,1.39-3.28,2-4.94.14-.38.74-1.13.33-1.16-.91-.08-3.29,5.18-4,6.6-.54,1.1-.71,4.31-1.46,3.36-1.55-2-1.43-4.87-1.68-7.38-.11-1,.56-2,.61-3a16.76,16.76,0,0,0-.24-4.64c-.09-.46-.82-1.34-1.07-.93"/><path class="cls-44" d="M689.41,573.65c2,1.17,5,1.42,5.94,3.5,1.1,2.31-4.13,12.75-9.3,8.26-4.27-3.72.59-7.11,2.19-9.41A17,17,0,0,0,689.41,573.65Z"/><path class="cls-45" d="M753.09,553.41c.84,2.47,1.8,4.91,2.5,7.42,2.27,8-8.08,11.41.38,20.67,2.58,2.82-.43-2.68,4.41-3.73,1.55-.34,4.42,4.21,5.29,6.26.19.49-1.19-.35-1.31-.86s1.31-1.49.77-1.41c-1.11.19-1.81,2-2.9,1.74-1.67-.44-2.18-4.12-3.81-3.52-1.47.53,2.13,3.72.85,4.61s-2.57-2.62-4.12-2.34c-1.26.23-.78,2.58-1.75,3.4-4.73,4-3.23-4.89-3.95-6-.59-.93.64,4-.13,3.27-1.91-1.95-2.6-4.8-3.79-7.27-.4-.82-1.42-1.78-1-2.58.36-.62,1.69,1.32,2,.7s-.87-9.49-.89-10c-.13-2.72-1.39-6.7.94-8.12.62-.38,1.45-.24,2.14-.48C750.26,554.66,751.67,554,753.09,553.41Z"/><path class="cls-46" d="M749.47,588.67a61.48,61.48,0,0,1,5.38,4.05C756.49,594.27,749.47,588.67,749.47,588.67Z"/><path class="cls-47" d="M590.47,644.33c-.36,1.41-1.1,2.78-1.11,4.24,0,.9,1,1.55,1.1,2.44.09.73-.41,1.43-.57,2.15-.33,1.54.21,3.51-.88,4.67-.58.62-1.49-1.14-1.63-2a3.83,3.83,0,0,1,.89-2.52c.15-.22.76.25.82,0C589.8,650.36,590.47,644.33,590.47,644.33Z"/><path class="cls-48" d="M323.46,633.85c2.17.75,4.6,1,6.52,2.27.68.45-1.65.71-2.43.44A19,19,0,0,1,323.46,633.85Z"/><path class="cls-49" d="M766.5,583.22c1.68.78,3.55,1.26,5,2.37.75.55,2.34,2.38,1.41,2.4C770.28,588,766.5,583.22,766.5,583.22Z"/><path class="cls-50" d="M757.65,593.71c1.15,1.49,3.4,2.59,3.45,4.47s-2,3.05-3.19,4.42c-.19.23.09-.58.09-.87C757.92,599.06,757.77,596.38,757.65,593.71Z"/><path class="cls-51" d="M764.33,595.39c-1.41,3.11-3.08,6.13-4.24,9.35-.37,1,1.41-1.71,1.85-2.69C762.91,599.9,764.33,595.39,764.33,595.39Z"/><path class="cls-52" d="M746.91,603.7c-.15,2.34.17,4.76-.43,7-.4,1.45-1.87,2.42-2.47,3.8s-.43,2.92-1,4.29a75.79,75.79,0,0,1-4.5,7.36c-.45.65-1.77,2.55-1.48,1.82,1-2.58,2.48-5,3.75-7.47.16-.31.37-.59.53-.9,1.36-2.81,2.25-5.83,3.65-8.62.27-.53,1.07-.74,1.18-1.33.16-.83-.52-1.67-.42-2.5A18.56,18.56,0,0,1,746.91,603.7Z"/><path class="cls-53" d="M648.59,224.86c1.34.63,5.38,2.49,4,1.93-4.64-1.92-9.26-3.95-13.87-6-3.1-1.38-8.74-4.9-12.36-5.1-.52,0,1,.9.78,1.37s-.8-.35-1.2-.52a27.13,27.13,0,0,1-3.07-1.34c-.18-.11,0-.54-.17-.6-11.37-3.32-22.78-5.73-33.75-10.27-.53-.21,2.18.56,1.65.38a121.27,121.27,0,0,0-13.72-3.83"/><path class="cls-54" d="M498.3,690.07c0-.53.06-10.19,1.23-11s3.46.85,4.05-.38-3.75-3-2.74-2.32c8.94,5.88-.3.08,6.74,8.06.37.42,1.33-.38,1.68,0,1,1.28,1.1,3.07,1.91,4.48.56,1,2.37,1.51,2.17,2.62-1.15,6.66-7.13,10.18-13.49,5.15C498,695.33,498.3,690.07,498.3,690.07Z"/><path class="cls-55" d="M772.25,596c1.21.92,3.47,1.25,3.62,2.76,1,9.68-2.66,8.25-3.34,14.87-.21,2,.3,4,0,5.94-.11.8.17-1.94-.52-2.34-1.48-.83-3.67.22-5-.81-1.1-.84-.44-2.83-1.21-4-.22-.34-.69.46-.94.79-.92,1.22-1.31,2.91-2.54,3.83-.41.3-.47-1.84-.72-1.38-1.1,2-2.89,8.55-2.08,6.44,1.18-3.06,2.08-6.24,3.19-9.34.55-1.54.25-4,1.79-4.57,3.62-1.39-1.36,10.31,3.43.45.44-.91.18-2.08.71-2.94.22-.37,1,.07,1.26-.29a14.83,14.83,0,0,0,2.82-5.09c.35-1.42-.32-2.91-.48-4.34Z"/><path class="cls-56" d="M755.07,629.62v0Z"/><path class="cls-57" d="M727.25,652.82a16.06,16.06,0,0,1,1.21-3.39c.57-.89,1.67-1.34,2.33-2.17.24-.33.15-.83.33-1.2.89-1.92,2-3.73,2.85-5.67,1.15-2.66,1.32-6.88,3.11-4.69,1.22,1.46,0,4.41,1.55,5.47,1,.7,1.41-2.32,2.61-2.63a8.18,8.18,0,0,1,5.81.38c.71.38-.47,1.58-1,2.17-1.28,1.38-3.54,1.92-4.34,3.63-.35.77,2.25,1,1.86,1.73-3.45,7-5.77.07-7.26,8.27-.12.66,1.33-.52,1.94-.27s.38,1,.7,1.4c1.82,2.37,5.51,3.94,5.7,6.92.13,1.89-3.61,1.33-5.06,2.51-.35.29.63.83.47,1.24-.72,1.82-2.26,3.23-3,5.06s-.38,3.71-1.12,5.38c-1.28,2.91-4.3,4.75-5.93,7.48-.22.36,1.13-1.08,1.12-.66-.06,2-2.44,8.91-3.64,10s-2.57,2.3-3.85,3.45c-1,.92-1.74,3.19-3.08,2.81-1.17-.35.82-2.58.23-3.64-1.21-2.14-.72,2.21-4.53,3-.43.09.39-1.54,0-1.35-1.17.54-8.28,6.38-9.29,6.42s.89-2.67,0-2.56c-2.3.29-4,2.34-6.09,3.33-.71.33-1.77,1.2-2.28.59-1-1.23-.43-3.25-1.16-4.68-.92-1.75-3.09-2.77-3.71-4.66-.34-1,1.45-1.91,1.22-2.95-.16-.7-1.61-.11-2-.69-1.13-1.56,3.77-10.1,4.63-10.81.52-.41.82,1.4,1.47,1.34,2.05-.23,3.91-1.34,5.83-2.11.51-.21,1.18-.35,1.46-.84,1-1.8.08-4.38,1.27-6.07,2-2.83,6.58-3.64,8.43-6.57,1.72-2.7,3.39-5.44,4.94-8.23.38-.68.34-1.59.82-2.22s1.5-1,2.14-1.64c1.11-1.12,1.9-2.54,3.06-3.61.33-.29-.57.82-.43,1.24C726.67,653.62,727,653,727.25,652.82Z"/><path class="cls-58" d="M783,636.51c-.78,2.31-.34,5.54-2.33,7-1.17.84-1.65-2.43-2.06-3.8-.73-2.44.24-5.48,1.08-7.65.4-1,1.65-4,1.53-2.88-.31,2.68-2.71,5.2-2.08,7.81.3,1.26,2.58-.3,3.86-.45Z"/><path class="cls-59" d="M607.79,690.56c6.84.63,13.74.76,20.52,1.9.7.12.58,1.44,1.22,1.74,2.63,1.21,5.72,1.26,8.27,2.61,6.27,3.35-6.18,4.58,7.6,5.1.76,0-1.17-1.71-.59-2.21s12.7,3.56,12.94,4.3c.44,1.45-2.36,2-3.19,3.28-.18.26.62.37.9.22,1.72-1,3-2.71,4.82-3.48,2.13-.9,5.62,5.28,5.82,5.77.53,1.28-.94,3.47.27,4.19,1.86,1.11,4.44-.82,6.51-.17a3.61,3.61,0,0,1,2.32,2.92c.1,1.06-1.43,1.67-1.78,2.68-.1.26.72.2.67.48-.47,3.14-.61,6.5-2.15,9.28-.44.79-1.81-1-2.64-.6-1.59.68-2.18,3.21-3.9,3.43s-3.28-1.75-5-2.31c-.56-.17-1.17.28-1.74.16-4.65-1-11-3.18-14.32-7-.4-.45.18-1.25-.09-1.78a20.8,20.8,0,0,0-3.18-4.4,14.64,14.64,0,0,0-4.17-3.4c-1-.45-2.45.7-3.19-.06-1.51-1.58-2-3.91-2.66-6-.11-.37.8-.9.46-1.08a18,18,0,0,0-5.32-1.41c-.44-.07-1,.67-1.32.32-.68-.79-.27-2.21-1-3-7-7.72-2.15-1.68-7.45-3.2-.81-.23-1.32-1.07-2-1.5-1.7-1-3.87-1.39-5.24-2.82C608.15,693.55,607.79,690.56,607.79,690.56Z"/><path class="cls-60" d="M777.49,647.53c-.12.22-.39.64-.39.64s.27-.42.39-.64Z"/><path class="cls-61" d="M744.37,691.06c-.92.62-2.74,3-2.8,1.89-.13-2.76,2.72-5.15,2.53-7.91-.39-5.87-5.55,2.12-2.74-3.72.86-1.78,2.32-3.24,3.06-5.07.41-1,0-2.25.34-3.29A14.47,14.47,0,0,1,747,668.8c.18-.22.4.94.47.67.94-3.48,0-8.21,2.92-10.42.29-.23.83.6,1,.3.87-1.14.85-2.8,1.72-3.94,1.73-2.24,5.39-1.8,7.9-3.12a17.87,17.87,0,0,0,4.41-3.43c2.09-2.17,2.63-5.46,4.51-7.8.19-.24.93.12.84.42-1.53,4.58-3.2,8.3-6.92,11.18-2.32,1.81-12.38,7-14,9.73-1,1.56-2.11,3.67-1.37,5.35.55,1.24,2.83,1.4,4,.73,1.48-.84,1.37-3.17,2.52-4.43s3.09-2.2,4.6-3.35c1-.76,1.7-2,2.91-2.35.59-.16-.3,1.24-.66,1.74a75.23,75.23,0,0,1-7.42,9.24c-.37.37-1.75.12-1.45.53,2.14,3.1,6.37,1.93,4.33,7.38-.53,1.41-2.16,2.13-3.36,3-.65.49-1.7,1.74-2.21,1.1-1.28-1.64.12-4.92-1.66-6-1.21-.75-2.09,2-2.72,3.33-.14.31.81.39.77.72A55.51,55.51,0,0,1,746.05,690C745.85,690.64,744.37,691.06,744.37,691.06Z"/><path class="cls-62" d="M674.84,708.79c0,2.08,1.4,4.79-.11,6.23-1.17,1.13-3.71-.38-4.55-1.77C669.07,711.4,674.84,708.79,674.84,708.79Z"/><path class="cls-63" d="M778.19,653.6c1.69-1.66,3.28-3.43,5.06-5,.72-.62,2.76-2.37,2.41-1.51s-6.25,7.44-7,8.34-1.76,3.27-2,2.28C776.28,656.29,778.19,653.6,778.19,653.6Z"/><path class="cls-64" d="M758,676.72a68.74,68.74,0,0,1-2.31,6.55c-.12.24-.9.18-.8-.07A64.12,64.12,0,0,1,758,676.72Z"/><path class="cls-65" d="M803,639c-.88,1.16-1.24,3.81-2.65,3.47s1.08-2.47,1.44-3.75c0-.13-.23-.12-.34-.14a18.69,18.69,0,0,0-4.43-.57c-.92.09-1.94,2.06-2.45,1.3-.75-1.1.7-2.6.66-3.92,0-.59-.53,1-.73,1.59-.89,2.44-1.92,7-3.09,6.92s-1.54-1.85-1.37-2.91,1.68-1.69,2.34-2.68c1.48-2.22,2.47-4.75,3.81-7.06a10.51,10.51,0,0,1-.87,1.56c-.53.76-4.48,7.15-7.06,5-1.06-.88.73-2.67,1.35-3.9.49-1,1.39-1.7,2-2.63.23-.39,2.95-7.86,6-4.23,1.27,1.5-3.22,5.84.46,6.18.43,0,1.74-2.89,2.36-4.46s5.05-12.42,5.86-13.58,2.25-1.33,3.15-2.25c.3-.29,8.18-12.47,7.26-9.23"/><path class="cls-66" d="M812.08,617.75c-1.89,4.52-4,9.06-5.71,13.63-.11.28.74-.94.64-.65a58.31,58.31,0,0,1-4,8.28"/><path class="cls-67" d="M790.85,648.5c-.5,1.14-.7,2.47-1.5,3.44s.85-2.17,1.31-3.22A1,1,0,0,1,790.85,648.5Z"/><path class="cls-68" d="M817.44,601.26c.11-.36.21-.72.31-1.07"/><path class="cls-69" d="M709.74,716.63c2-1,4.89-4.89,5.92-3s-3.41,3-5.41,3.94C709.92,717.79,709.74,716.63,709.74,716.63Z"/><path class="cls-70" d="M693.16,728.21c-5.36,2-12.86,6.29-18.72,6.22-.7,0,1.57-1.91.86-1.92-2.5,0-5.92,4-7.25,1.92-3-4.73,8.54-6,9.7-6.42.55-.22.74-1,1.25-1.25,4.84-2.85,11-2.31,16.52-3.31.32-.05.71.2,1,0,1.41-1.16,2.34-2.85,3.82-3.93.25-.19.16.88.46.82,4.65-.9,9.15-2.42,13.73-3.55.58-.15,2.19-.73,1.77-.3a46.38,46.38,0,0,1-19.13,11.24A31,31,0,0,1,693.16,728.21Z"/><path class="cls-71" d="M784.23,661.55l-2.75,5.54,2.75-5.54Z"/><path class="cls-72" d="M801,639.78c-.61,1.62-1.08,3.29-1.8,4.87-.44.94-1.83,3.68-1.65,2.65a21.07,21.07,0,0,1,2-4.78C800,641.59,801,639.78,801,639.78Z"/><path class="cls-73" d="M757,691.19l.44.22-.44-.22Z"/><path class="cls-74" d="M742.2,702c2.59-1.47,5.38-2.63,7.76-4.41,1.37-1,1.84-3.06,3.35-3.83,1.26-.65-1.55,2.37-2.5,3.41a42.16,42.16,0,0,1-3.71,3.35c-1,.9-6.56,5.21-7.2,5C738.54,705.22,742.2,702,742.2,702Z"/><path class="cls-75" d="M728.71,711.28a38.92,38.92,0,0,0,4.53-2.12c1.25-.82,2.09-2.22,3.4-3,.27-.14.57.6.38.85-.52.71-1.44,1-2.13,1.53-1.14.87-7.67,6.16-7.81,6.17C725.81,714.85,728.71,711.28,728.71,711.28Z"/><path class="cls-76" d="M759.57,692.38c-2.46,2.87-4.87,5.8-7.38,8.64-.57.64,1.14-1.3,1.55-2,.12-.21-.73.58-.63.36,2.4-4.68,1.45-2.78,3.18-4.71s2.94-4,4.63-5.85c2.47-2.71,5.24-5.14,7.88-7.72,1.84-1.8-3.2,4-4.79,6.06C762.58,688.91,759.57,692.38,759.57,692.38Z"/><path class="cls-77" d="M735.48,710.41c2.25-1,4.33-2.66,6.77-3,1-.13-1,2-1.89,2.36A16.58,16.58,0,0,1,735.48,710.41Z"/><path class="cls-78" d="M774.74,683.73l2.52-4.12-2.52,4.12Z"/><path class="cls-79" d="M320.71,762.51c-1.09-1.92-2.2-4.51-3.82-6.31a35.51,35.51,0,0,1-3.79-4.08c-.58-.86-1.65-2.28-.89-3s8.06,4.27,8.07,4.26c1.86-.25,5-6.85,5.05-7s.05.68.26.9c.45.47,1.15.65,1.63,1.11,3.68,3.37,4.39,5.52,7.77,9.75.68.86,3.07,1.66,2.25,2.37-1,.84-3.61-2.44-3.63-1.17-.05,1.91,2.66,2.8,3.54,4.49.17.32-1.1,0-1,.36.27,1,1.39,1.61,1.8,2.57s.33,2.35.69,3.47c1,3.06,4.54,5.21,4.7,8.42,0,0-6.11-3.08-6.19-3.11a67.31,67.31,0,0,1-10.37-7.75c-1.14-1-2.39-1.86-3.52-2.85C322.37,764.21,320.71,762.51,320.71,762.51Z"/><path class="cls-80" d="M796.16,654.91c.14-.28.28-.56.43-.84"/><path class="cls-81" d="M796.75,653.75l2-4.12c.24-.49-.94,1.94-.71,1.44.39-.87.84-1.73,1.24-2.6.83-1.8,1.65-3.61,2.47-5.41a26.09,26.09,0,0,1,1.12-2.43c-.44,1.17-1,2.28-1.49,3.42"/><path class="cls-82" d="M781.69,680.3a320.26,320.26,0,0,1-83.94,89.33q-10.14,7.26-20.78,13.65l-.11.1c.92-.57,2.07-.86,2.73-1.7,1-1.29,1-3.24,2.16-4.42s3.32-1.33,4.56-2.57c.56-.56-.08-1.69.37-2.36.72-1.06,2-1.64,2.91-2.52,3.74-3.51-3.8,2.22,4.25-4.75.4-.35-1.2,1.68-.74,1.41,1.37-.81,2.37-2.13,3.62-3.11,3.72-2.91,7.57-6.22,11.46-8.91,8.7-6,16.56-12.13,23.85-19.89.87-.94,2-1.63,2.74-2.64.48-.64.44-1.57.92-2.22,1.36-1.79,2.95-3.39,4.47-5,4.85-5.28,4.6-2.36,9.79-9.61.15-.21-.93.41-.79.19a69.12,69.12,0,0,1,8.21-10c.91-1,2.24-3.83,2.91-2.69.84,1.43-1.72,3-1.76,4.64,0,1,1.14-1.57,1.71-2.37a20.42,20.42,0,0,1,2-2.63c1.22-1.2,3-1.84,4-3.2,1.25-1.64,1.23-4,2.44-5.68,2.23-3.1,3.43-5.38,5.88-8.89,1.11-1.57,4.25-4.64,4.69-5.39.28-.46-.54-1.15-.22-1.59.68-1,2-1.3,2.87-2.12,1.54-1.46,6.53-9,7.52-9.58,1.74-.91-1.82,3.44-2.8,5.13-1.78,3.08-5.5,5.61-5.42,9.16Z"/><path class="cls-83" d="M249.57,480.52c-.4.63.22,1.49.27,2.25,1.1,18.54,2.31,37.09,3.19,55.66,0,.88-.46,1.72-.42,2.6.08,1.46.76,2.85.78,4.32,0,.26-.7-.53-.75-.27a11.63,11.63,0,0,0,.09,3.48c.56,5.6,1,11.22,1.94,16.77.14.84,1.17,1.34,1.31,2.17,1,5.76,1.34,11.63,2.19,17.42a7.49,7.49,0,0,0,.85,3.23c1.61,2.34,4.17,3.93,5.73,6.29,1.07,1.64,1.18,3.72,2,5.49,6.23,13.28-2.9-11.44,6,10.88.59,1.49,1.93,3.2,1.25,4.65-.56,1.17-4.12-.46-3.82.8,0,.09,8.18,12,10.82,12.36,1.3.19,2.62-1.1,3.88-.73s1.88,2.41,3.27,2.75,3-1.07,4.5-.79c2.78.5,5.15,2.32,7.86,3.08,3.62,1,8.36-.26,10.86,3.93.91,1.51-.73,3.59-.19,5.27.22.7,2.36,0,2.12.72-1.39,3.83-3.93,7.17-6.18,10.56-.29.45-1.09.37-1.36.82-1.58,2.53-1.89,5.65-3.16,8.32-2.2,4.61-7.33,10.68-12.21,12.76-13.24,5.62,6.28-10.28-14.65,6.13-.95.74-.16,3.07-1.33,3.35s-2.92-.75-3.62.23c-3.94,5.5,2.55,13.39,4.06,17.23.31.79-.08,1.76.26,2.55a58.5,58.5,0,0,0,3.15,5.32,47.28,47.28,0,0,0,2.53,4.78c1.4,1.89,3.78,3,4.91,5.09,4.88,8.91-4.84-6.22,2.35,5.33.51.84,1.31,1.48,1.78,2.35.07.14-.45-.08-.48.07-.49,2.5.6,5.6-1,7.57-.84,1-2.11-1.7-3.34-2.23-.57-.26.88.88,1.31,1.34s.91,1.1,1.39,1.61c.79.82,1.62,1.59,2.42,2.39,3.09,3.1,6.07,6.1,9.32,9l0-.36A317.54,317.54,0,0,1,216.8,628.57,298.88,298.88,0,0,1,204.07,589c-1.23-5-2.21-10.14-3.43-15.19-6.24-26-10.63-69.33-5.19-96.09,1.35-6.67,2-9.18,3.27-17.55a306.56,306.56,0,0,1,29-89.36l.33.57c.12,1.78,1.27,3.35,1.63,5.09a10.57,10.57,0,0,1,.15,3.27c-.08.86-.81,1.61-.72,2.46a25,25,0,0,0,1.52,5.23c.46,1.42,1.84,2.73,1.57,4.21s-2.19,2.43-3.07,3.81a8.89,8.89,0,0,0-.74,2.14c-.44,1.32-.52,2.81-1.29,4s-2.5,1.87-3.38,3.14c-1.56,2.23-2.24,9.47-2,12.21.36,3.76,1.84,5.05,1.31,8.74-1.13,8.12-5.26,10,2.86,19.17,1.1,1.25.78-3.22,1.36-4.78.69-1.84,2.76-4.91,5.67-3,1.45.95,1.19,3.24,1.67,4.9a69.49,69.49,0,0,1,2,8c.19,1.16-1,2.53-.37,3.51,1,1.45,2.53,2.45,3.43,3.92,2.17,3.55-.78,5.07,3.71,8.55.84.65,2-1,3.06-.82a14.6,14.6,0,0,1,1.85.43"/></svg>