<?xml version="1.0" encoding="UTF-8"?>
<svg xmlns="http://www.w3.org/2000/svg" xmlns:xlink="http://www.w3.org/1999/xlink" width="100px" height="px" viewBox="0 0 100 100" version="1.1">
<g id="surface1">
<path style=" stroke:none;fill-rule:nonzero;fill:rgb(100%,100%,100%);fill-opacity:1;" d="M 50 6.25 L 37.5 25 L 53.125 28.125 L 50 43.75 L 62.5 25 L 46.875 21.875 Z M 31.25 48.632812 C 30.878906 48.632812 29.335938 49.21875 28.164062 49.941406 C 27.617188 50.273438 27.128906 50.625 26.757812 50.878906 L 26.757812 74.121094 C 27.128906 74.375 27.617188 74.726562 28.164062 75.058594 C 29.335938 75.78125 30.878906 76.367188 31.25 76.367188 C 31.621094 76.367188 33.164062 75.78125 34.335938 75.058594 C 35.488281 74.335938 36.40625 73.632812 36.40625 73.632812 L 36.894531 73.242188 L 39.257812 73.242188 L 39.257812 51.757812 L 36.894531 51.757812 L 36.40625 51.367188 C 36.40625 51.367188 35.488281 50.664062 34.335938 49.941406 C 33.164062 49.21875 31.621094 48.632812 31.25 48.632812 Z M 68.75 48.632812 C 68.378906 48.632812 66.835938 49.21875 65.664062 49.941406 C 64.511719 50.664062 63.59375 51.367188 63.59375 51.367188 L 63.105469 51.757812 L 60.742188 51.757812 L 60.742188 73.242188 L 63.105469 73.242188 L 63.59375 73.632812 C 63.59375 73.632812 64.511719 74.335938 65.664062 75.058594 C 66.835938 75.78125 68.378906 76.367188 68.75 76.367188 C 69.121094 76.367188 70.664062 75.78125 71.835938 75.058594 C 72.382812 74.726562 72.871094 74.375 73.242188 74.121094 L 73.242188 50.878906 C 72.871094 50.625 72.382812 50.273438 71.835938 49.941406 C 70.664062 49.21875 69.121094 48.632812 68.75 48.632812 Z M 42.773438 51.757812 L 42.773438 73.242188 L 45.507812 73.242188 L 45.507812 51.757812 Z M 49.023438 51.757812 L 49.023438 73.242188 L 57.226562 73.242188 L 57.226562 51.757812 Z M 18.652344 60.742188 C 14.980469 60.742188 11.503906 62.539062 8.898438 65.175781 C 6.292969 67.792969 4.492188 71.289062 4.492188 75 L 4.492188 95.703125 L 8.007812 95.703125 L 8.007812 75 C 8.007812 72.460938 9.332031 69.707031 11.390625 67.636719 C 13.445312 65.585938 16.171875 64.257812 18.652344 64.257812 L 23.242188 64.257812 L 23.242188 60.742188 Z M 76.757812 60.742188 L 76.757812 64.257812 L 81.230469 64.257812 C 83.789062 64.257812 86.523438 65.585938 88.59375 67.65625 C 90.664062 69.726562 91.992188 72.460938 91.992188 75 L 91.992188 95.703125 L 95.507812 95.703125 L 95.507812 75 C 95.507812 71.289062 93.710938 67.773438 91.074219 65.15625 C 88.457031 62.539062 84.941406 60.742188 81.230469 60.742188 Z M 76.757812 60.742188 "/>
</g>
</svg>
