<?xml version="1.0" encoding="UTF-8"?>
<svg xmlns="http://www.w3.org/2000/svg" xmlns:xlink="http://www.w3.org/1999/xlink" width="100px" height="px" viewBox="0 0 100 100" version="1.1">
<g id="surface1">
<path style=" stroke:none;fill-rule:nonzero;fill:rgb(100%,100%,100%);fill-opacity:1;" d="M 82.902344 44.148438 L 76.792969 44.148438 C 75.886719 44.148438 75.152344 44.882812 75.152344 45.789062 L 75.152344 49.203125 L 72.367188 49.203125 L 72.367188 45.789062 C 72.367188 44.882812 71.632812 44.148438 70.726562 44.148438 L 63.941406 44.148438 L 63.941406 40.757812 L 70.726562 40.757812 C 71.632812 40.757812 72.367188 40.023438 72.367188 39.121094 L 72.367188 12.914062 C 72.367188 8.953125 69.140625 5.730469 65.179688 5.730469 L 51.640625 5.730469 L 51.640625 1.640625 C 51.640625 0.734375 50.90625 0 50 0 C 49.09375 0 48.359375 0.734375 48.359375 1.640625 L 48.359375 5.730469 L 34.820312 5.730469 C 30.859375 5.730469 27.632812 8.953125 27.632812 12.914062 L 27.632812 39.121094 C 27.632812 40.023438 28.367188 40.757812 29.273438 40.757812 L 36.058594 40.757812 L 36.058594 44.148438 L 29.273438 44.148438 C 28.367188 44.148438 27.632812 44.882812 27.632812 45.789062 L 27.632812 49.203125 L 24.847656 49.203125 L 24.847656 45.789062 C 24.847656 44.882812 24.113281 44.148438 23.207031 44.148438 L 17.097656 44.148438 C 16.191406 44.148438 15.457031 44.882812 15.457031 45.789062 L 15.457031 78.8125 C 15.457031 79.71875 16.191406 80.453125 17.097656 80.453125 L 23.207031 80.453125 C 24.113281 80.453125 24.847656 79.71875 24.847656 78.8125 L 24.847656 59.222656 L 27.632812 59.222656 L 27.632812 72.542969 C 27.632812 73.449219 28.367188 74.183594 29.273438 74.183594 L 32.183594 74.183594 L 32.183594 88.96875 L 30.117188 88.96875 C 29.210938 88.96875 28.476562 89.703125 28.476562 90.609375 L 28.476562 98.359375 C 28.476562 99.265625 29.210938 100 30.117188 100 L 43.933594 100 C 44.839844 100 45.574219 99.265625 45.574219 98.359375 L 45.574219 90.609375 C 45.574219 89.703125 44.839844 88.96875 43.933594 88.96875 L 41.867188 88.96875 L 41.867188 74.183594 L 58.132812 74.183594 L 58.132812 88.96875 L 56.066406 88.96875 C 55.160156 88.96875 54.425781 89.703125 54.425781 90.609375 L 54.425781 98.359375 C 54.425781 99.265625 55.160156 100 56.066406 100 L 69.882812 100 C 70.789062 100 71.523438 99.265625 71.523438 98.359375 L 71.523438 90.609375 C 71.523438 89.703125 70.789062 88.96875 69.882812 88.96875 L 67.816406 88.96875 L 67.816406 74.183594 L 70.726562 74.183594 C 71.632812 74.183594 72.367188 73.449219 72.367188 72.542969 L 72.367188 59.222656 L 75.152344 59.222656 L 75.152344 78.8125 C 75.152344 79.71875 75.886719 80.453125 76.792969 80.453125 L 82.902344 80.453125 C 83.808594 80.453125 84.542969 79.71875 84.542969 78.8125 L 84.542969 45.789062 C 84.542969 44.882812 83.808594 44.148438 82.902344 44.148438 Z M 21.570312 77.175781 L 18.734375 77.175781 L 18.734375 47.425781 L 21.570312 47.425781 Z M 27.632812 55.941406 L 24.847656 55.941406 L 24.847656 52.480469 L 27.632812 52.480469 Z M 30.914062 37.480469 L 30.914062 12.914062 C 30.914062 10.761719 32.664062 9.007812 34.820312 9.007812 L 65.179688 9.007812 C 67.335938 9.007812 69.085938 10.761719 69.085938 12.914062 L 69.085938 37.480469 Z M 60.660156 40.757812 L 60.660156 44.148438 L 39.339844 44.148438 L 39.339844 40.757812 Z M 42.292969 92.25 L 42.292969 96.722656 L 31.757812 96.722656 L 31.757812 92.25 Z M 35.464844 88.96875 L 35.464844 74.183594 L 38.585938 74.183594 L 38.585938 88.96875 Z M 68.242188 92.25 L 68.242188 96.722656 L 57.707031 96.722656 L 57.707031 92.25 Z M 61.414062 88.96875 L 61.414062 74.183594 L 64.539062 74.183594 L 64.539062 88.96875 Z M 69.085938 70.902344 L 30.914062 70.902344 L 30.914062 47.425781 L 69.085938 47.425781 Z M 75.152344 55.941406 L 72.367188 55.941406 L 72.367188 52.480469 L 75.152344 52.480469 Z M 81.265625 77.175781 L 78.429688 77.175781 L 78.429688 47.425781 L 81.265625 47.425781 Z M 81.265625 77.175781 "/>
<path style=" stroke:none;fill-rule:nonzero;fill:rgb(100%,100%,100%);fill-opacity:1;" d="M 39.890625 16.550781 C 35.828125 16.550781 32.519531 19.855469 32.519531 23.921875 C 32.519531 27.984375 35.828125 31.289062 39.890625 31.289062 C 43.953125 31.289062 47.257812 27.984375 47.257812 23.921875 C 47.257812 19.855469 43.953125 16.550781 39.890625 16.550781 Z M 39.890625 28.007812 C 37.636719 28.007812 35.800781 26.175781 35.800781 23.921875 C 35.800781 21.664062 37.636719 19.832031 39.890625 19.832031 C 42.144531 19.832031 43.980469 21.664062 43.980469 23.921875 C 43.980469 26.175781 42.144531 28.007812 39.890625 28.007812 Z M 39.890625 28.007812 "/>
<path style=" stroke:none;fill-rule:nonzero;fill:rgb(100%,100%,100%);fill-opacity:1;" d="M 60.109375 16.550781 C 56.046875 16.550781 52.742188 19.855469 52.742188 23.921875 C 52.742188 27.984375 56.046875 31.289062 60.109375 31.289062 C 64.171875 31.289062 67.480469 27.984375 67.480469 23.921875 C 67.480469 19.855469 64.171875 16.550781 60.109375 16.550781 Z M 60.109375 28.007812 C 57.855469 28.007812 56.019531 26.175781 56.019531 23.921875 C 56.019531 21.664062 57.855469 19.832031 60.109375 19.832031 C 62.367188 19.832031 64.199219 21.664062 64.199219 23.921875 C 64.199219 26.175781 62.367188 28.007812 60.109375 28.007812 Z M 60.109375 28.007812 "/>
<path style=" stroke:none;fill-rule:nonzero;fill:rgb(100%,100%,100%);fill-opacity:1;" d="M 50 52.910156 C 44.078125 52.910156 39.261719 57.726562 39.261719 63.648438 C 39.261719 64.554688 39.996094 65.289062 40.902344 65.289062 L 59.097656 65.289062 C 60.003906 65.289062 60.738281 64.554688 60.738281 63.648438 C 60.738281 57.726562 55.921875 52.910156 50 52.910156 Z M 42.722656 62.007812 C 43.472656 58.683594 46.449219 56.1875 50 56.1875 C 53.550781 56.1875 56.53125 58.683594 57.277344 62.007812 Z M 42.722656 62.007812 "/>
<path style=" stroke:none;fill-rule:nonzero;fill:rgb(100%,100%,100%);fill-opacity:1;" d="M 65.457031 52.191406 C 65.457031 53.097656 64.722656 53.828125 63.816406 53.828125 C 62.910156 53.828125 62.179688 53.097656 62.179688 52.191406 C 62.179688 51.285156 62.910156 50.550781 63.816406 50.550781 C 64.722656 50.550781 65.457031 51.285156 65.457031 52.191406 Z M 65.457031 52.191406 "/>
<path style=" stroke:none;fill-rule:nonzero;fill:rgb(100%,100%,100%);fill-opacity:1;" d="M 37.824219 52.191406 C 37.824219 53.097656 37.089844 53.828125 36.183594 53.828125 C 35.277344 53.828125 34.542969 53.097656 34.542969 52.191406 C 34.542969 51.285156 35.277344 50.550781 36.183594 50.550781 C 37.089844 50.550781 37.824219 51.285156 37.824219 52.191406 Z M 37.824219 52.191406 "/>
</g>
</svg>
